<svg width="32" height="32" viewBox="0 0 32 32" fill="none" xmlns="http://www.w3.org/2000/svg">
<rect width="32" height="32" rx="16" fill="#1E1E1E"/>
<path fill-rule="evenodd" clip-rule="evenodd" d="M15.3287 15.15L5.97181 15.151C5.93517 15.151 5.91874 15.1324 5.92253 15.0951C6.15249 13.0375 6.885 11.2395 8.12008 9.70118C10.2011 7.11036 13.4135 5.6567 16.7359 5.89077C19.4821 6.08345 21.8278 7.23735 23.773 9.35245C23.7983 9.37962 23.8242 9.37993 23.8507 9.3534L25.0968 8.10727C25.1259 8.07884 25.1265 8.04978 25.0987 8.02009C24.2433 7.11226 23.3542 6.375 22.4312 5.80832C20.4936 4.61747 18.4041 4.01478 16.1626 4.00025C10.1707 3.96234 5.07819 8.30816 4.15426 14.2365C4.01211 15.1475 3.96821 16.0702 4.02254 17.0046C4.02278 17.0092 4.02468 17.0135 4.02786 17.0167C4.03103 17.0198 4.03523 17.0216 4.03959 17.0216H15.3315C15.3694 17.0216 15.3884 17.0023 15.3884 16.9638V15.2107C15.3884 15.1703 15.3685 15.15 15.3287 15.15ZM18.5176 17.3498C18.5249 17.2498 18.5323 17.1499 18.5323 17.0482C18.5323 17.0447 18.533 17.0412 18.5344 17.038C18.5357 17.0348 18.5378 17.0319 18.5403 17.0294C18.5429 17.0269 18.5459 17.025 18.5492 17.0236C18.5526 17.0223 18.5561 17.0216 18.5597 17.0216H26.0508C26.0554 17.0216 26.0601 17.0226 26.0644 17.0244C26.0687 17.0263 26.0725 17.029 26.0757 17.0324C26.0788 17.0358 26.0811 17.0398 26.0826 17.0442C26.084 17.0485 26.0845 17.0531 26.0839 17.0576C25.6082 21.6262 22.2593 25.3058 17.7675 26.1388C15.183 26.6183 12.7366 26.1473 10.4281 24.7258C10.1407 24.5496 9.84125 24.3386 9.5298 24.0928C9.52346 24.0878 9.51618 24.0842 9.50842 24.0821C9.50065 24.08 9.49256 24.0795 9.48465 24.0807C9.47674 24.0819 9.46918 24.0846 9.46243 24.0888C9.45569 24.093 9.44991 24.0986 9.44546 24.1051L8.42486 25.5692C8.42088 25.5751 8.41926 25.5822 8.42032 25.5891C8.42138 25.596 8.42504 25.6021 8.43055 25.6062C11.7842 28.1828 16.0694 28.902 20.0447 27.4446C22.6374 26.4941 24.8321 24.7097 26.2592 22.3321C27.5461 20.188 28.1197 17.8104 27.9801 15.1993C27.9782 15.1671 27.9612 15.151 27.9289 15.151L17.0843 15.1501C17.0483 15.1501 17.0306 15.1681 17.0312 15.2041C17.0432 15.803 17.0413 16.4208 17.0255 17.0576C16.9996 18.0868 16.9927 19.0372 17.0047 19.9091C17.0053 19.9419 17.0221 19.9583 17.0549 19.9583L18.4546 19.9602C18.488 19.9602 18.5048 19.9435 18.5048 19.91C18.5054 19.1759 18.5048 18.4235 18.5029 17.6527C18.5029 17.5503 18.5102 17.45 18.5176 17.3498Z" fill="#D9D9D9"/>
</svg>
