<?xml version="1.0" encoding="UTF-8" standalone="no"?>
<!DOCTYPE svg PUBLIC "-//W3C//DTD SVG 1.1//EN" "http://www.w3.org/Graphics/SVG/1.1/DTD/svg11.dtd">
<svg xmlns="http://www.w3.org/2000/svg" version="1.1" viewBox="0.00 0.00 1931.00 1086.00">
<path fill="#ea072b" d="
  M 1138.45 249.28
  L 1138.84 250.07
  A 1.61 1.55 33.2 0 1 1139.00 250.76
  Q 1138.96 256.41 1139.04 262.28
  C 1139.05 263.22 1139.47 264.00 1139.47 264.94
  Q 1139.51 270.29 1139.50 275.56
  C 1139.50 276.29 1139.97 277.05 1139.97 277.86
  Q 1140.00 286.96 1140.65 298.29
  Q 1140.66 298.49 1140.46 298.49
  L 1132.49 298.51
  Q 1132.18 298.51 1132.13 298.21
  Q 1130.70 288.61 1126.66 278.28
  Q 1124.30 272.22 1120.74 268.07
  Q 1117.84 264.68 1111.97 261.92
  Q 1096.59 254.70 1080.62 252.61
  Q 1068.61 251.04 1056.63 252.81
  C 1034.92 256.01 1015.54 268.64 1010.57 291.26
  Q 1008.31 301.54 1009.80 310.53
  C 1012.04 324.09 1020.74 334.18 1031.86 341.38
  Q 1039.39 346.25 1047.49 349.91
  Q 1061.29 356.13 1080.90 363.39
  Q 1101.45 370.99 1117.36 380.23
  Q 1125.40 384.90 1133.03 391.77
  Q 1135.12 393.66 1137.01 395.83
  C 1138.85 397.96 1140.70 400.02 1142.29 402.32
  Q 1151.00 415.02 1152.90 430.79
  Q 1153.04 432.02 1153.01 433.25
  C 1152.98 434.60 1153.49 435.66 1153.52 436.99
  Q 1154.32 470.88 1132.69 495.64
  Q 1122.39 507.42 1108.99 514.89
  Q 1090.01 525.46 1068.45 527.88
  Q 1067.48 527.99 1066.62 528.30
  Q 1066.18 528.47 1065.71 528.42
  C 1063.30 528.18 1061.26 528.90 1058.97 528.90
  Q 1050.33 528.90 1041.37 528.94
  Q 1040.00 528.94 1038.67 528.61
  C 1036.87 528.16 1035.06 528.73 1033.31 528.14
  Q 1032.49 527.86 1031.62 527.89
  Q 1030.75 527.93 1029.87 527.81
  Q 1001.06 523.94 973.96 513.13
  A 1.52 1.51 -76.4 0 1 973.01 511.56
  Q 973.25 509.24 972.93 506.81
  Q 972.52 503.68 972.53 502.17
  C 972.55 500.07 972.59 498.08 972.28 495.92
  Q 971.94 493.62 971.97 491.24
  Q 972.02 488.24 971.68 485.44
  Q 971.42 483.35 971.49 481.21
  Q 971.54 479.37 971.27 477.27
  Q 970.93 474.63 970.95 471.98
  Q 970.97 469.80 970.59 466.56
  Q 970.29 463.91 970.58 461.07
  A 0.59 0.58 2.7 0 1 971.17 460.54
  L 975.82 460.54
  A 1.66 1.64 30.7 0 0 976.59 460.35
  Q 977.39 459.91 978.20 460.09
  Q 978.80 460.21 978.91 460.81
  Q 980.65 470.18 983.01 478.56
  Q 984.84 485.04 988.40 489.90
  Q 991.15 493.64 997.49 498.15
  Q 1018.06 512.76 1043.75 514.87
  Q 1046.37 515.08 1054.08 514.87
  Q 1060.16 514.70 1064.35 513.99
  C 1080.10 511.30 1094.70 504.54 1105.38 492.88
  Q 1116.37 480.88 1118.87 463.20
  C 1119.04 462.00 1118.67 461.11 1119.16 459.92
  Q 1119.41 459.29 1119.43 458.46
  Q 1119.59 452.09 1118.41 446.26
  Q 1115.61 432.39 1104.83 422.66
  Q 1101.01 419.21 1096.57 416.26
  Q 1085.82 409.09 1070.59 402.96
  Q 1056.25 397.19 1041.31 391.22
  Q 1033.69 388.17 1026.44 384.83
  Q 1013.01 378.66 1002.20 370.47
  C 996.56 366.19 990.86 360.47 986.78 354.52
  Q 977.08 340.35 976.08 322.07
  C 975.84 317.59 975.82 312.57 976.51 308.09
  C 978.75 293.42 985.69 280.64 995.69 269.41
  Q 999.60 265.02 1004.09 261.31
  Q 1027.02 242.39 1056.78 237.95
  Q 1057.76 237.80 1058.77 237.82
  Q 1059.71 237.83 1060.54 237.43
  Q 1060.99 237.21 1061.48 237.28
  Q 1063.10 237.52 1064.60 237.14
  Q 1066.01 236.78 1067.51 236.79
  Q 1073.00 236.81 1078.50 236.80
  Q 1080.24 236.80 1081.95 237.19
  C 1083.48 237.54 1085.12 237.10 1086.67 237.37
  Q 1089.15 237.79 1091.70 238.11
  Q 1115.85 241.22 1138.20 248.51
  A 0.40 0.39 11.6 0 1 1138.47 248.91
  Q 1138.46 249.06 1138.44 249.20
  Q 1138.43 249.24 1138.45 249.28
  Z"
/>
<path fill="#ea072b" d="
  M 37.38 508.31
  Q 40.97 502.40 41.71 495.11
  Q 41.85 493.75 42.14 492.49
  C 42.43 491.21 42.09 489.93 42.40 488.62
  Q 43.02 485.91 42.70 482.69
  C 42.57 481.34 43.28 480.35 43.26 479.01
  Q 43.19 471.44 43.30 464.33
  C 43.32 463.18 43.74 462.25 43.74 461.15
  Q 43.95 378.88 43.53 302.51
  Q 43.52 301.70 43.48 300.80
  Q 43.11 293.64 43.21 287.00
  Q 43.24 284.94 42.96 282.53
  Q 42.70 280.28 42.59 278.01
  Q 42.28 271.26 40.50 264.59
  C 38.40 256.68 34.54 253.59 27.30 251.61
  Q 24.37 250.80 20.71 250.45
  Q 19.58 250.34 18.68 249.94
  Q 18.24 249.75 17.76 249.79
  L 16.78 249.88
  Q 16.12 249.93 16.12 249.28
  L 16.10 242.99
  Q 16.10 242.43 16.65 242.40
  Q 20.17 242.17 22.92 242.40
  Q 28.04 242.83 29.10 242.84
  Q 36.79 242.95 44.25 243.04
  Q 44.85 243.05 45.43 243.19
  Q 45.99 243.33 46.60 243.34
  Q 62.73 243.58 79.24 243.17
  Q 80.76 243.14 82.37 243.06
  Q 89.38 242.74 96.13 242.81
  Q 98.66 242.83 102.32 242.45
  Q 105.09 242.16 108.55 242.41
  Q 109.09 242.45 109.09 242.99
  L 109.06 249.24
  Q 109.06 249.75 108.55 249.81
  Q 102.07 250.53 96.34 252.24
  C 88.41 254.60 86.30 260.26 84.56 267.50
  C 84.35 268.42 84.71 269.18 84.20 269.98
  A 1.57 1.52 57.9 0 0 83.97 271.06
  Q 84.24 272.85 83.53 274.50
  A 1.74 1.71 52.6 0 0 83.41 275.46
  C 83.78 277.74 82.98 279.71 83.00 281.92
  Q 83.03 286.57 82.89 290.89
  C 82.86 292.09 82.47 293.08 82.47 294.26
  Q 82.48 383.16 82.47 472.06
  C 82.47 472.80 82.83 473.36 82.87 474.16
  Q 83.09 478.04 82.99 483.33
  Q 82.96 484.95 83.26 486.98
  Q 83.51 488.69 83.59 490.46
  Q 83.83 495.34 85.16 500.79
  Q 86.74 507.26 89.97 510.42
  Q 93.00 513.39 98.62 514.96
  Q 103.61 516.36 108.61 516.96
  A 0.54 0.54 0.0 0 1 109.09 517.50
  L 109.06 523.78
  Q 109.06 524.30 108.55 524.39
  Q 107.14 524.62 105.94 524.05
  Q 105.48 523.83 104.97 523.88
  C 102.08 524.12 99.47 523.18 96.65 523.41
  Q 94.88 523.56 93.27 523.15
  Q 91.62 522.74 90.10 522.87
  Q 87.60 523.09 85.30 522.64
  Q 83.40 522.27 81.46 522.38
  Q 78.66 522.53 76.06 522.27
  Q 72.40 521.89 70.64 521.88
  Q 61.36 521.78 52.63 521.88
  Q 52.21 521.88 51.66 522.15
  Q 51.22 522.36 50.72 522.37
  Q 47.67 522.38 44.90 522.37
  Q 43.34 522.36 40.61 522.71
  Q 38.52 522.98 36.29 522.88
  Q 34.28 522.79 32.24 523.18
  C 29.74 523.66 27.29 523.12 24.66 523.68
  Q 22.63 524.11 20.50 523.85
  Q 20.02 523.79 19.58 523.97
  Q 18.28 524.50 16.71 524.43
  Q 16.09 524.40 16.09 523.77
  L 16.14 517.77
  Q 16.14 517.13 16.78 517.03
  Q 23.46 515.97 29.16 514.22
  Q 31.39 513.53 33.75 511.99
  Q 36.07 510.46 37.38 508.31
  Z"
/>
<path fill="#ea072b" d="
  M 164.07 500.95
  Q 162.88 500.05 161.71 499.08
  Q 124.45 468.01 118.42 419.61
  C 118.15 417.42 118.48 415.16 118.00 413.08
  Q 117.70 411.75 117.70 410.43
  C 117.72 407.19 117.31 403.19 118.07 400.03
  C 118.38 398.75 118.17 397.33 118.30 395.99
  Q 121.81 360.12 144.15 332.37
  Q 146.10 329.95 147.99 327.72
  Q 149.90 325.46 151.98 323.39
  Q 182.98 292.68 226.99 287.23
  C 228.36 287.06 229.90 287.31 231.16 286.88
  Q 231.97 286.60 232.86 286.60
  Q 240.64 286.61 248.42 286.59
  C 250.95 286.59 253.22 287.37 255.78 287.07
  Q 256.28 287.01 256.73 287.27
  C 257.72 287.85 258.66 287.55 259.74 287.71
  Q 289.04 292.05 313.34 308.91
  Q 321.37 314.48 328.05 321.15
  Q 328.56 321.66 329.21 321.98
  Q 329.68 322.22 329.87 322.73
  Q 330.04 323.20 330.41 323.56
  Q 335.81 328.78 339.68 333.83
  Q 365.29 367.28 364.56 409.01
  Q 364.38 419.42 362.55 428.90
  Q 355.95 462.97 332.37 488.18
  Q 329.92 490.80 327.05 493.50
  Q 318.66 501.41 309.55 507.24
  Q 283.94 523.63 253.51 526.71
  Q 251.71 526.90 249.87 526.85
  Q 248.43 526.82 247.10 527.12
  C 244.77 527.66 242.06 527.40 239.66 527.40
  Q 237.49 527.39 235.32 527.02
  C 233.36 526.68 231.30 527.04 229.29 526.79
  Q 224.70 526.20 219.63 525.33
  Q 190.22 520.31 166.18 502.53
  Q 165.12 501.74 164.07 500.95
  Z
  M 225.56 299.00
  Q 215.73 301.01 207.55 304.79
  C 190.70 312.57 178.05 325.58 169.32 342.35
  Q 163.37 353.78 159.94 368.22
  Q 157.27 379.43 156.45 389.88
  Q 156.34 391.31 156.11 392.70
  Q 155.89 394.03 155.88 395.36
  Q 155.85 399.23 155.90 403.21
  Q 155.92 404.30 155.59 405.21
  C 154.99 406.88 155.82 408.46 155.84 410.14
  Q 155.91 414.20 155.88 418.55
  Q 155.87 419.95 156.13 421.36
  Q 156.38 422.65 156.47 423.91
  Q 157.04 432.15 159.10 442.00
  C 162.82 459.75 170.15 476.86 182.06 489.89
  Q 202.02 511.72 231.76 514.88
  Q 239.92 515.74 248.12 515.25
  Q 248.28 515.24 248.41 515.14
  C 248.53 515.05 248.76 514.94 248.91 514.94
  Q 253.05 514.84 257.24 514.06
  C 277.00 510.33 293.34 500.06 305.20 484.12
  Q 314.35 471.82 319.22 456.99
  Q 325.78 437.02 326.35 416.53
  Q 326.38 415.68 326.83 409.56
  Q 327.10 405.99 326.76 402.64
  Q 326.48 399.79 326.36 396.43
  Q 326.24 393.40 325.97 390.10
  Q 324.15 368.00 316.26 349.10
  Q 310.96 336.39 302.65 326.21
  Q 283.50 302.77 252.27 298.15
  C 251.41 298.02 250.61 298.29 249.74 297.98
  Q 248.75 297.62 247.71 297.62
  Q 241.43 297.63 235.45 297.63
  Q 234.51 297.63 233.55 297.89
  Q 232.62 298.14 231.58 298.19
  Q 228.86 298.33 225.56 299.00
  Z"
/>
<path fill="#ea072b" d="
  M 470.64 476.71
  Q 471.02 477.65 471.41 476.72
  L 513.28 377.22
  Q 513.49 376.73 513.32 376.22
  Q 512.35 373.33 511.10 370.19
  Q 501.29 345.54 492.09 321.78
  Q 490.33 317.24 488.04 312.92
  Q 485.13 307.42 482.77 304.64
  Q 478.63 299.74 471.93 298.08
  Q 466.97 296.84 462.10 295.58
  Q 461.65 295.47 461.66 295.00
  L 461.69 290.00
  A 0.76 0.76 0.0 0 1 462.27 289.26
  C 464.37 288.76 466.12 289.66 468.22 289.64
  Q 477.49 289.59 487.92 289.65
  Q 488.42 289.65 488.88 289.90
  Q 489.30 290.12 489.78 290.12
  L 514.99 290.12
  A 1.88 1.84 30.4 0 0 515.87 289.90
  Q 516.40 289.61 516.93 289.61
  Q 526.64 289.60 536.97 289.64
  C 539.15 289.65 541.02 288.72 543.18 289.27
  Q 543.68 289.40 543.62 289.91
  L 542.98 295.24
  Q 542.92 295.73 542.44 295.63
  C 541.63 295.47 540.81 296.04 539.86 296.15
  Q 531.62 297.05 526.42 301.08
  C 521.14 305.18 521.92 313.40 524.13 318.72
  Q 556.59 396.72 589.87 476.71
  Q 590.25 477.63 590.59 476.70
  Q 627.45 375.84 648.54 317.50
  Q 649.81 314.01 649.81 307.61
  C 649.81 301.75 646.07 299.11 640.78 297.80
  Q 635.55 296.51 629.99 296.02
  Q 628.00 295.84 626.05 295.57
  Q 625.42 295.48 625.51 294.84
  Q 625.86 292.43 625.08 290.30
  Q 624.89 289.79 625.35 289.51
  C 626.96 288.51 628.59 289.58 630.30 289.60
  Q 638.02 289.65 645.59 289.63
  C 646.43 289.63 647.00 290.10 647.86 290.11
  Q 657.68 290.13 667.84 290.13
  C 668.61 290.13 669.16 289.66 670.04 289.65
  Q 678.21 289.59 686.92 289.64
  C 688.67 289.65 689.87 288.85 691.61 289.13
  Q 692.05 289.20 692.04 289.65
  L 691.90 294.88
  Q 691.89 295.49 691.29 295.60
  Q 689.66 295.91 688.00 296.20
  Q 683.63 296.94 680.00 298.75
  C 677.28 300.10 674.02 303.20 672.49 305.77
  Q 669.26 311.22 667.38 316.05
  Q 627.16 419.71 585.93 526.77
  Q 585.68 527.40 585.01 527.40
  L 578.22 527.40
  Q 577.48 527.40 577.19 526.72
  L 522.18 394.84
  Q 521.83 394.00 521.47 394.84
  L 465.59 526.88
  Q 465.38 527.38 464.83 527.38
  L 459.90 527.41
  A 1.29 1.28 78.5 0 1 458.70 526.61
  Q 415.55 420.89 372.65 316.08
  Q 371.65 313.64 370.42 311.44
  C 368.21 307.47 366.02 303.87 361.90 301.59
  Q 355.71 298.19 347.51 296.30
  Q 346.47 296.06 345.58 295.68
  A 0.99 0.98 12.0 0 1 344.99 294.78
  L 344.99 289.70
  Q 344.99 289.09 345.59 289.06
  C 347.33 288.98 348.94 289.60 350.49 289.61
  Q 360.50 289.64 370.50 289.62
  C 371.31 289.62 372.03 290.10 372.95 290.11
  Q 384.97 290.15 397.13 290.11
  C 397.95 290.11 398.47 289.62 399.27 289.62
  Q 410.23 289.64 420.18 289.61
  C 422.18 289.61 423.85 288.84 425.90 289.13
  Q 426.43 289.20 426.43 289.73
  L 426.42 294.99
  Q 426.42 295.53 425.89 295.61
  Q 422.50 296.12 419.23 296.72
  Q 411.84 298.06 408.35 301.61
  Q 405.45 304.54 405.20 309.50
  Q 405.06 312.23 407.35 317.98
  Q 437.73 394.40 470.64 476.71
  Z"
/>
<path fill="#ea072b" d="
  M 711.37 428.20
  Q 697.91 462.79 684.47 497.43
  Q 683.58 499.71 682.90 502.16
  Q 682.19 504.71 682.53 507.03
  C 683.51 513.59 689.05 515.07 695.11 516.70
  C 696.25 517.01 697.31 516.63 698.31 517.24
  Q 698.77 517.52 699.29 517.39
  Q 700.24 517.15 701.10 517.67
  Q 701.58 517.96 702.14 517.93
  L 703.62 517.85
  Q 704.00 517.83 704.00 518.22
  L 704.00 523.97
  A 0.44 0.43 3.5 0 1 703.51 524.40
  Q 696.12 523.52 690.99 523.44
  Q 688.79 523.40 687.29 523.17
  Q 685.46 522.89 683.67 522.89
  Q 673.26 522.86 662.81 522.88
  Q 660.74 522.88 658.77 523.18
  C 655.86 523.63 652.99 523.24 649.92 523.71
  Q 647.59 524.06 645.25 523.87
  Q 644.76 523.83 644.31 524.04
  Q 643.11 524.58 641.73 524.41
  Q 641.21 524.34 641.21 523.82
  L 641.19 518.54
  Q 641.19 518.05 641.66 517.90
  Q 646.66 516.24 650.84 514.27
  C 657.22 511.27 660.58 503.29 663.15 497.29
  Q 702.50 405.63 739.84 318.31
  Q 741.02 315.54 741.52 312.55
  C 742.37 307.45 739.46 303.38 734.96 301.06
  Q 732.26 299.68 729.52 298.88
  Q 722.07 296.73 714.53 295.05
  A 1.91 1.90 -83.4 0 1 713.05 293.18
  L 713.07 289.71
  Q 713.08 289.22 713.56 289.12
  C 715.07 288.82 716.08 289.59 717.50 289.60
  Q 724.48 289.64 731.56 289.63
  C 732.41 289.63 732.97 290.10 733.83 290.10
  Q 742.50 290.15 751.15 290.11
  C 751.96 290.10 752.47 289.63 753.27 289.63
  Q 760.06 289.61 766.55 289.63
  C 767.75 289.63 768.57 289.20 769.69 289.10
  Q 770.27 289.04 770.54 289.55
  Q 771.24 290.85 771.78 292.26
  Q 811.45 394.81 851.02 496.82
  Q 854.75 506.44 862.27 512.13
  Q 867.94 516.42 878.28 518.00
  A 0.83 0.83 0.0 0 1 878.99 518.82
  L 879.01 523.76
  A 0.75 0.75 0.0 0 1 878.13 524.50
  Q 873.04 523.57 867.96 523.94
  Q 867.38 523.98 866.96 523.57
  Q 866.77 523.39 866.51 523.39
  Q 861.55 523.38 856.39 523.36
  C 855.57 523.36 855.01 522.89 854.16 522.89
  Q 838.01 522.84 822.20 522.91
  C 821.36 522.91 820.83 523.37 819.98 523.37
  C 816.16 523.39 812.89 523.22 808.80 523.72
  C 805.91 524.07 803.19 523.53 800.27 524.29
  Q 799.08 524.60 797.58 524.36
  A 0.72 0.72 0.0 0 1 796.98 523.55
  L 797.69 518.43
  Q 797.76 517.92 798.27 517.88
  Q 805.35 517.24 810.59 515.25
  C 820.08 511.64 816.26 502.63 813.66 495.52
  Q 800.82 460.44 789.26 428.31
  A 0.74 0.74 0.0 0 0 788.56 427.81
  L 711.94 427.81
  A 0.61 0.61 0.0 0 0 711.37 428.20
  Z
  M 751.88 324.79
  L 718.09 410.08
  A 0.51 0.51 0.0 0 0 718.56 410.77
  L 783.28 410.76
  A 0.23 0.22 -9.7 0 0 783.50 410.46
  L 752.41 324.80
  Q 752.16 324.09 751.88 324.79
  Z"
/>
<path fill="#ea072b" d="
  M 1805.26 408.37
  L 1805.26 506.50
  Q 1805.26 508.55 1807.30 508.38
  Q 1810.63 508.10 1813.73 508.49
  C 1817.07 508.92 1819.73 508.77 1822.88 508.83
  Q 1823.37 508.83 1823.81 509.06
  Q 1824.28 509.31 1824.50 509.32
  C 1829.62 509.33 1834.89 509.16 1840.19 509.64
  Q 1845.65 510.14 1851.24 509.52
  Q 1854.65 509.15 1858.40 509.32
  Q 1859.98 509.39 1861.56 509.00
  Q 1863.12 508.60 1864.77 508.82
  Q 1865.24 508.88 1865.68 508.71
  Q 1867.19 508.12 1868.99 508.32
  Q 1869.44 508.37 1869.86 508.20
  Q 1870.55 507.92 1871.28 507.82
  Q 1878.79 506.86 1886.29 503.72
  C 1897.33 499.11 1904.49 490.29 1907.92 478.76
  Q 1908.00 478.49 1908.27 478.57
  L 1914.34 480.43
  Q 1914.63 480.52 1914.55 480.81
  L 1902.97 522.91
  A 0.59 0.58 7.4 0 1 1902.42 523.33
  Q 1891.98 523.54 1882.91 523.22
  Q 1882.23 523.19 1881.42 523.04
  Q 1880.62 522.88 1879.86 522.89
  Q 1868.41 523.01 1855.34 522.75
  Q 1854.47 522.73 1853.24 522.51
  Q 1852.45 522.37 1851.74 522.37
  Q 1838.33 522.40 1825.56 522.36
  C 1824.65 522.36 1823.97 521.88 1823.02 521.88
  Q 1808.00 521.86 1792.70 521.89
  C 1791.90 521.90 1791.28 522.40 1790.40 522.39
  Q 1782.23 522.33 1776.26 522.43
  C 1775.36 522.45 1774.86 522.87 1774.07 522.87
  Q 1770.24 522.88 1766.66 522.88
  Q 1763.58 522.88 1760.09 523.24
  Q 1756.62 523.60 1753.00 523.32
  Q 1752.50 523.28 1752.50 522.77
  L 1752.49 518.25
  A 1.29 1.27 -2.7 0 1 1753.66 516.98
  Q 1759.84 516.40 1765.06 514.76
  Q 1770.15 513.15 1772.13 507.69
  Q 1773.64 503.53 1774.03 498.24
  Q 1774.22 495.79 1774.50 493.06
  Q 1774.80 490.17 1774.59 487.03
  C 1774.50 485.73 1775.14 484.87 1775.14 483.55
  Q 1775.11 407.00 1775.13 330.42
  C 1775.13 328.75 1774.52 327.41 1774.60 325.72
  Q 1774.75 322.95 1774.50 320.59
  Q 1774.30 318.70 1774.12 316.86
  Q 1773.39 309.38 1770.79 304.41
  Q 1768.01 299.08 1762.10 297.43
  Q 1757.83 296.24 1753.37 295.74
  Q 1752.47 295.65 1752.48 294.74
  L 1752.53 289.92
  A 0.75 0.75 0.0 0 1 1753.17 289.19
  Q 1755.34 288.86 1757.34 289.28
  Q 1759.04 289.64 1760.91 289.64
  Q 1774.54 289.61 1788.00 289.63
  C 1789.55 289.63 1791.75 290.10 1793.67 290.11
  Q 1821.29 290.24 1854.00 289.96
  Q 1855.48 289.95 1857.01 289.89
  Q 1870.84 289.40 1885.15 289.63
  Q 1887.70 289.67 1890.31 289.28
  Q 1893.10 288.86 1896.10 289.21
  A 1.32 1.31 5.0 0 1 1897.27 290.60
  Q 1897.12 292.79 1897.35 294.80
  Q 1899.09 310.07 1901.53 326.17
  Q 1901.62 326.79 1901.03 326.99
  L 1896.66 328.45
  Q 1895.99 328.68 1895.74 328.01
  C 1892.25 318.41 1886.76 309.89 1877.57 306.42
  Q 1867.70 302.69 1857.19 302.18
  Q 1856.41 302.14 1855.66 301.95
  Q 1854.67 301.70 1853.69 301.69
  Q 1838.58 301.54 1823.65 301.69
  Q 1823.27 301.70 1822.92 301.87
  Q 1822.70 301.98 1822.48 302.08
  Q 1822.26 302.17 1822.01 302.17
  C 1819.00 302.17 1816.08 301.98 1813.09 302.50
  Q 1810.84 302.89 1808.50 302.61
  C 1807.39 302.48 1806.75 303.07 1805.76 303.20
  Q 1805.26 303.26 1805.26 303.77
  L 1805.26 395.46
  A 0.26 0.26 0.0 0 0 1805.52 395.72
  Q 1827.86 395.73 1850.24 395.73
  C 1853.07 395.73 1855.55 394.98 1858.42 395.24
  C 1859.64 395.35 1860.50 394.85 1861.67 394.79
  Q 1867.21 394.51 1872.53 392.83
  Q 1876.47 391.59 1879.45 388.81
  Q 1882.27 386.17 1883.35 382.21
  Q 1884.82 376.80 1884.80 372.27
  Q 1884.80 372.05 1885.02 372.05
  L 1890.97 372.06
  Q 1891.16 372.06 1891.17 372.24
  Q 1891.51 375.85 1891.00 379.10
  Q 1890.70 380.97 1890.72 383.00
  Q 1890.74 384.92 1890.48 386.97
  Q 1889.98 390.84 1890.33 394.75
  Q 1890.39 395.46 1889.97 396.34
  Q 1889.75 396.79 1889.75 397.29
  Q 1889.75 404.77 1889.75 412.25
  C 1889.75 412.89 1889.29 413.55 1889.28 414.27
  C 1889.23 417.87 1889.00 421.75 1889.62 425.37
  Q 1890.01 427.68 1889.63 430.15
  Q 1889.53 430.82 1888.85 430.83
  Q 1888.79 430.84 1884.94 430.92
  Q 1884.29 430.93 1884.27 430.29
  Q 1884.24 429.52 1883.99 428.76
  Q 1883.77 428.08 1883.74 427.28
  Q 1883.61 423.88 1882.26 420.01
  Q 1880.88 416.03 1877.89 413.90
  Q 1872.02 409.71 1862.70 409.25
  C 1861.70 409.20 1861.06 408.60 1860.08 408.72
  Q 1858.18 408.94 1856.34 408.59
  C 1852.01 407.77 1846.84 408.27 1842.50 408.31
  Q 1842.00 408.32 1841.60 408.09
  Q 1840.97 407.75 1840.26 407.75
  L 1805.88 407.75
  Q 1805.26 407.75 1805.26 408.37
  Z"
/>
<path fill="#ea072b" d="
  M 1273.75 304.34
  Q 1273.74 399.90 1273.76 495.06
  Q 1273.76 496.45 1274.03 497.75
  Q 1274.29 498.96 1274.31 500.20
  C 1274.44 505.86 1276.96 511.92 1282.45 514.16
  Q 1288.26 516.53 1298.16 516.95
  Q 1299.89 517.03 1299.89 518.76
  L 1299.89 523.50
  Q 1299.89 524.42 1298.97 524.46
  Q 1297.20 524.52 1295.84 524.10
  Q 1294.70 523.75 1293.46 523.84
  Q 1290.40 524.06 1287.62 523.74
  Q 1284.63 523.39 1282.13 523.39
  C 1279.30 523.39 1276.18 523.69 1273.57 523.05
  Q 1273.03 522.92 1272.49 522.92
  Q 1256.06 522.79 1241.41 522.95
  C 1240.08 522.96 1239.14 523.37 1237.87 523.37
  Q 1232.65 523.33 1227.91 523.40
  Q 1227.44 523.41 1226.97 523.68
  Q 1226.51 523.95 1225.98 523.91
  Q 1221.07 523.57 1214.36 524.51
  A 0.79 0.79 0.0 0 1 1213.46 523.73
  L 1213.46 518.04
  A 1.05 1.05 0.0 0 1 1214.48 516.99
  Q 1224.09 516.76 1231.25 513.97
  C 1237.18 511.65 1239.12 505.16 1239.06 499.15
  C 1239.05 498.16 1239.56 497.45 1239.56 496.43
  Q 1239.57 400.51 1239.56 304.46
  A 0.40 0.40 0.0 0 0 1239.16 304.06
  Q 1219.12 304.06 1198.29 304.17
  Q 1196.06 304.18 1193.87 304.43
  Q 1191.76 304.67 1189.62 304.91
  C 1182.28 305.72 1174.82 308.05 1169.98 313.82
  C 1165.82 318.78 1163.77 324.66 1161.85 330.77
  C 1161.53 331.78 1161.55 332.72 1161.00 333.64
  A 1.35 1.34 15.2 0 1 1159.84 334.30
  L 1156.20 334.30
  Q 1155.52 334.30 1155.55 333.63
  Q 1155.62 332.22 1155.58 330.73
  C 1155.54 328.74 1156.27 327.15 1156.13 325.12
  Q 1156.03 323.71 1156.32 322.42
  C 1156.81 320.27 1156.28 318.17 1156.87 316.08
  C 1157.43 314.09 1156.91 311.99 1157.39 309.90
  C 1157.84 307.94 1157.16 305.51 1158.00 303.70
  Q 1158.21 303.24 1158.15 302.73
  C 1157.85 300.01 1158.65 297.72 1158.61 295.05
  Q 1158.59 292.82 1159.20 290.51
  Q 1159.31 290.10 1159.73 290.08
  Q 1161.83 289.95 1163.56 290.29
  Q 1165.31 290.63 1167.09 290.63
  Q 1177.28 290.60 1186.97 290.66
  C 1187.95 290.66 1188.64 291.11 1189.60 291.12
  Q 1203.04 291.13 1216.48 291.12
  C 1217.47 291.12 1218.25 291.65 1219.00 291.65
  Q 1233.30 291.60 1247.38 291.63
  C 1248.25 291.63 1249.16 292.11 1250.22 292.12
  Q 1257.27 292.15 1264.07 292.10
  C 1264.92 292.09 1265.54 291.66 1266.42 291.66
  Q 1282.73 291.65 1295.55 291.56
  C 1296.41 291.55 1297.14 291.13 1297.84 291.13
  Q 1311.04 291.12 1324.25 291.13
  C 1325.22 291.13 1326.07 290.62 1327.16 290.62
  Q 1338.02 290.64 1348.61 290.61
  C 1351.01 290.60 1353.16 289.82 1355.65 290.15
  Q 1356.11 290.21 1356.13 290.68
  L 1356.87 312.09
  Q 1356.89 312.56 1357.11 312.98
  Q 1357.25 313.24 1357.25 313.50
  Q 1357.22 316.70 1357.24 320.16
  Q 1357.25 321.70 1357.66 326.81
  Q 1357.93 330.13 1357.70 333.69
  Q 1357.66 334.29 1357.05 334.30
  L 1351.93 334.30
  Q 1351.35 334.30 1351.23 333.73
  C 1348.76 321.88 1344.74 310.98 1332.58 306.94
  Q 1330.00 306.08 1327.10 305.46
  Q 1326.04 305.23 1324.92 305.19
  Q 1324.04 305.16 1323.22 304.83
  Q 1322.72 304.62 1322.18 304.68
  C 1320.10 304.93 1318.61 304.11 1316.58 304.15
  Q 1305.78 304.34 1295.31 303.77
  Q 1290.41 303.51 1274.39 303.70
  Q 1273.75 303.70 1273.75 304.34
  Z"
/>
<path fill="#ea072b" d="
  M 1474.77 428.82
  L 1398.27 428.82
  Q 1397.70 428.82 1397.49 429.35
  Q 1384.80 460.99 1371.94 492.63
  C 1369.85 497.79 1367.23 503.29 1368.46 508.87
  Q 1369.61 514.15 1375.55 516.08
  Q 1382.78 518.43 1390.07 518.90
  Q 1390.42 518.92 1390.42 519.27
  L 1390.40 525.13
  A 0.33 0.33 0.0 0 1 1390.03 525.46
  Q 1383.21 524.69 1377.70 524.87
  C 1376.68 524.90 1375.90 524.38 1374.85 524.38
  Q 1360.27 524.35 1346.64 524.40
  Q 1343.49 524.41 1340.40 524.73
  Q 1337.29 525.05 1333.97 524.86
  Q 1332.26 524.77 1330.78 525.18
  Q 1329.33 525.60 1327.55 525.37
  Q 1327.20 525.33 1327.14 524.98
  Q 1326.52 521.66 1328.06 519.71
  Q 1328.36 519.32 1328.83 519.17
  Q 1333.77 517.56 1337.88 515.05
  Q 1341.10 513.08 1343.18 509.87
  Q 1346.81 504.27 1349.36 498.32
  Q 1388.61 406.66 1425.80 319.78
  C 1428.50 313.48 1429.16 307.05 1422.22 303.05
  Q 1418.31 300.79 1411.99 299.38
  Q 1405.88 298.01 1399.30 296.74
  Q 1398.34 296.55 1398.46 295.58
  L 1399.14 290.48
  Q 1399.21 289.88 1399.76 290.13
  C 1400.39 290.42 1401.14 290.61 1401.83 290.61
  Q 1408.48 290.61 1415.21 290.65
  Q 1415.66 290.65 1416.07 290.87
  Q 1416.51 291.10 1417.01 291.10
  Q 1428.42 291.17 1438.93 291.07
  C 1440.21 291.05 1441.27 290.54 1442.48 290.58
  Q 1449.61 290.85 1456.39 290.34
  Q 1456.87 290.30 1457.05 290.75
  Q 1496.13 392.83 1535.32 495.28
  C 1537.96 502.20 1542.38 509.98 1548.95 513.84
  Q 1556.08 518.03 1564.63 518.94
  Q 1564.90 518.97 1564.90 519.24
  L 1564.91 525.17
  A 0.29 0.29 0.0 0 1 1564.59 525.46
  Q 1555.46 524.77 1547.26 524.86
  C 1546.61 524.86 1545.87 524.40 1545.05 524.40
  Q 1523.97 524.36 1503.13 524.38
  Q 1502.65 524.38 1502.20 524.54
  Q 1501.74 524.71 1501.26 524.72
  L 1483.51 525.27
  Q 1482.99 525.29 1482.99 524.77
  L 1482.98 519.52
  Q 1482.98 519.02 1483.48 518.94
  L 1488.57 518.20
  Q 1488.92 518.15 1489.24 518.01
  Q 1489.83 517.77 1490.48 517.88
  Q 1490.98 517.97 1491.47 517.82
  C 1495.18 516.73 1498.49 516.31 1501.17 512.90
  Q 1502.74 510.91 1502.64 508.10
  Q 1502.49 503.87 1501.30 500.58
  Q 1488.85 466.28 1475.41 429.27
  A 0.68 0.68 0.0 0 0 1474.77 428.82
  Z
  M 1404.36 410.82
  A 0.32 0.32 0.0 0 0 1404.66 411.26
  L 1468.36 411.27
  A 0.32 0.32 0.0 0 0 1468.66 410.84
  L 1438.60 325.83
  A 0.32 0.32 0.0 0 0 1438.01 325.81
  L 1404.36 410.82
  Z"
/>
<path fill="#ea072b" d="
  M 1651.90 304.35
  Q 1651.87 392.56 1651.92 490.60
  Q 1651.92 492.72 1652.29 494.80
  C 1652.61 496.62 1652.24 498.48 1652.55 500.38
  C 1653.53 506.48 1654.81 511.74 1661.19 514.16
  Q 1668.32 516.85 1677.37 516.89
  Q 1678.52 516.89 1678.52 518.04
  L 1678.52 523.55
  Q 1678.52 524.48 1677.58 524.50
  Q 1676.34 524.51 1675.18 524.24
  C 1672.43 523.59 1669.11 523.84 1666.30 523.87
  Q 1665.77 523.88 1665.27 523.73
  Q 1663.96 523.34 1662.83 523.35
  Q 1658.29 523.40 1653.97 523.34
  Q 1652.89 523.33 1651.70 523.02
  Q 1651.08 522.87 1650.65 522.87
  Q 1634.57 522.88 1619.25 522.87
  C 1618.47 522.87 1617.71 523.39 1616.75 523.39
  C 1612.73 523.37 1608.87 523.25 1604.80 523.70
  Q 1601.72 524.05 1598.89 523.85
  Q 1597.28 523.73 1595.66 524.19
  Q 1594.09 524.63 1592.05 524.37
  Q 1591.55 524.31 1591.53 523.81
  Q 1591.39 520.42 1592.40 517.55
  A 0.95 0.95 0.0 0 1 1593.28 516.92
  Q 1600.36 516.84 1606.80 515.02
  Q 1612.79 513.33 1615.43 508.94
  C 1616.41 507.30 1617.80 502.87 1617.72 501.01
  C 1617.66 499.63 1618.38 498.73 1618.26 497.42
  C 1617.99 494.64 1618.75 492.12 1618.75 489.35
  Q 1618.73 396.99 1618.74 304.63
  A 0.56 0.55 90.0 0 0 1618.19 304.07
  Q 1596.57 304.06 1575.45 304.17
  C 1573.09 304.18 1570.99 304.85 1568.65 304.71
  A 1.30 1.29 31.3 0 0 1567.89 304.89
  Q 1567.78 304.96 1567.67 305.03
  Q 1567.56 305.09 1567.43 305.10
  C 1557.73 306.00 1549.63 310.00 1545.18 319.11
  Q 1542.13 325.36 1540.28 333.32
  Q 1540.05 334.30 1539.05 334.30
  L 1534.70 334.30
  Q 1533.59 334.30 1533.69 333.20
  L 1537.28 290.67
  Q 1537.31 290.22 1537.76 290.17
  Q 1539.90 289.90 1541.82 290.26
  Q 1543.80 290.62 1545.75 290.62
  Q 1555.75 290.63 1565.79 290.61
  C 1566.66 290.61 1567.04 291.15 1567.80 291.14
  Q 1581.27 291.03 1595.50 291.36
  Q 1596.68 291.38 1597.88 291.40
  Q 1611.16 291.62 1625.76 291.64
  Q 1626.29 291.64 1626.75 291.90
  Q 1627.25 292.19 1627.79 292.05
  Q 1628.27 291.93 1628.77 291.96
  Q 1634.22 292.34 1639.43 292.10
  Q 1649.29 291.64 1650.08 291.64
  Q 1661.39 291.56 1672.75 291.59
  Q 1673.86 291.59 1674.93 291.39
  Q 1676.28 291.12 1677.08 291.12
  Q 1690.04 291.13 1702.99 291.12
  C 1703.94 291.12 1704.61 290.65 1705.65 290.65
  Q 1715.23 290.61 1726.33 290.63
  C 1728.89 290.64 1731.13 289.85 1733.76 290.13
  Q 1734.26 290.19 1734.28 290.70
  L 1736.12 333.70
  Q 1736.14 334.29 1735.55 334.29
  L 1730.25 334.30
  Q 1729.69 334.30 1729.59 333.76
  Q 1728.01 325.40 1724.51 318.26
  Q 1720.74 310.57 1712.48 307.33
  Q 1709.21 306.05 1705.20 305.36
  Q 1701.65 304.74 1698.39 304.46
  Q 1695.07 304.19 1691.59 304.17
  Q 1682.03 304.11 1672.35 303.78
  Q 1664.87 303.52 1652.52 303.72
  Q 1651.90 303.73 1651.90 304.35
  Z"
/>
<path fill="#ea072b" d="
  M 1236.79 805.82
  Q 1236.42 803.84 1236.52 801.69
  Q 1236.61 799.57 1236.25 797.30
  Q 1235.74 794.13 1236.11 790.91
  Q 1236.17 790.38 1236.70 790.38
  L 1242.50 790.37
  A 0.96 0.96 0.0 0 1 1243.45 791.19
  Q 1244.40 797.80 1246.01 804.21
  Q 1247.33 809.44 1249.68 813.41
  Q 1251.87 817.13 1256.38 820.33
  Q 1272.52 831.80 1291.81 834.49
  C 1293.08 834.67 1294.66 834.38 1295.76 834.84
  Q 1296.51 835.15 1297.28 835.14
  Q 1301.22 835.09 1305.36 835.14
  Q 1306.24 835.15 1307.08 834.91
  Q 1307.74 834.73 1308.48 834.66
  Q 1330.34 832.69 1345.66 818.31
  C 1346.61 817.41 1346.96 816.28 1347.97 815.42
  Q 1348.52 814.96 1349.03 814.32
  Q 1356.71 804.85 1358.43 791.51
  Q 1360.10 778.55 1354.55 768.53
  C 1350.55 761.32 1343.21 755.18 1335.73 751.07
  Q 1331.81 748.92 1327.73 746.90
  Q 1323.72 744.92 1319.39 743.18
  Q 1305.03 737.42 1290.63 731.84
  Q 1283.81 729.20 1274.65 724.38
  C 1267.13 720.42 1259.11 714.94 1253.21 708.23
  Q 1243.16 696.82 1241.08 681.71
  Q 1238.79 665.11 1245.02 651.11
  Q 1251.92 635.59 1266.08 624.62
  Q 1284.73 610.17 1309.15 607.02
  C 1310.69 606.82 1312.47 607.14 1313.85 606.65
  Q 1314.73 606.34 1315.69 606.35
  Q 1320.69 606.41 1325.98 606.35
  C 1327.77 606.33 1329.26 606.92 1331.03 606.88
  Q 1332.76 606.83 1334.46 607.13
  Q 1336.20 607.43 1337.94 607.65
  Q 1354.93 609.80 1371.25 614.65
  C 1372.98 615.17 1374.76 614.95 1374.77 617.42
  Q 1374.79 622.27 1374.79 626.98
  Q 1374.79 627.49 1375.04 627.93
  Q 1375.14 628.11 1375.22 628.30
  Q 1375.30 628.50 1375.30 628.72
  Q 1375.27 631.76 1375.27 634.73
  Q 1375.27 636.65 1375.65 640.74
  Q 1375.92 643.62 1375.84 646.84
  Q 1375.79 649.22 1376.15 651.56
  Q 1376.52 653.90 1376.24 656.58
  Q 1376.20 657.01 1375.77 657.01
  L 1369.69 657.01
  A 0.76 0.76 0.0 0 1 1368.94 656.38
  Q 1367.34 647.28 1364.19 639.48
  Q 1362.77 635.97 1360.44 633.03
  Q 1358.64 630.75 1355.44 628.93
  Q 1343.67 622.24 1328.06 619.68
  Q 1325.92 619.33 1325.24 619.48
  Q 1324.76 619.59 1323.92 619.14
  Q 1323.49 618.90 1322.99 618.90
  C 1318.42 618.91 1313.39 618.56 1308.77 619.21
  Q 1306.40 619.54 1304.13 619.98
  Q 1289.27 622.87 1279.88 631.87
  Q 1270.72 640.65 1268.70 653.78
  Q 1266.77 666.41 1271.57 676.16
  Q 1273.09 679.25 1275.57 682.36
  Q 1277.64 684.96 1280.08 687.06
  Q 1288.06 693.92 1298.76 698.76
  Q 1308.06 702.97 1317.15 706.32
  Q 1333.84 712.48 1346.96 718.48
  Q 1360.66 724.74 1370.66 733.82
  Q 1382.35 744.45 1385.90 760.10
  Q 1386.53 762.88 1386.93 765.75
  Q 1387.39 768.96 1387.42 772.05
  Q 1387.65 793.52 1375.33 811.85
  Q 1365.72 826.16 1350.43 834.92
  Q 1334.18 844.22 1313.89 846.53
  Q 1312.07 846.74 1310.29 846.66
  C 1309.24 846.61 1308.81 847.20 1307.89 847.19
  Q 1303.06 847.16 1297.91 847.17
  Q 1296.26 847.18 1294.67 846.82
  C 1293.24 846.49 1291.67 846.73 1290.15 846.55
  Q 1263.55 843.44 1239.03 833.62
  Q 1238.47 833.40 1238.54 832.80
  Q 1238.72 831.43 1238.38 829.90
  C 1237.76 827.13 1238.36 824.51 1237.84 821.78
  C 1237.34 819.16 1237.97 816.38 1237.29 813.89
  C 1236.60 811.35 1237.29 808.52 1236.79 805.82
  Z"
/>
<path fill="#ea072b" d="
  M 304.23 659.33
  Q 304.24 731.01 304.24 802.34
  C 304.24 803.83 304.91 804.98 304.80 806.53
  Q 304.56 810.04 304.85 813.38
  Q 305.15 816.74 305.94 819.86
  Q 308.21 828.87 316.32 832.83
  Q 322.45 835.82 329.98 836.85
  Q 331.38 837.04 331.38 838.44
  L 331.38 841.98
  Q 331.38 842.54 330.81 842.58
  Q 327.00 842.86 323.28 842.52
  Q 319.09 842.14 315.53 842.13
  Q 311.72 842.12 308.05 842.10
  Q 307.60 842.09 307.18 841.88
  Q 306.71 841.64 306.18 841.64
  Q 296.50 841.62 286.69 841.63
  C 285.89 841.64 285.42 842.14 284.67 842.14
  Q 278.72 842.11 272.92 842.14
  C 272.53 842.14 272.22 842.26 271.89 842.44
  Q 271.50 842.65 271.07 842.65
  L 262.69 842.63
  Q 262.00 842.63 262.00 841.94
  L 262.00 837.79
  Q 262.00 837.10 262.68 836.98
  Q 271.51 835.46 276.57 832.81
  Q 279.02 831.52 281.18 829.72
  C 285.13 826.43 287.44 820.37 288.04 815.56
  C 288.32 813.42 288.72 811.28 288.72 809.12
  Q 288.66 728.36 288.72 647.59
  Q 288.72 644.28 288.05 641.05
  C 286.92 635.57 284.76 630.75 280.67 626.91
  Q 276.75 623.24 270.91 620.70
  Q 264.60 617.96 254.85 615.69
  Q 254.54 615.61 254.54 615.30
  L 254.46 610.26
  Q 254.46 609.94 254.78 609.98
  Q 259.66 610.65 264.28 610.38
  C 266.09 610.27 267.65 610.92 269.45 610.92
  Q 283.53 610.92 297.15 610.92
  C 298.25 610.93 299.16 610.35 300.25 610.39
  Q 303.05 610.50 305.86 610.19
  Q 306.42 610.13 306.79 610.55
  L 466.86 790.65
  Q 467.21 791.04 467.21 790.51
  L 467.21 640.01
  Q 467.21 639.57 467.07 639.15
  Q 466.71 638.13 466.64 637.04
  Q 466.26 631.26 463.89 626.63
  Q 461.36 621.69 455.99 619.41
  Q 448.89 616.41 440.10 615.81
  A 0.57 0.57 0.0 0 1 439.57 615.25
  L 439.47 610.48
  Q 439.46 610.00 439.93 610.06
  Q 445.04 610.65 449.66 610.35
  C 450.64 610.28 451.15 610.91 452.06 610.91
  Q 473.54 610.92 494.76 610.89
  C 495.59 610.89 496.18 610.40 497.05 610.39
  Q 500.89 610.37 504.78 610.42
  Q 505.27 610.43 505.71 610.21
  L 506.16 609.98
  A 0.50 0.50 0.0 0 1 506.89 610.42
  L 506.87 615.11
  Q 506.87 615.67 506.33 615.84
  Q 499.99 617.75 494.32 620.48
  Q 489.46 622.82 487.15 626.95
  Q 484.09 632.41 484.22 640.52
  Q 484.22 640.96 484.10 641.38
  Q 483.74 642.55 483.74 643.82
  Q 483.73 744.33 483.77 846.51
  Q 483.77 847.13 483.16 847.20
  Q 481.68 847.36 480.45 846.82
  Q 479.99 846.61 479.49 846.65
  Q 475.79 846.91 472.13 846.04
  Q 471.62 845.92 471.27 845.53
  L 305.44 658.87
  Q 304.23 657.52 304.23 659.33
  Z"
/>
<path fill="#ea072b" d="
  M 852.80 615.26
  Q 852.55 615.12 852.31 615.09
  Q 852.10 615.07 851.92 615.18
  C 849.69 616.47 847.44 615.51 845.06 616.01
  Q 843.59 616.32 842.05 616.53
  C 835.55 617.42 830.12 620.68 826.36 625.94
  Q 825.02 627.82 823.97 629.66
  Q 820.35 636.02 817.89 642.25
  Q 815.38 648.62 812.63 655.20
  Q 772.09 752.40 731.91 848.58
  Q 731.66 849.18 731.02 849.18
  L 725.04 849.20
  Q 724.56 849.20 724.38 848.75
  Q 691.14 767.13 655.75 683.50
  Q 650.24 670.49 644.17 657.03
  Q 638.63 644.73 632.99 632.50
  Q 631.73 629.76 630.12 627.06
  C 628.55 624.42 625.39 620.82 622.69 619.44
  Q 617.21 616.63 610.69 615.70
  Q 610.21 615.63 609.91 616.02
  C 609.69 616.30 609.32 616.54 608.97 616.59
  Q 604.59 617.18 600.30 618.18
  C 590.23 620.51 589.50 629.92 588.44 638.33
  C 588.21 640.19 588.62 642.20 588.11 643.91
  Q 587.80 644.95 587.80 646.05
  Q 587.78 657.23 587.80 668.82
  C 587.80 669.87 587.31 670.62 587.31 671.68
  Q 587.26 726.82 587.32 781.80
  C 587.32 782.76 587.79 783.49 587.79 784.35
  Q 587.80 795.09 587.81 805.82
  Q 587.81 806.98 588.22 810.14
  Q 588.51 812.31 588.26 814.51
  Q 588.21 814.93 588.34 815.33
  Q 588.76 816.68 588.88 818.14
  Q 589.15 821.47 590.37 825.52
  Q 592.41 832.34 598.03 834.41
  Q 603.27 836.33 609.56 837.04
  Q 609.98 837.09 609.98 837.52
  L 609.99 843.03
  Q 609.99 843.41 609.61 843.36
  Q 606.51 842.96 603.40 843.18
  C 602.24 843.26 601.64 842.51 600.63 842.59
  Q 597.42 842.85 594.25 842.46
  C 590.23 841.97 586.30 842.13 582.28 842.13
  C 581.53 842.13 581.15 841.64 580.48 841.64
  Q 571.49 841.62 562.50 841.63
  C 561.78 841.63 561.22 842.21 560.28 842.16
  Q 554.87 841.90 550.76 842.36
  Q 546.79 842.81 542.45 842.60
  C 541.90 842.57 541.44 842.68 540.97 842.96
  Q 540.52 843.22 540.00 843.17
  Q 536.65 842.82 533.61 843.52
  Q 533.04 843.66 533.04 843.07
  L 533.02 838.24
  A 1.60 1.59 3.5 0 1 534.81 836.66
  C 536.38 836.86 537.52 836.14 539.04 835.96
  C 544.09 835.36 549.14 833.00 551.27 828.20
  Q 553.25 823.72 553.67 818.28
  Q 553.73 817.48 554.01 816.72
  C 554.60 815.16 554.06 812.76 554.38 810.97
  Q 554.73 808.97 554.72 806.99
  Q 554.69 801.21 554.71 795.66
  Q 554.71 795.25 554.92 794.91
  Q 555.00 794.78 555.07 794.65
  Q 555.20 794.41 555.20 794.14
  Q 555.21 725.41 555.20 656.81
  Q 555.20 656.23 554.95 655.69
  A 2.68 2.60 -58.2 0 1 554.73 654.68
  Q 554.69 650.05 554.71 645.17
  Q 554.72 643.06 554.43 640.89
  Q 554.16 638.84 554.04 636.78
  Q 553.77 632.25 552.44 627.65
  C 550.32 620.34 545.51 618.64 538.83 617.36
  Q 536.51 616.91 534.32 616.82
  A 1.36 1.36 0.0 0 1 533.02 615.46
  L 533.02 610.46
  A 0.60 0.59 9.0 0 1 533.80 609.90
  L 534.88 610.24
  Q 535.44 610.42 536.03 610.42
  Q 542.66 610.35 549.27 610.42
  C 550.28 610.43 551.09 610.87 552.12 610.88
  Q 571.05 611.01 590.26 610.80
  Q 591.29 610.79 592.76 610.54
  Q 593.66 610.39 594.52 610.39
  Q 600.99 610.41 607.44 610.38
  Q 608.01 610.37 608.51 610.09
  Q 609.25 609.66 609.74 610.39
  Q 610.10 610.92 610.74 610.92
  Q 640.49 610.92 670.40 610.91
  C 671.86 610.91 673.04 610.30 674.46 610.35
  Q 681.65 610.63 689.73 610.05
  Q 689.97 610.04 689.96 610.28
  L 689.86 615.48
  Q 689.86 615.71 689.62 615.74
  Q 681.29 616.69 676.01 619.89
  Q 670.43 623.26 670.87 630.68
  Q 671.15 635.33 672.97 640.77
  Q 674.53 645.47 676.41 649.94
  Q 707.02 723.08 737.72 796.46
  Q 738.20 797.62 738.64 796.44
  Q 767.90 718.22 797.31 639.50
  Q 797.72 638.41 798.14 637.33
  C 798.75 635.80 798.80 634.09 799.19 632.50
  C 800.58 626.82 798.93 622.38 793.53 619.47
  Q 789.24 617.15 784.17 615.78
  Q 783.50 615.60 783.50 614.91
  L 783.48 611.72
  Q 783.48 610.92 784.28 610.92
  L 852.32 610.92
  A 0.49 0.49 0.0 0 1 852.81 611.41
  L 852.80 615.26
  Z"
/>
<path fill="#ea072b" d="
  M 852.80 615.26
  Q 853.16 615.70 853.66 615.29
  A 0.76 0.74 70.0 0 0 853.93 614.69
  L 853.88 611.77
  Q 853.87 611.20 853.39 610.92
  Q 853.19 610.80 853.07 610.60
  Q 852.68 609.97 853.42 609.89
  Q 855.10 609.71 856.56 610.10
  Q 857.78 610.42 859.09 610.42
  Q 873.82 610.40 887.90 610.39
  C 889.00 610.39 889.90 610.87 890.99 610.87
  Q 921.04 610.97 953.40 610.91
  C 956.20 610.91 958.91 610.47 961.67 610.45
  Q 975.78 610.34 989.38 610.37
  Q 991.20 610.37 993.67 609.96
  Q 995.17 609.70 996.70 609.96
  Q 997.22 610.04 997.27 610.57
  Q 997.78 615.79 998.58 620.79
  C 998.77 621.99 998.46 623.14 999.04 624.26
  Q 999.28 624.73 999.20 625.25
  C 998.97 626.75 999.50 627.86 999.67 629.27
  Q 1000.66 637.44 1001.87 646.55
  Q 1002.00 647.59 1001.03 647.99
  L 997.74 649.34
  Q 997.10 649.61 996.86 648.95
  Q 995.03 643.75 992.27 639.18
  Q 987.03 630.51 977.94 627.09
  Q 968.42 623.49 958.61 623.01
  Q 957.53 622.96 956.55 622.73
  Q 955.47 622.48 954.40 622.47
  Q 940.77 622.36 928.16 622.44
  Q 925.26 622.46 922.50 622.80
  C 920.21 623.08 916.70 622.44 914.62 623.33
  Q 914.04 623.59 913.41 623.51
  Q 910.15 623.13 907.21 623.92
  Q 906.61 624.08 906.62 624.70
  Q 906.68 630.29 906.65 635.68
  C 906.65 636.72 906.14 637.39 906.14 638.45
  Q 906.14 669.84 906.14 701.23
  C 906.14 702.41 906.62 703.20 906.62 704.34
  Q 906.66 709.93 906.68 715.85
  A 0.65 0.64 89.1 0 0 907.33 716.49
  Q 929.87 716.48 951.74 716.49
  Q 953.23 716.49 954.73 716.20
  C 957.09 715.74 959.34 716.21 961.76 715.70
  Q 963.44 715.34 965.18 715.47
  Q 965.56 715.49 965.90 715.34
  Q 966.51 715.06 967.17 714.97
  Q 975.69 713.79 980.12 709.88
  Q 983.46 706.93 984.76 701.58
  Q 985.67 697.85 986.17 693.11
  A 0.33 0.33 0.0 0 1 986.50 692.81
  L 992.59 692.86
  A 0.22 0.22 0.0 0 1 992.80 693.13
  Q 992.11 695.88 992.13 698.21
  C 992.15 700.00 991.62 701.78 991.62 703.18
  C 991.63 704.83 991.69 706.18 991.39 707.93
  Q 990.95 710.45 991.15 713.21
  C 991.26 714.66 990.63 715.80 990.63 717.26
  Q 990.63 723.96 990.63 730.66
  Q 990.62 732.37 990.21 733.99
  C 989.78 735.67 990.57 737.04 990.59 738.68
  Q 990.67 745.05 990.61 751.09
  Q 990.61 751.62 990.07 751.62
  L 984.53 751.64
  A 0.42 0.42 0.0 0 1 984.11 751.19
  Q 984.24 749.22 983.95 747.05
  Q 983.63 744.65 983.31 742.99
  Q 982.04 736.53 976.46 733.34
  Q 973.40 731.59 968.50 730.64
  Q 967.77 730.50 967.04 730.58
  Q 966.53 730.63 966.11 730.32
  Q 965.67 729.98 965.11 730.02
  C 963.21 730.17 961.81 729.36 959.93 729.50
  Q 958.22 729.63 956.62 729.37
  Q 954.45 729.01 953.34 729.01
  Q 946.92 729.01 940.50 729.01
  Q 940.20 729.01 939.87 728.79
  Q 939.50 728.54 939.05 728.54
  L 907.22 728.49
  Q 906.67 728.49 906.67 729.03
  L 906.65 828.19
  A 0.89 0.88 -89.3 0 0 907.51 829.08
  Q 909.48 829.11 911.52 829.08
  Q 913.46 829.06 915.44 829.34
  Q 919.10 829.86 923.13 829.55
  C 924.13 829.47 924.89 830.05 925.85 830.07
  Q 929.63 830.15 933.24 830.13
  Q 937.01 830.11 940.79 830.45
  Q 946.14 830.95 949.72 830.51
  Q 955.11 829.84 960.07 830.16
  Q 961.27 830.24 962.34 829.70
  Q 962.80 829.47 963.31 829.55
  Q 965.64 829.92 967.50 829.18
  Q 968.01 828.98 968.56 829.07
  Q 970.31 829.36 971.74 828.55
  Q 971.99 828.41 972.27 828.53
  Q 972.54 828.65 972.82 828.60
  Q 980.51 827.26 987.10 824.48
  Q 999.78 819.13 1005.63 806.31
  Q 1007.10 803.07 1008.21 799.91
  Q 1008.43 799.30 1009.05 799.47
  L 1014.89 801.11
  Q 1015.54 801.29 1015.36 801.95
  L 1003.90 843.54
  Q 1003.74 844.13 1003.12 844.14
  Q 993.07 844.17 982.47 844.14
  C 981.77 844.14 981.40 843.66 980.76 843.66
  Q 966.78 843.64 953.75 843.66
  C 952.77 843.66 951.71 843.13 950.53 843.13
  Q 937.21 843.14 924.28 843.14
  Q 923.69 843.14 923.16 842.87
  Q 922.72 842.64 922.22 842.64
  Q 909.11 842.63 896.00 842.63
  C 895.35 842.63 894.83 843.14 893.98 843.14
  Q 885.86 843.14 877.75 843.13
  Q 877.39 843.13 876.84 843.43
  Q 876.40 843.66 875.90 843.66
  Q 869.51 843.63 862.98 843.66
  Q 862.63 843.66 862.37 843.96
  A 0.51 0.50 19.3 0 1 861.98 844.14
  L 853.26 844.15
  Q 852.86 844.16 852.86 843.76
  L 852.89 838.30
  A 0.46 0.46 0.0 0 1 853.31 837.84
  Q 859.95 837.17 865.26 835.61
  Q 871.73 833.72 873.41 826.20
  Q 874.58 820.96 874.56 816.81
  Q 874.56 816.35 874.83 815.99
  Q 874.98 815.79 874.98 815.55
  Q 875.02 728.73 874.99 640.23
  Q 874.99 638.80 874.69 637.32
  Q 874.46 636.13 874.40 634.85
  Q 874.26 631.43 873.10 627.13
  C 871.12 619.79 865.91 617.18 858.84 616.91
  C 856.97 616.83 855.53 616.08 853.61 616.46
  Q 853.18 616.54 852.90 616.22
  Q 852.62 615.91 852.80 615.26
  Z"
/>
<path fill="#ea072b" d="
  M 1139.46 726.49
  C 1143.24 729.88 1146.92 733.60 1150.26 737.52
  Q 1161.47 750.69 1173.83 768.62
  Q 1189.41 791.20 1200.82 810.03
  Q 1208.60 822.89 1213.82 829.15
  Q 1218.22 834.42 1224.70 836.54
  Q 1229.71 838.18 1235.42 838.81
  Q 1236.01 838.87 1236.01 839.46
  L 1236.01 843.75
  Q 1236.01 844.20 1235.56 844.19
  Q 1233.26 844.12 1230.94 844.17
  Q 1230.42 844.18 1229.94 843.90
  Q 1229.50 843.65 1228.99 843.65
  L 1188.97 843.65
  A 2.61 2.59 69.7 0 1 1186.99 842.73
  Q 1180.13 834.61 1174.70 826.76
  Q 1169.33 819.01 1165.02 812.15
  Q 1150.78 789.48 1138.07 770.16
  Q 1130.60 758.82 1121.84 749.39
  Q 1116.86 744.04 1110.58 739.79
  Q 1098.14 731.38 1083.29 732.03
  Q 1082.15 732.08 1082.15 733.22
  Q 1082.15 767.34 1082.15 801.19
  C 1082.15 803.46 1082.73 805.93 1082.70 808.43
  Q 1082.68 809.97 1083.02 812.04
  Q 1083.33 813.92 1083.13 815.77
  Q 1083.08 816.21 1083.23 816.64
  Q 1083.61 817.72 1083.74 818.89
  Q 1084.12 822.44 1085.12 825.90
  Q 1087.15 832.94 1092.10 835.32
  Q 1097.23 837.78 1103.98 838.67
  A 0.34 0.33 4.0 0 1 1104.27 839.00
  L 1104.25 843.47
  Q 1104.25 843.64 1104.07 843.64
  Q 1071.12 843.64 1038.53 843.67
  Q 1038.18 843.67 1037.87 843.88
  Q 1037.46 844.16 1036.96 844.16
  L 1027.10 844.15
  Q 1026.87 844.15 1026.87 843.91
  L 1026.87 839.02
  Q 1026.87 838.74 1027.15 838.73
  Q 1031.35 838.59 1036.28 836.80
  C 1042.52 834.54 1045.64 829.62 1047.24 823.40
  Q 1048.20 819.68 1048.37 816.31
  Q 1048.45 814.89 1048.71 813.54
  Q 1049.00 811.99 1049.00 810.49
  Q 1048.98 727.72 1048.98 644.68
  Q 1048.98 639.77 1047.79 633.91
  Q 1046.83 629.18 1044.55 625.67
  C 1040.60 619.58 1034.26 618.31 1027.11 617.31
  Q 1026.87 617.28 1026.87 617.03
  L 1026.87 612.21
  Q 1026.87 611.91 1027.17 611.91
  Q 1032.83 611.92 1038.23 611.96
  Q 1038.68 611.96 1039.09 612.19
  Q 1039.53 612.43 1040.03 612.43
  C 1044.48 612.41 1049.51 612.02 1053.83 612.83
  Q 1056.29 613.28 1058.79 612.68
  Q 1060.52 612.27 1062.22 612.43
  Q 1064.65 612.66 1066.87 612.18
  C 1068.93 611.73 1070.85 612.16 1072.87 611.74
  Q 1075.04 611.29 1077.12 611.42
  C 1079.36 611.57 1081.16 610.88 1083.41 610.96
  Q 1085.59 611.05 1087.67 610.72
  Q 1090.23 610.31 1091.89 610.36
  C 1094.05 610.42 1097.42 610.83 1099.34 610.10
  Q 1099.81 609.92 1100.19 609.91
  C 1104.60 609.88 1109.20 609.63 1113.56 610.28
  C 1115.90 610.63 1118.25 610.16 1120.62 610.55
  Q 1123.92 611.09 1127.37 611.49
  Q 1143.62 613.34 1158.21 619.88
  Q 1173.88 626.91 1182.89 638.66
  Q 1191.48 649.87 1193.01 665.29
  Q 1193.60 671.21 1192.97 677.08
  Q 1191.60 690.09 1185.07 699.61
  Q 1183.98 701.20 1182.72 702.57
  C 1181.57 703.83 1180.80 705.11 1179.51 706.25
  Q 1170.10 714.61 1158.24 718.98
  Q 1149.31 722.27 1139.73 725.26
  Q 1138.52 725.63 1139.46 726.49
  Z
  M 1157.71 666.06
  Q 1156.62 652.56 1149.71 642.13
  C 1142.15 630.72 1129.75 624.77 1116.28 622.86
  Q 1113.44 622.46 1110.46 622.44
  Q 1107.61 622.43 1104.91 622.41
  Q 1100.10 622.38 1096.62 622.93
  Q 1089.59 624.03 1082.87 626.26
  Q 1082.15 626.50 1082.15 627.25
  L 1082.15 720.54
  A 0.79 0.77 -82.9 0 0 1082.73 721.30
  Q 1086.94 722.38 1090.73 722.70
  Q 1102.13 723.67 1112.99 722.40
  Q 1115.71 722.08 1118.38 721.40
  C 1126.23 719.41 1133.25 717.05 1139.54 712.51
  Q 1141.42 711.16 1143.38 709.53
  Q 1145.29 707.94 1146.93 706.04
  Q 1155.77 695.84 1157.62 681.39
  Q 1158.50 674.55 1158.00 667.31
  C 1157.96 666.82 1157.75 666.57 1157.71 666.06
  Z"
/>
<path fill="#ea072b" d="
  M 1468.64 811.43
  C 1469.01 813.12 1468.46 815.10 1468.98 816.64
  Q 1469.28 817.54 1469.37 818.51
  Q 1469.92 824.51 1472.25 829.06
  Q 1474.53 833.50 1480.66 835.18
  Q 1484.75 836.30 1488.59 836.75
  Q 1489.75 836.89 1489.99 838.04
  Q 1490.45 840.30 1490.51 842.31
  Q 1490.54 843.53 1489.33 843.35
  Q 1487.54 843.08 1485.47 843.11
  Q 1483.62 843.14 1481.59 842.84
  Q 1478.45 842.38 1475.25 842.69
  Q 1474.76 842.74 1474.32 842.51
  Q 1473.59 842.15 1473.25 842.15
  Q 1468.33 842.11 1463.00 842.15
  Q 1462.49 842.15 1462.01 842.00
  Q 1461.05 841.70 1460.24 841.69
  Q 1451.72 841.56 1443.02 841.65
  C 1442.42 841.66 1442.06 842.12 1441.47 842.12
  Q 1436.75 842.10 1432.09 842.16
  C 1430.89 842.18 1429.89 842.73 1428.65 842.65
  Q 1425.33 842.43 1422.05 842.85
  Q 1419.90 843.12 1417.92 843.12
  Q 1415.71 843.11 1413.73 843.31
  Q 1413.53 843.33 1413.53 843.13
  Q 1413.47 838.63 1413.72 837.15
  Q 1413.74 837.04 1413.84 837.03
  Q 1418.53 836.32 1422.93 835.20
  C 1427.99 833.91 1431.25 830.72 1432.73 825.70
  Q 1434.70 818.96 1434.69 812.34
  Q 1434.69 811.28 1434.92 810.42
  Q 1435.20 809.45 1435.20 808.50
  Q 1435.23 800.55 1435.22 792.38
  Q 1435.21 791.53 1435.37 790.68
  Q 1435.61 789.33 1435.61 788.20
  Q 1435.84 725.12 1435.68 662.22
  C 1435.68 661.35 1435.23 660.76 1435.23 659.84
  Q 1435.21 652.11 1435.22 643.85
  Q 1435.22 642.81 1434.96 641.75
  Q 1434.69 640.63 1434.66 639.42
  Q 1434.46 630.98 1431.79 624.87
  C 1429.46 619.54 1424.46 618.30 1419.19 617.35
  Q 1416.48 616.86 1413.84 616.58
  Q 1413.57 616.55 1413.57 616.27
  L 1413.55 610.30
  Q 1413.55 610.03 1413.82 610.05
  Q 1420.47 610.62 1428.16 610.40
  C 1429.61 610.36 1430.87 610.91 1432.31 610.91
  Q 1453.77 610.96 1471.20 610.88
  C 1472.26 610.87 1473.04 610.41 1473.97 610.41
  Q 1481.00 610.37 1488.06 610.43
  Q 1488.55 610.44 1488.92 610.12
  Q 1489.74 609.42 1490.46 610.84
  A 1.04 1.02 36.7 0 1 1490.56 611.49
  L 1489.84 615.89
  A 0.86 0.85 -13.7 0 1 1489.52 616.41
  C 1488.53 617.15 1486.82 616.93 1485.54 617.12
  Q 1481.66 617.71 1478.16 619.03
  Q 1472.45 621.18 1470.54 628.28
  Q 1469.01 633.98 1468.92 639.30
  Q 1468.90 640.64 1468.62 641.67
  Q 1468.33 642.80 1468.32 643.89
  Q 1468.31 649.26 1468.30 654.59
  C 1468.30 655.49 1467.81 656.16 1467.81 657.09
  Q 1467.83 727.07 1467.81 796.40
  C 1467.81 797.52 1468.35 798.09 1468.35 799.16
  Q 1468.31 803.75 1468.30 808.35
  Q 1468.30 809.86 1468.64 811.43
  Z"
/>
<path fill="#ea072b" d="
  M 1618.73 623.62
  Q 1618.73 719.28 1618.73 815.00
  Q 1618.73 816.23 1619.02 817.30
  C 1619.46 818.86 1619.08 820.38 1619.45 822.08
  Q 1619.71 823.25 1619.96 824.42
  C 1620.95 829.16 1623.97 832.83 1628.54 834.36
  Q 1634.40 836.31 1640.25 836.63
  Q 1642.05 836.72 1643.83 837.19
  Q 1644.29 837.31 1644.42 837.77
  Q 1645.08 840.19 1644.81 843.10
  Q 1644.77 843.55 1644.32 843.60
  Q 1641.94 843.84 1639.87 843.56
  Q 1636.73 843.14 1635.59 843.14
  Q 1628.23 843.13 1621.00 843.15
  Q 1620.66 843.15 1620.14 842.87
  Q 1619.71 842.64 1619.21 842.64
  Q 1601.48 842.64 1583.75 842.63
  Q 1583.48 842.63 1583.02 842.90
  A 1.94 1.88 29.6 0 1 1582.09 843.14
  Q 1575.25 843.13 1568.31 843.13
  Q 1566.26 843.14 1564.01 843.51
  Q 1561.73 843.89 1559.01 843.58
  Q 1558.42 843.51 1558.42 842.92
  L 1558.39 837.76
  Q 1558.38 837.09 1559.04 837.17
  C 1560.19 837.30 1560.93 836.72 1562.00 836.68
  Q 1568.99 836.41 1575.01 834.20
  C 1580.54 832.18 1582.71 828.15 1583.83 822.50
  C 1584.13 820.98 1583.76 819.45 1584.26 818.04
  Q 1584.52 817.29 1584.52 816.44
  Q 1584.52 719.45 1584.51 623.29
  Q 1584.51 622.92 1584.14 622.92
  Q 1565.56 622.95 1547.03 622.94
  C 1546.07 622.94 1545.60 623.42 1544.71 623.42
  Q 1536.20 623.40 1528.09 625.59
  Q 1521.60 627.35 1517.36 631.01
  C 1511.38 636.19 1507.98 645.65 1506.15 653.23
  Q 1505.94 654.06 1505.09 654.06
  L 1501.46 654.06
  Q 1500.33 654.06 1500.43 652.95
  L 1503.98 610.53
  Q 1504.03 609.92 1504.64 609.88
  C 1506.89 609.70 1508.77 610.39 1510.94 610.39
  Q 1525.27 610.42 1539.49 610.39
  C 1543.20 610.38 1547.41 610.94 1551.44 610.94
  Q 1600.94 610.92 1656.59 610.90
  Q 1657.53 610.90 1658.44 610.68
  Q 1659.48 610.44 1660.09 610.43
  Q 1677.29 610.38 1694.49 610.37
  C 1696.30 610.37 1698.33 609.58 1700.52 610.01
  A 0.81 0.80 5.4 0 1 1701.17 610.78
  C 1701.20 614.21 1701.14 617.36 1701.49 621.05
  Q 1701.98 626.38 1701.60 632.00
  Q 1701.56 632.48 1701.95 633.11
  Q 1702.21 633.54 1702.20 634.04
  Q 1702.18 637.54 1702.15 640.79
  Q 1702.13 641.97 1702.62 647.16
  Q 1702.89 650.07 1702.64 653.53
  Q 1702.60 654.06 1702.06 654.06
  L 1696.93 654.06
  Q 1696.41 654.06 1696.29 653.56
  C 1694.66 646.88 1692.85 639.88 1688.69 634.28
  Q 1686.10 630.78 1682.43 628.67
  C 1678.09 626.17 1674.08 625.21 1669.35 624.35
  Q 1667.62 624.04 1666.11 624.01
  Q 1664.95 623.99 1663.97 623.66
  C 1662.22 623.08 1660.05 623.62 1658.22 623.29
  Q 1656.23 622.92 1654.21 622.93
  Q 1636.71 622.96 1619.42 622.93
  Q 1618.73 622.93 1618.73 623.62
  Z"
/>
<path fill="#ea072b" d="
  M 244.10 610.17
  Q 244.40 610.14 244.40 610.44
  L 244.34 616.31
  Q 244.34 616.67 243.98 616.72
  Q 237.88 617.52 234.01 619.09
  Q 225.95 622.36 223.51 630.80
  Q 222.15 635.49 221.85 639.86
  Q 221.74 641.52 221.50 643.05
  Q 221.25 644.61 221.25 646.15
  Q 221.24 709.61 221.26 772.70
  Q 221.26 773.30 221.00 773.82
  Q 220.83 774.17 220.82 774.57
  Q 220.80 777.08 220.30 780.20
  Q 218.22 793.36 212.90 804.46
  C 206.81 817.17 195.20 828.03 182.96 834.75
  Q 166.36 843.87 147.23 846.18
  C 145.45 846.40 144.01 846.90 142.10 846.65
  Q 141.20 846.53 140.37 846.92
  A 2.53 2.49 -57.2 0 1 139.30 847.16
  Q 132.86 847.19 125.89 847.17
  Q 125.63 847.17 125.41 847.03
  Q 125.29 846.95 125.18 846.86
  Q 125.01 846.73 124.80 846.74
  Q 121.30 846.82 116.15 845.94
  C 93.41 842.04 73.37 831.04 60.06 812.59
  C 58.14 809.93 56.83 806.93 55.68 803.89
  Q 51.72 793.48 50.26 781.95
  Q 49.85 778.70 49.49 775.77
  Q 49.30 774.19 49.33 772.75
  C 49.35 771.28 48.62 770.15 48.74 768.73
  Q 48.97 765.89 48.70 763.31
  Q 48.38 760.23 48.37 757.58
  Q 48.15 700.18 48.30 642.90
  C 48.30 641.06 47.64 639.61 47.75 637.74
  Q 47.85 636.06 47.46 634.29
  Q 47.07 632.54 46.73 630.64
  Q 44.61 618.78 32.54 617.39
  Q 31.53 617.27 30.48 617.05
  Q 29.03 616.74 27.48 616.64
  Q 27.29 616.63 27.29 616.44
  L 27.17 610.51
  Q 27.17 610.23 27.44 610.25
  Q 33.33 610.51 38.96 610.37
  C 40.06 610.34 40.93 610.86 41.97 610.86
  Q 66.16 611.04 88.89 610.81
  Q 90.18 610.80 92.02 610.53
  Q 93.20 610.35 94.01 610.36
  Q 99.10 610.42 104.20 610.39
  A 0.33 0.33 0.0 0 1 104.53 610.72
  L 104.56 616.42
  Q 104.56 616.72 104.26 616.78
  Q 100.44 617.42 96.46 618.60
  Q 88.34 621.00 85.13 629.90
  Q 83.12 635.48 82.55 641.54
  Q 82.45 642.61 82.26 643.40
  Q 82.03 644.34 82.03 645.23
  C 82.02 648.03 82.22 651.10 81.65 653.77
  Q 81.50 654.47 81.50 655.27
  Q 81.32 706.65 81.63 754.91
  Q 81.64 755.96 81.76 757.12
  Q 82.17 760.89 82.00 764.96
  Q 81.93 766.58 82.31 768.48
  C 82.61 769.97 82.15 771.85 82.65 773.16
  Q 82.87 773.72 82.92 774.35
  Q 83.77 784.88 87.50 795.24
  C 88.88 799.08 91.51 802.06 93.67 805.39
  C 101.64 817.66 115.51 825.53 129.76 828.28
  Q 132.58 828.83 135.42 829.24
  Q 138.00 829.62 141.12 829.60
  C 145.25 829.59 150.18 830.06 154.20 829.34
  Q 155.66 829.08 157.14 828.83
  Q 178.76 825.11 192.69 808.17
  C 195.91 804.25 198.47 800.15 199.99 795.26
  Q 202.99 785.62 203.80 774.92
  C 203.92 773.43 204.38 772.17 204.22 770.62
  C 203.98 768.32 204.71 766.34 204.71 764.08
  Q 204.72 749.74 204.71 735.50
  C 204.71 734.72 205.21 734.03 205.21 733.14
  Q 205.23 706.30 205.21 679.46
  C 205.21 678.68 204.69 678.06 204.69 677.32
  Q 204.74 663.07 204.74 647.46
  C 204.74 644.48 203.97 641.68 204.23 638.69
  C 204.27 638.13 203.82 637.54 203.78 636.92
  Q 203.42 631.51 201.53 627.36
  Q 199.07 621.92 193.23 620.06
  Q 188.40 618.52 182.35 617.50
  Q 181.73 617.39 181.09 617.43
  Q 180.43 617.47 179.90 617.07
  Q 179.50 616.77 179.01 616.87
  Q 177.62 617.16 176.54 616.46
  A 1.22 1.20 16.8 0 1 175.99 615.45
  L 176.02 610.72
  Q 176.02 610.12 176.62 610.19
  Q 180.18 610.57 184.13 610.35
  C 185.50 610.28 186.39 610.92 187.65 610.92
  Q 210.83 610.92 234.00 610.91
  C 234.73 610.91 235.35 610.29 236.20 610.34
  Q 239.86 610.56 244.10 610.17
  Z"
/>
<path fill="#ea072b" d="
  M 1820.18 718.02
  Q 1820.56 717.98 1820.75 717.65
  Q 1842.98 679.11 1865.69 639.79
  C 1868.20 635.46 1873.23 626.34 1869.48 621.91
  Q 1868.23 620.44 1866.73 619.67
  Q 1860.50 616.50 1853.32 615.78
  Q 1852.61 615.71 1852.59 615.00
  L 1852.52 611.46
  Q 1852.51 610.92 1853.05 610.92
  L 1910.15 610.92
  Q 1910.88 610.92 1910.88 611.65
  L 1910.87 614.79
  Q 1910.87 615.57 1910.11 615.74
  Q 1907.43 616.35 1904.85 617.28
  Q 1897.12 620.08 1892.63 626.66
  C 1890.15 630.30 1887.44 633.83 1885.04 637.53
  Q 1854.09 685.20 1825.20 729.87
  A 1.96 1.89 63.0 0 0 1824.89 730.89
  Q 1824.86 740.96 1824.88 751.30
  C 1824.89 751.76 1825.08 752.06 1825.28 752.44
  Q 1825.39 752.65 1825.39 752.88
  Q 1825.36 771.29 1825.40 789.72
  C 1825.40 790.72 1825.83 791.51 1825.84 792.62
  Q 1825.94 801.26 1825.86 811.37
  Q 1825.85 812.44 1826.15 813.37
  C 1826.61 814.83 1826.18 816.28 1826.58 817.74
  Q 1826.95 819.12 1827.19 820.47
  Q 1829.22 831.98 1840.83 834.61
  Q 1846.68 835.94 1851.87 836.95
  Q 1852.54 837.08 1852.53 837.76
  L 1852.51 842.02
  Q 1852.51 842.65 1851.88 842.65
  Q 1846.68 842.64 1841.79 842.62
  C 1840.71 842.62 1839.79 842.12 1838.63 842.13
  Q 1831.60 842.14 1824.39 842.12
  C 1823.32 842.12 1822.71 841.63 1821.82 841.63
  Q 1810.41 841.63 1799.00 841.63
  C 1798.52 841.63 1797.98 842.12 1797.31 842.12
  Q 1789.82 842.14 1782.00 842.12
  C 1781.07 842.12 1779.92 842.64 1778.71 842.64
  Q 1773.13 842.63 1768.21 842.65
  Q 1767.57 842.65 1767.57 842.01
  L 1767.57 837.76
  A 0.80 0.79 85.3 0 1 1768.23 836.97
  Q 1774.59 835.86 1780.72 834.46
  C 1783.06 833.92 1786.90 832.18 1788.36 830.06
  Q 1789.84 827.91 1790.60 825.08
  Q 1791.41 822.09 1791.73 819.10
  Q 1792.52 811.91 1792.22 804.31
  C 1792.17 802.97 1792.73 801.83 1792.73 800.43
  Q 1792.73 782.17 1792.75 764.27
  C 1792.75 763.35 1793.15 762.78 1793.17 761.74
  Q 1793.31 749.27 1793.22 730.52
  Q 1793.22 730.01 1792.94 729.59
  Q 1785.16 717.90 1777.45 706.05
  Q 1755.64 672.56 1734.98 641.03
  Q 1732.26 636.89 1729.06 632.80
  Q 1725.93 628.80 1722.88 624.91
  C 1718.61 619.46 1713.44 617.82 1707.00 616.66
  Q 1706.21 616.52 1706.22 615.72
  L 1706.29 611.74
  A 0.84 0.83 0.3 0 1 1707.13 610.92
  L 1782.52 610.92
  Q 1783.13 610.92 1783.13 611.53
  L 1783.13 615.90
  Q 1783.13 616.59 1782.46 616.74
  Q 1776.40 618.09 1770.60 620.58
  C 1766.84 622.20 1765.22 624.84 1766.21 629.07
  C 1766.64 630.89 1767.34 632.86 1768.32 634.45
  Q 1794.12 676.22 1819.90 717.89
  A 0.28 0.27 68.9 0 0 1820.18 718.02
  Z"
/>
</svg>
