<?xml version="1.0" encoding="UTF-8" standalone="no"?>
<!DOCTYPE svg PUBLIC "-//W3C//DTD SVG 1.1//EN" "http://www.w3.org/Graphics/SVG/1.1/DTD/svg11.dtd">
<svg xmlns="http://www.w3.org/2000/svg" version="1.1" viewBox="0.00 0.00 2556.00 819.00">
<g stroke-width="2.00" fill="none" stroke-linecap="butt">
<path stroke="#000000" vector-effect="non-scaling-stroke" d="
  M 376.78 288.50
  L 375.04 292.00
  Q 374.84 292.41 374.45 292.63
  Q 374.10 292.84 374.00 293.25
  Q 373.29 296.38 373.53 300.01
  Q 373.57 300.55 373.14 300.87
  Q 372.70 301.20 372.19 301.26
  Q 371.54 301.33 372.07 301.72
  Q 372.23 301.84 372.42 301.79
  Q 372.76 301.70 373.10 301.75
  Q 379.70 302.59 386.46 302.16
  Q 387.00 302.13 387.08 302.67
  Q 387.20 303.51 387.51 304.03"
/>
<path stroke="#000000" vector-effect="non-scaling-stroke" d="
  M 473.82 316.39
  L 473.85 330.66"
/>
</g>
<path fill="#000000" d="
  M 2139.33 331.58
  L 2139.28 430.45
  A 0.67 0.67 0.0 0 0 2139.95 431.12
  L 2167.54 431.10
  A 0.44 0.44 0.0 0 1 2167.98 431.54
  L 2167.96 445.42
  A 0.46 0.45 83.8 0 1 2167.61 445.87
  Q 2167.28 445.95 2167.02 445.78
  Q 2166.77 445.62 2166.48 445.62
  L 2111.28 445.64
  A 0.86 0.86 0.0 0 1 2110.42 444.78
  L 2110.35 417.33
  A 0.51 0.51 0.0 0 0 2109.84 416.83
  L 2098.04 416.91
  Q 2097.61 416.91 2097.25 417.15
  Q 2097.10 417.25 2096.95 417.32
  Q 2096.37 417.59 2096.37 416.95
  L 2096.37 374.93
  A 1.07 1.06 -0.0 0 1 2097.44 373.87
  L 2108.24 373.87
  A 0.88 0.86 -26.2 0 1 2108.76 374.04
  Q 2109.25 374.42 2109.71 374.16
  Q 2110.12 373.93 2110.12 373.47
  L 2110.70 303.60
  A 1.36 1.36 0.0 0 1 2111.82 302.27
  Q 2113.46 301.96 2115.23 301.93
  Q 2119.46 301.86 2124.02 302.10
  Q 2124.69 302.13 2124.69 301.46
  L 2125.13 244.93
  Q 2125.14 244.33 2125.74 244.40
  Q 2127.73 244.63 2129.64 244.81
  Q 2131.82 245.01 2133.79 244.72
  Q 2136.23 244.36 2138.53 244.63
  A 0.60 0.59 3.0 0 0 2139.19 244.04
  L 2139.38 201.27
  A 0.26 0.26 0.0 0 1 2139.84 201.11
  Q 2139.93 201.22 2140.06 201.29
  Q 2140.22 201.38 2140.41 201.38
  L 2152.73 201.37
  Q 2153.48 201.37 2153.47 200.62
  Q 2153.28 186.40 2153.73 175.85
  Q 2153.79 174.54 2153.93 173.20
  Q 2153.96 172.94 2154.22 172.94
  L 2166.53 172.78
  A 0.79 0.78 -2.7 0 0 2167.31 171.93
  Q 2167.00 167.98 2167.40 164.28
  Q 2167.98 159.02 2167.98 156.65
  Q 2167.96 150.70 2168.27 145.27
  Q 2168.30 144.82 2168.58 144.48
  Q 2168.76 144.27 2168.80 144.00
  Q 2168.88 143.46 2168.34 143.40
  Q 2167.90 143.35 2167.89 142.92
  Q 2167.86 136.77 2167.87 130.57
  Q 2167.87 129.97 2168.46 129.97
  L 2181.66 129.88
  Q 2182.20 129.88 2182.21 129.34
  L 2182.50 115.74
  Q 2182.51 115.21 2182.80 114.77
  Q 2183.10 114.30 2182.68 113.88
  Q 2182.30 113.49 2182.31 112.94
  L 2182.54 101.69
  Q 2182.55 101.18 2183.06 101.17
  L 2195.99 101.12
  Q 2196.60 101.12 2196.60 100.51
  L 2196.71 86.95
  Q 2196.71 86.61 2197.05 86.61
  L 2210.27 86.64
  A 0.66 0.65 -89.6 0 0 2210.93 85.98
  L 2210.95 72.83
  Q 2210.95 72.11 2211.67 72.11
  L 2224.50 72.13
  A 0.88 0.88 0.0 0 0 2225.38 71.25
  L 2225.38 58.59
  Q 2225.38 58.04 2225.92 58.04
  Q 2234.09 57.97 2243.12 57.94
  Q 2262.67 57.88 2281.99 58.04
  Q 2282.66 58.05 2282.65 58.72
  L 2282.63 71.81
  A 0.44 0.43 -90.0 0 0 2283.06 72.25
  L 2296.48 72.26
  Q 2296.94 72.26 2296.95 72.73
  L 2297.05 101.28
  Q 2297.05 101.59 2297.36 101.63
  Q 2297.52 101.65 2297.65 101.54
  Q 2298.00 101.24 2297.91 101.48
  Q 2297.80 101.74 2297.47 101.75
  A 0.52 0.52 0.0 0 0 2296.97 102.30
  Q 2297.05 104.36 2295.69 105.46
  Q 2295.27 105.80 2295.33 106.34
  Q 2295.68 109.88 2294.96 112.87
  A 2.12 2.12 0.0 0 1 2293.04 114.48
  L 2283.39 115.09
  A 0.71 0.71 0.0 0 0 2282.72 115.82
  Q 2282.93 127.87 2281.25 139.07
  Q 2281.17 139.62 2280.85 140.07
  L 2279.73 141.70
  A 1.31 1.30 -59.5 0 1 2278.09 142.13
  Q 2277.60 141.90 2277.68 142.32
  Q 2277.80 142.98 2277.13 142.96
  Q 2275.01 142.90 2273.88 141.76
  Q 2273.69 141.58 2273.58 141.81
  Q 2273.34 142.29 2272.82 142.11
  Q 2271.99 141.83 2272.07 142.66
  Q 2272.08 142.76 2272.03 142.85
  Q 2271.87 143.13 2271.55 143.26
  Q 2270.49 143.68 2269.50 143.56
  Q 2268.94 143.50 2268.90 144.06
  Q 2268.31 153.25 2268.37 162.57
  Q 2268.38 165.03 2267.97 167.21
  Q 2267.47 169.88 2268.65 172.39
  A 1.24 1.24 0.0 0 0 2269.53 173.07
  Q 2273.13 173.75 2277.32 173.07
  C 2278.88 172.82 2280.32 172.76 2281.82 173.29
  A 0.68 0.68 0.0 0 0 2282.73 172.64
  Q 2282.42 159.54 2283.30 147.24
  Q 2283.33 146.74 2283.68 146.38
  C 2284.75 145.28 2285.98 144.33 2287.58 144.40
  Q 2290.26 144.52 2293.00 144.18
  C 2294.23 144.03 2295.33 144.32 2296.56 144.37
  Q 2297.01 144.39 2297.02 143.93
  L 2297.31 116.51
  Q 2297.32 116.15 2297.06 115.90
  Q 2296.91 115.74 2296.87 115.50
  A 0.24 0.24 0.0 0 1 2297.28 115.30
  Q 2298.20 116.25 2299.54 115.68
  Q 2300.04 115.46 2300.58 115.45
  Q 2305.48 115.34 2310.74 115.34
  Q 2310.92 115.34 2311.01 115.56
  A 0.20 0.20 0.0 0 0 2311.39 115.49
  L 2311.68 87.23
  Q 2311.68 86.74 2312.17 86.74
  Q 2318.42 86.74 2324.08 86.71
  Q 2324.61 86.70 2325.05 87.04
  A 0.57 0.57 0.0 0 0 2325.96 86.59
  L 2326.02 72.96
  Q 2326.02 72.18 2326.79 72.18
  L 2339.57 72.17
  A 0.63 0.63 0.0 0 0 2340.20 71.55
  L 2340.21 58.61
  Q 2340.21 57.93 2340.89 57.93
  L 2397.23 57.98
  Q 2397.74 57.98 2397.73 58.49
  L 2397.61 71.63
  A 0.52 0.52 0.0 0 0 2398.13 72.16
  L 2411.62 72.11
  Q 2412.13 72.11 2412.13 72.62
  L 2412.04 114.99
  A 0.67 0.67 0.0 0 1 2411.49 115.64
  Q 2410.65 115.78 2409.96 115.31
  Q 2409.50 115.01 2408.96 115.05
  L 2404.99 115.40
  Q 2404.42 115.45 2404.04 115.02
  Q 2402.79 113.61 2401.38 115.09
  Q 2401.00 115.48 2400.47 115.37
  Q 2399.21 115.11 2398.24 115.93
  Q 2397.88 116.23 2397.88 116.69
  L 2397.69 143.51
  Q 2397.69 143.96 2397.25 143.95
  L 2384.15 143.84
  A 0.77 0.77 0.0 0 0 2383.37 144.60
  L 2383.17 172.37
  A 0.42 0.41 -0.0 0 1 2382.75 172.78
  L 2369.65 172.70
  A 0.50 0.50 0.0 0 0 2369.14 173.21
  L 2369.18 186.82
  A 0.49 0.49 0.0 0 1 2368.68 187.31
  L 2355.77 187.22
  A 1.13 1.13 0.0 0 0 2354.63 188.35
  L 2354.66 215.55
  A 0.21 0.20 -0.0 0 1 2354.45 215.75
  L 2340.82 215.56
  Q 2340.18 215.55 2340.18 216.18
  L 2340.16 229.76
  Q 2340.16 230.17 2339.74 230.18
  L 2326.59 230.24
  A 0.54 0.54 0.0 0 0 2326.05 230.78
  L 2326.04 244.24
  Q 2326.03 244.76 2325.52 244.72
  Q 2319.26 244.29 2313.31 244.72
  Q 2312.03 244.81 2311.91 246.09
  Q 2311.30 252.16 2311.70 258.48
  Q 2311.72 258.73 2311.58 258.94
  Q 2311.51 259.05 2311.39 259.12
  Q 2311.15 259.26 2311.18 259.54
  Q 2311.99 266.15 2311.48 272.74
  Q 2311.45 273.15 2311.04 273.15
  L 2299.08 273.10
  A 1.16 1.09 -27.4 0 1 2298.48 272.93
  Q 2297.75 272.45 2297.23 272.92
  Q 2296.92 273.20 2296.93 273.70
  Q 2297.03 280.52 2296.94 287.03
  Q 2296.93 287.70 2296.27 287.69
  L 2283.32 287.58
  Q 2282.73 287.58 2282.73 288.18
  L 2282.71 301.24
  Q 2282.71 301.94 2282.01 301.94
  L 2268.91 301.98
  A 0.36 0.36 0.0 0 0 2268.55 302.34
  L 2268.36 344.50
  Q 2268.35 344.85 2268.00 344.85
  L 2254.89 344.86
  A 0.76 0.76 0.0 0 0 2254.13 345.62
  L 2254.10 416.70
  Q 2254.10 417.41 2254.81 417.40
  C 2256.01 417.37 2257.07 416.86 2258.31 416.94
  Q 2263.02 417.21 2267.80 417.00
  Q 2268.38 416.97 2268.38 417.55
  Q 2268.37 423.48 2268.39 429.57
  Q 2268.39 429.78 2268.22 429.90
  Q 2268.09 429.99 2267.94 429.98
  A 0.18 0.17 88.5 0 0 2267.76 430.18
  Q 2267.90 431.08 2268.83 431.07
  Q 2275.53 431.02 2282.12 431.13
  Q 2282.74 431.14 2282.74 431.76
  L 2282.71 444.96
  A 0.67 0.66 -0.0 0 1 2282.04 445.62
  L 2226.02 445.60
  A 0.68 0.67 2.3 0 1 2225.34 444.87
  C 2225.73 439.95 2225.51 435.32 2225.49 430.54
  Q 2225.31 391.45 2225.41 351.63
  Q 2225.44 343.02 2225.74 335.37
  Q 2226.08 326.51 2226.14 318.70
  A 0.16 0.16 0.0 0 1 2226.37 318.55
  Q 2226.71 318.70 2226.93 318.40
  Q 2227.06 318.22 2227.08 317.99
  Q 2227.12 317.50 2227.17 316.99
  Q 2227.24 316.34 2227.90 316.34
  Q 2231.03 316.38 2233.97 316.37
  C 2235.50 316.36 2236.77 315.79 2238.33 316.36
  A 0.60 0.60 0.0 0 0 2239.14 315.81
  L 2240.03 259.56
  Q 2240.03 259.15 2240.44 259.15
  L 2253.06 259.02
  Q 2254.12 259.01 2254.12 257.94
  L 2254.10 215.69
  A 0.75 0.74 -16.2 0 1 2254.45 215.06
  Q 2254.92 214.77 2254.90 214.95
  Q 2254.82 215.66 2255.52 215.66
  Q 2260.81 215.69 2267.20 215.98
  Q 2268.00 216.02 2268.02 215.21
  L 2268.66 187.24
  Q 2268.67 186.87 2269.02 186.74
  Q 2269.40 186.61 2269.21 186.25
  C 2268.77 185.44 2268.42 184.84 2268.45 183.87
  Q 2268.61 178.90 2268.82 174.55
  A 1.99 1.99 0.0 0 0 2266.77 172.46
  Q 2262.09 172.62 2256.95 172.75
  Q 2256.21 172.77 2255.51 172.52
  Q 2255.04 172.35 2254.58 172.38
  Q 2254.03 172.41 2254.03 172.96
  L 2254.02 186.08
  A 1.10 1.10 0.0 0 1 2252.92 187.17
  L 2240.25 187.14
  Q 2239.63 187.14 2239.63 187.75
  L 2239.61 201.00
  Q 2239.61 201.61 2239.00 201.61
  L 2226.46 201.45
  Q 2225.62 201.44 2225.61 202.29
  L 2225.36 229.77
  A 0.41 0.41 0.0 0 1 2224.94 230.18
  L 2211.49 230.04
  A 0.48 0.47 -0.0 0 0 2211.01 230.51
  L 2210.97 243.96
  Q 2210.97 244.39 2210.54 244.39
  L 2197.22 244.40
  A 0.63 0.62 90.0 0 0 2196.60 245.03
  L 2196.57 258.20
  A 0.78 0.78 0.0 0 1 2195.79 258.98
  L 2182.98 258.96
  A 0.63 0.62 -1.3 0 0 2182.35 259.61
  Q 2182.64 265.93 2182.40 272.75
  Q 2182.38 273.41 2181.74 273.56
  Q 2181.37 273.65 2181.69 273.85
  Q 2182.39 274.29 2182.39 275.21
  Q 2182.38 281.82 2182.36 287.01
  Q 2182.36 287.67 2181.70 287.68
  L 2168.58 287.90
  A 0.65 0.65 0.0 0 0 2167.94 288.55
  L 2167.93 301.49
  A 0.32 0.32 0.0 0 1 2167.61 301.81
  Q 2161.24 301.82 2154.92 301.84
  Q 2154.55 301.84 2154.20 301.73
  Q 2153.51 301.52 2153.51 302.23
  L 2153.35 331.45
  Q 2153.34 332.01 2152.85 331.76
  C 2152.17 331.42 2151.83 331.11 2151.02 331.12
  Q 2145.47 331.17 2139.84 331.08
  Q 2139.33 331.07 2139.33 331.58
  Z
  M 2239.74 122.11
  Q 2238.84 123.35 2238.94 125.02
  Q 2238.98 125.72 2238.39 126.10
  Q 2237.58 126.62 2237.65 127.64
  Q 2237.68 127.99 2237.34 127.90
  Q 2236.70 127.74 2236.16 128.08
  Q 2235.76 128.33 2235.28 128.35
  L 2226.49 128.71
  A 1.06 1.05 -1.1 0 0 2225.47 129.76
  L 2225.42 143.32
  Q 2225.42 144.06 2224.68 144.07
  L 2212.22 144.18
  Q 2211.13 144.19 2211.12 145.28
  L 2210.93 172.46
  Q 2210.93 172.85 2210.54 172.85
  L 2197.27 172.71
  Q 2196.74 172.70 2196.73 173.23
  L 2196.32 199.79
  A 1.70 1.70 0.0 0 0 2198.04 201.51
  L 2208.82 201.37
  Q 2209.33 201.36 2209.77 201.64
  Q 2210.03 201.80 2210.34 201.83
  Q 2211.01 201.90 2211.01 201.22
  L 2211.04 187.56
  Q 2211.04 187.17 2211.44 187.17
  L 2224.67 187.30
  A 0.72 0.72 0.0 0 0 2225.40 186.58
  L 2225.41 173.04
  Q 2225.41 172.69 2225.65 172.44
  Q 2225.93 172.14 2225.67 171.89
  Q 2225.31 171.54 2225.32 171.04
  C 2225.32 169.41 2225.71 167.97 2225.51 166.40
  Q 2225.20 164.06 2225.99 161.50
  Q 2226.11 161.11 2226.39 160.80
  Q 2226.61 160.56 2226.62 160.22
  A 1.99 1.83 -0.2 0 1 2228.54 158.44
  Q 2232.00 158.35 2235.59 158.38
  C 2236.54 158.39 2237.13 157.90 2238.06 158.38
  A 0.95 0.95 0.0 0 0 2239.45 157.58
  L 2239.91 145.60
  Q 2239.93 145.03 2240.47 144.83
  Q 2243.18 143.83 2246.01 143.92
  Q 2249.23 144.03 2252.73 144.04
  Q 2253.36 144.04 2253.42 143.41
  C 2253.99 136.54 2254.30 130.04 2254.09 122.78
  Q 2254.02 120.45 2255.18 116.46
  Q 2255.34 115.89 2255.92 115.74
  Q 2256.98 115.46 2258.22 115.42
  Q 2263.17 115.25 2267.60 115.57
  Q 2268.20 115.61 2268.20 115.01
  L 2268.49 87.38
  A 0.61 0.61 0.0 0 0 2267.88 86.77
  L 2254.68 86.62
  A 0.57 0.57 0.0 0 0 2254.10 87.19
  L 2254.08 99.72
  Q 2254.08 101.01 2252.78 101.01
  L 2240.26 101.03
  Q 2239.78 101.03 2239.77 101.52
  Q 2239.74 108.39 2239.35 115.10
  Q 2239.34 115.29 2239.26 115.46
  Q 2239.22 115.55 2239.11 115.56
  Q 2238.31 115.64 2238.82 116.23
  Q 2238.93 116.36 2239.05 116.46
  Q 2239.30 116.68 2239.35 117.01
  L 2239.92 121.42
  Q 2239.97 121.80 2239.74 122.11
  Z
  M 2369.58 128.84
  A 0.38 0.38 0.0 0 1 2369.07 128.48
  Q 2369.14 122.89 2369.38 118.16
  C 2369.43 117.32 2369.06 116.41 2368.91 115.57
  Q 2368.81 115.06 2369.32 115.13
  Q 2375.92 116.00 2382.65 115.25
  Q 2383.19 115.18 2383.20 114.64
  Q 2383.43 101.38 2382.67 88.63
  Q 2382.66 88.47 2382.75 88.35
  Q 2382.84 88.22 2382.82 88.04
  Q 2382.80 87.81 2382.58 87.76
  Q 2376.43 86.32 2369.84 86.68
  Q 2369.07 86.73 2369.08 87.50
  L 2369.17 100.60
  A 0.52 0.51 -0.5 0 1 2368.65 101.12
  L 2355.28 101.11
  A 0.62 0.61 0.0 0 0 2354.66 101.72
  L 2354.62 129.00
  A 0.62 0.62 0.0 0 1 2354.00 129.62
  L 2340.59 129.68
  A 0.30 0.30 0.0 0 0 2340.29 129.98
  L 2340.10 157.52
  Q 2340.10 158.14 2339.48 158.14
  L 2326.70 158.13
  Q 2326.04 158.13 2326.03 158.80
  L 2325.82 186.58
  A 0.76 0.76 0.0 0 0 2326.58 187.35
  L 2338.36 187.29
  Q 2338.77 187.28 2339.15 187.44
  Q 2339.37 187.53 2339.61 187.54
  Q 2340.20 187.56 2340.21 186.97
  L 2340.51 173.23
  Q 2340.52 172.73 2341.02 172.73
  L 2353.82 172.72
  Q 2354.56 172.72 2354.57 171.99
  Q 2354.68 160.60 2354.64 149.75
  Q 2354.63 147.81 2355.15 144.89
  Q 2355.25 144.35 2355.79 144.35
  L 2368.54 144.23
  Q 2369.08 144.22 2369.08 143.69
  Q 2369.12 137.83 2369.24 131.51
  Q 2369.26 130.26 2369.89 129.34
  Q 2370.04 129.12 2369.89 128.90
  Q 2369.80 128.75 2369.58 128.84
  Z
  M 2308.98 211.72
  Q 2308.69 211.97 2308.63 212.40
  A 3.14 2.60 -83.3 0 1 2305.76 215.14
  Q 2302.47 214.87 2298.14 216.36
  Q 2297.67 216.52 2297.64 217.02
  Q 2297.23 222.59 2297.60 227.79
  C 2297.71 229.36 2298.41 230.85 2299.20 232.20
  A 1.02 1.02 0.0 0 0 2300.81 232.40
  Q 2302.15 231.04 2304.07 231.43
  A 1.28 1.28 0.0 0 0 2305.33 230.95
  Q 2305.73 230.44 2306.34 230.40
  Q 2308.47 230.24 2310.40 230.37
  A 0.87 0.86 -87.1 0 0 2311.32 229.53
  L 2311.67 218.63
  Q 2311.69 218.11 2312.08 217.77
  L 2313.40 216.63
  Q 2313.94 216.17 2313.24 216.07
  Q 2312.30 215.94 2312.05 216.72
  Q 2311.84 217.34 2311.38 216.88
  L 2310.73 216.23
  Q 2310.29 215.79 2310.88 215.60
  C 2312.49 215.09 2313.67 215.86 2315.20 215.85
  Q 2319.96 215.83 2325.03 215.57
  Q 2325.59 215.54 2325.62 214.98
  C 2325.90 210.81 2325.68 206.47 2326.14 202.25
  Q 2326.35 200.34 2326.19 198.23
  Q 2325.86 193.79 2326.53 189.42
  C 2326.80 187.68 2325.24 186.47 2323.58 186.66
  Q 2317.41 187.34 2312.14 186.58
  Q 2311.56 186.50 2311.58 187.08
  Q 2311.79 195.70 2311.12 204.10
  C 2310.94 206.33 2309.43 208.32 2309.38 210.88
  Q 2309.37 211.39 2308.98 211.72
  Z
  M 2183.42 203.68
  Q 2182.77 203.67 2182.72 204.34
  Q 2182.18 211.06 2182.54 217.69
  C 2182.67 220.13 2182.29 222.38 2181.95 224.76
  C 2181.71 226.42 2182.23 228.01 2182.75 229.55
  A 1.23 1.22 80.0 0 0 2183.94 230.39
  L 2195.80 230.07
  Q 2196.40 230.05 2196.40 229.45
  L 2196.47 216.57
  Q 2196.47 216.08 2196.61 215.62
  Q 2196.89 214.67 2196.88 213.68
  Q 2196.83 208.19 2196.88 203.06
  Q 2196.88 202.37 2196.20 202.28
  Q 2195.46 202.18 2194.89 201.72
  Q 2194.48 201.39 2193.96 201.39
  L 2187.80 201.39
  Q 2187.34 201.39 2186.96 201.64
  Q 2185.98 202.30 2184.78 202.12
  Q 2184.24 202.04 2183.93 202.50
  Q 2183.78 202.73 2183.88 203.00
  Q 2184.13 203.68 2183.42 203.68
  Z"
/>
<path fill="#000000" d="
  M 1910.14 301.56
  A 0.34 0.34 0.0 0 0 1909.62 301.85
  Q 1909.43 314.30 1909.52 327.66
  C 1909.53 328.81 1909.83 329.92 1909.37 331.02
  Q 1909.19 331.46 1908.75 331.28
  Q 1908.56 331.21 1908.37 331.01
  Q 1908.17 330.81 1907.89 330.81
  L 1896.50 330.76
  Q 1896.27 330.76 1896.10 330.59
  L 1895.90 330.39
  A 0.46 0.46 0.0 0 0 1895.11 330.72
  L 1895.18 357.25
  Q 1895.18 359.78 1892.67 359.49
  Q 1890.48 359.23 1888.23 359.44
  Q 1884.60 359.78 1881.43 359.41
  Q 1880.95 359.36 1880.95 359.84
  L 1880.97 387.77
  A 0.57 0.57 0.0 0 1 1880.16 388.29
  Q 1879.86 388.15 1879.56 388.01
  Q 1879.26 387.87 1878.90 387.87
  Q 1873.64 387.87 1868.39 387.88
  A 1.74 1.74 0.0 0 0 1866.65 389.61
  L 1866.44 416.68
  A 0.42 0.41 -10.1 0 1 1866.16 417.07
  Q 1865.83 417.19 1865.61 417.00
  Q 1865.46 416.88 1865.26 416.88
  L 1853.16 416.86
  A 0.99 0.98 -0.0 0 0 1852.17 417.84
  L 1851.92 445.29
  Q 1851.92 445.74 1851.47 445.73
  L 1838.64 445.51
  Q 1837.79 445.49 1837.79 446.35
  L 1837.85 473.72
  A 0.32 0.31 -89.1 0 1 1837.53 474.04
  L 1824.28 473.92
  A 0.82 0.81 0.4 0 0 1823.46 474.72
  L 1823.35 488.67
  Q 1823.35 489.19 1822.86 489.02
  Q 1822.70 488.96 1822.66 488.77
  Q 1822.63 488.65 1822.51 488.65
  L 1810.07 488.61
  A 1.19 1.18 90.0 0 0 1808.89 489.80
  L 1808.98 516.60
  Q 1808.98 517.18 1808.40 517.17
  L 1794.97 517.14
  A 0.39 0.39 0.0 0 0 1794.58 517.53
  L 1794.49 531.13
  Q 1794.48 531.74 1793.87 531.74
  L 1780.99 531.76
  Q 1780.37 531.77 1780.37 532.38
  L 1780.37 545.55
  A 0.67 0.67 0.0 0 1 1779.70 546.22
  L 1766.67 546.14
  Q 1765.98 546.14 1765.98 546.83
  L 1765.93 559.98
  A 0.41 0.41 0.0 0 1 1765.52 560.39
  L 1752.23 560.36
  Q 1751.57 560.36 1751.57 561.02
  L 1751.56 574.25
  Q 1751.56 574.80 1751.00 574.80
  L 1737.72 574.80
  Q 1737.24 574.80 1737.24 575.28
  L 1737.29 588.54
  Q 1737.29 589.12 1736.71 589.12
  L 1694.86 589.34
  A 0.73 0.73 0.0 0 1 1694.12 588.61
  L 1694.14 575.43
  Q 1694.14 574.74 1694.82 574.74
  L 1708.10 574.74
  Q 1708.67 574.74 1708.66 574.16
  L 1708.39 561.53
  A 1.00 0.99 -68.5 0 0 1708.10 560.85
  L 1707.88 560.64
  Q 1707.65 560.40 1707.98 560.40
  L 1736.90 560.40
  A 0.43 0.42 -90.0 0 0 1737.32 559.97
  L 1737.31 546.84
  Q 1737.31 546.24 1737.91 546.24
  L 1750.73 546.22
  Q 1751.43 546.21 1751.44 545.52
  L 1751.59 532.30
  A 0.61 0.60 0.5 0 1 1752.20 531.71
  L 1765.25 531.71
  A 0.60 0.59 0.0 0 0 1765.85 531.12
  L 1766.14 503.48
  Q 1766.15 503.12 1766.52 503.12
  L 1778.52 503.18
  Q 1779.00 503.18 1779.37 503.50
  Q 1779.76 503.83 1780.11 503.43
  Q 1780.38 503.13 1780.36 502.72
  Q 1779.89 495.89 1780.90 489.46
  Q 1781.01 488.78 1781.57 489.18
  Q 1782.03 489.51 1782.39 489.01
  A 0.87 0.86 -71.9 0 1 1783.09 488.65
  L 1793.75 488.64
  Q 1794.39 488.64 1794.40 488.00
  L 1794.63 460.59
  Q 1794.63 460.07 1795.16 460.07
  L 1808.58 460.16
  A 0.33 0.32 0.0 0 0 1808.91 459.84
  Q 1808.98 448.21 1809.06 436.50
  Q 1809.07 434.84 1809.26 433.21
  Q 1809.32 432.60 1808.89 432.18
  Q 1808.74 432.03 1808.69 431.86
  Q 1808.45 431.08 1809.25 431.16
  Q 1813.40 431.54 1817.90 431.39
  Q 1820.36 431.32 1822.36 430.52
  Q 1822.89 430.31 1822.92 429.74
  Q 1823.16 423.97 1822.69 418.14
  Q 1822.54 416.25 1822.97 414.41
  Q 1823.52 412.13 1823.47 409.44
  Q 1823.45 408.06 1822.80 407.06
  Q 1821.73 405.40 1821.10 403.82
  Q 1820.92 403.36 1820.45 403.18
  C 1817.63 402.09 1812.95 402.63 1809.82 402.58
  Q 1809.28 402.58 1809.16 403.09
  C 1808.68 405.14 1809.23 407.00 1809.03 408.99
  Q 1808.69 412.50 1809.04 416.07
  A 0.73 0.73 0.0 0 1 1808.32 416.87
  L 1795.21 416.89
  Q 1794.56 416.89 1794.56 417.54
  L 1794.56 430.74
  A 0.30 0.29 0.0 0 1 1794.26 431.03
  L 1780.40 431.07
  A 0.49 0.49 0.0 0 0 1779.92 431.64
  Q 1779.95 431.81 1780.08 432.07
  Q 1780.18 432.26 1780.17 432.47
  Q 1780.14 438.48 1780.23 444.60
  Q 1780.25 445.84 1779.02 445.74
  Q 1773.98 445.32 1770.13 445.49
  A 43.30 5.42 5.8 0 1 1764.63 445.62
  Q 1758.34 445.64 1752.13 445.74
  Q 1751.35 445.75 1751.43 446.52
  L 1752.13 453.10
  A 1.24 1.12 55.1 0 1 1752.06 453.65
  Q 1750.92 456.65 1751.74 459.18
  Q 1751.98 459.90 1751.22 459.91
  L 1723.88 460.06
  Q 1723.06 460.06 1723.03 460.88
  L 1722.51 473.61
  Q 1722.48 474.20 1721.89 474.20
  L 1594.36 474.21
  Q 1593.64 474.21 1593.80 473.52
  Q 1593.97 472.79 1594.16 472.06
  Q 1594.36 471.26 1594.28 470.48
  Q 1594.03 468.03 1593.81 465.27
  Q 1593.76 464.69 1593.60 464.15
  Q 1593.24 462.98 1594.06 461.85
  A 0.82 0.81 21.3 0 0 1593.49 460.56
  C 1592.26 460.41 1591.03 460.09 1589.77 460.08
  Q 1577.59 459.92 1565.36 459.91
  Q 1564.75 459.91 1564.94 459.33
  Q 1565.27 458.26 1565.50 457.07
  Q 1565.69 456.08 1565.66 455.08
  Q 1565.53 451.28 1565.45 447.15
  Q 1565.43 446.21 1564.57 445.83
  Q 1563.36 445.29 1561.88 445.24
  Q 1556.70 445.05 1551.63 445.15
  Q 1550.90 445.17 1550.89 444.43
  L 1550.76 431.98
  A 1.46 1.46 0.0 0 0 1548.56 430.73
  Q 1547.85 431.14 1547.03 431.14
  Q 1542.04 431.12 1536.79 431.13
  A 0.64 0.64 0.0 0 1 1536.15 430.49
  L 1536.18 388.33
  Q 1536.18 387.72 1535.57 387.63
  C 1534.33 387.46 1533.31 387.97 1532.07 387.83
  Q 1527.79 387.35 1523.42 387.93
  Q 1522.90 388.00 1522.82 388.53
  Q 1522.79 388.71 1522.70 388.83
  Q 1522.13 389.60 1522.13 388.64
  Q 1522.07 367.48 1522.13 345.36
  Q 1522.13 344.84 1522.64 344.91
  Q 1529.32 345.85 1535.48 345.02
  Q 1536.15 344.93 1536.15 344.26
  L 1536.17 289.29
  A 1.31 1.31 0.0 0 1 1537.46 287.98
  L 1549.70 287.81
  Q 1550.19 287.80 1550.20 287.30
  L 1550.84 260.06
  Q 1550.87 258.98 1551.94 258.98
  L 1564.26 258.98
  Q 1565.00 258.98 1565.00 258.24
  L 1565.06 245.06
  Q 1565.06 244.63 1565.34 244.30
  Q 1565.69 243.87 1565.30 243.49
  A 0.57 0.54 -70.0 0 1 1565.14 243.12
  L 1565.07 230.52
  A 0.30 0.30 0.0 0 1 1565.38 230.22
  Q 1572.31 230.35 1577.82 230.22
  Q 1578.26 230.21 1578.48 230.63
  Q 1578.74 231.15 1578.96 230.62
  Q 1579.23 229.97 1579.20 229.27
  Q 1578.92 222.97 1579.35 216.75
  Q 1579.39 216.12 1580.02 216.11
  L 1593.02 215.85
  Q 1593.64 215.84 1593.65 215.22
  L 1593.76 204.01
  Q 1593.78 201.55 1596.24 201.54
  L 1607.31 201.45
  Q 1607.98 201.45 1607.97 200.77
  Q 1607.84 194.19 1608.39 187.97
  Q 1608.44 187.44 1608.97 187.43
  L 1621.46 187.17
  A 0.96 0.96 0.0 0 0 1622.40 186.16
  Q 1622.12 180.28 1622.67 174.49
  Q 1622.78 173.39 1623.88 173.27
  Q 1630.30 172.55 1636.37 172.90
  A 0.63 0.63 0.0 0 0 1637.03 172.22
  Q 1636.43 165.15 1636.91 158.87
  Q 1636.95 158.34 1637.48 158.34
  L 1651.25 158.30
  A 0.54 0.53 67.3 0 0 1651.62 157.38
  L 1651.40 157.16
  Q 1651.12 156.88 1651.12 156.49
  L 1651.12 145.00
  Q 1651.12 144.12 1652.00 144.12
  L 1663.75 144.12
  A 1.21 0.85 -25.2 0 1 1664.15 144.19
  Q 1664.32 144.25 1664.43 144.40
  Q 1664.79 144.90 1664.95 144.31
  Q 1664.98 144.20 1665.02 144.07
  Q 1665.02 144.06 1665.04 144.06
  L 1679.42 144.17
  A 0.84 0.83 25.0 0 0 1679.95 143.98
  Q 1680.61 143.43 1680.29 143.27
  Q 1680.05 143.15 1680.05 142.88
  L 1680.04 130.29
  Q 1680.04 129.87 1680.46 129.86
  L 1708.15 129.62
  A 0.50 0.49 88.3 0 0 1708.64 129.09
  Q 1708.30 122.99 1708.51 116.76
  Q 1708.52 116.49 1708.38 116.25
  Q 1708.24 116.02 1708.06 115.82
  Q 1707.62 115.35 1708.27 115.34
  L 1751.22 115.15
  Q 1751.79 115.15 1751.75 114.58
  Q 1751.38 108.82 1751.70 102.88
  Q 1751.72 102.43 1751.47 102.05
  Q 1751.38 101.92 1751.36 101.77
  Q 1751.26 101.03 1752.01 101.03
  L 1894.55 101.08
  A 0.63 0.63 0.0 0 0 1895.18 100.45
  L 1895.17 87.24
  Q 1895.17 86.65 1895.76 86.64
  L 1908.90 86.44
  Q 1909.73 86.43 1909.72 85.60
  L 1909.55 72.73
  Q 1909.54 72.25 1910.02 72.25
  L 1937.74 72.23
  Q 1938.22 72.23 1938.55 72.58
  Q 1938.76 72.81 1939.02 72.62
  Q 1939.34 72.37 1939.74 72.37
  L 1952.04 72.37
  A 0.63 0.63 0.0 0 1 1952.66 73.10
  C 1952.41 74.73 1952.27 76.38 1952.39 78.02
  Q 1952.68 82.12 1952.60 86.08
  Q 1952.58 86.66 1952.00 86.66
  L 1938.73 86.59
  Q 1938.30 86.58 1938.30 87.02
  L 1938.30 100.76
  A 0.36 0.35 0.0 0 1 1937.94 101.11
  L 1924.75 101.09
  A 0.78 0.78 0.0 0 0 1923.97 101.87
  L 1924.05 157.05
  Q 1924.05 157.56 1923.80 158.00
  Q 1923.57 158.40 1923.72 158.82
  Q 1923.87 159.24 1923.87 159.67
  Q 1923.87 165.63 1923.89 172.13
  Q 1923.89 172.66 1923.36 172.66
  Q 1918.54 172.62 1913.51 172.62
  C 1912.37 172.62 1911.52 173.22 1910.45 172.45
  A 0.57 0.56 18.4 0 0 1909.55 172.90
  L 1909.46 186.55
  Q 1909.45 187.06 1908.95 187.06
  L 1895.67 187.02
  A 0.55 0.55 0.0 0 0 1895.12 187.57
  L 1895.13 200.78
  A 0.66 0.66 0.0 0 1 1894.47 201.45
  L 1881.63 201.39
  A 0.60 0.60 0.0 0 0 1881.02 201.99
  L 1880.95 229.64
  Q 1880.95 230.23 1880.36 230.23
  L 1866.73 230.22
  Q 1866.14 230.22 1866.24 229.64
  Q 1866.43 228.62 1866.43 227.87
  Q 1866.27 179.50 1866.64 132.14
  Q 1866.65 130.99 1867.00 129.89
  Q 1867.29 129.00 1867.23 127.99
  Q 1866.85 121.90 1866.30 116.31
  Q 1866.21 115.32 1865.21 115.32
  L 1795.58 115.28
  Q 1795.00 115.28 1794.96 115.86
  Q 1794.56 121.39 1794.62 127.23
  Q 1794.62 128.10 1795.14 128.75
  Q 1795.79 129.58 1794.74 129.58
  L 1751.96 129.71
  Q 1751.38 129.71 1751.38 130.29
  L 1751.38 143.56
  A 0.57 0.57 0.0 0 1 1750.81 144.13
  L 1739.73 144.13
  Q 1739.16 144.13 1738.66 143.85
  Q 1738.04 143.51 1737.38 143.78
  Q 1736.87 143.99 1736.34 144.00
  Q 1722.00 144.17 1709.13 144.16
  A 0.67 0.67 0.0 0 0 1708.46 144.83
  L 1708.56 157.44
  A 0.75 0.75 0.0 0 1 1707.81 158.19
  L 1694.55 158.27
  Q 1694.11 158.27 1694.10 158.71
  L 1693.99 172.24
  A 0.47 0.47 0.0 0 1 1693.52 172.71
  L 1680.23 172.69
  Q 1679.64 172.68 1679.64 173.27
  L 1679.68 186.07
  Q 1679.68 187.13 1678.62 187.13
  Q 1672.37 187.11 1665.99 187.12
  Q 1665.99 187.12 1665.98 187.12
  Q 1658.48 187.25 1651.61 187.28
  Q 1651.16 187.28 1651.16 187.72
  L 1651.17 200.71
  Q 1651.17 201.35 1650.53 201.35
  L 1637.35 201.37
  Q 1636.81 201.37 1636.81 201.90
  L 1636.73 214.97
  Q 1636.73 215.79 1635.91 215.79
  L 1622.76 215.79
  A 0.45 0.44 -90.0 0 0 1622.32 216.24
  L 1622.33 229.75
  A 0.59 0.58 90.0 0 1 1621.75 230.34
  L 1608.68 230.33
  Q 1608.19 230.32 1608.18 230.82
  L 1607.81 258.42
  Q 1607.81 258.90 1607.33 258.90
  L 1594.45 258.83
  A 0.73 0.73 0.0 0 0 1593.72 259.55
  L 1593.68 272.56
  Q 1593.68 273.19 1593.05 273.23
  Q 1586.42 273.58 1580.02 273.17
  Q 1579.42 273.13 1579.41 273.74
  L 1579.10 301.54
  Q 1579.09 301.88 1578.89 302.14
  Q 1578.59 302.52 1578.25 302.13
  A 0.73 0.73 0.0 0 0 1577.69 301.87
  L 1565.96 301.87
  Q 1565.05 301.87 1565.05 302.79
  L 1565.04 388.20
  A 0.37 0.36 -83.0 0 0 1565.31 388.56
  Q 1566.17 388.81 1566.82 388.40
  Q 1567.21 388.15 1567.66 388.15
  L 1578.62 388.16
  Q 1579.08 388.16 1579.08 388.62
  L 1579.30 416.84
  A 0.23 0.23 0.0 0 0 1579.54 417.07
  L 1593.01 416.98
  Q 1593.55 416.97 1593.56 417.51
  L 1593.65 430.77
  A 0.37 0.37 0.0 0 0 1594.02 431.14
  L 1620.99 431.21
  Q 1622.05 431.22 1622.10 432.27
  Q 1622.40 438.62 1621.70 445.03
  Q 1621.64 445.64 1622.25 445.64
  L 1722.44 445.56
  Q 1722.94 445.56 1722.94 445.06
  L 1722.86 431.84
  Q 1722.85 431.27 1723.42 431.27
  Q 1735.11 431.15 1746.18 431.18
  Q 1748.63 431.18 1751.09 430.80
  A 0.49 0.49 0.0 0 0 1751.49 430.33
  L 1751.58 417.94
  Q 1751.59 417.23 1752.30 417.21
  L 1765.56 416.96
  A 0.54 0.54 0.0 0 0 1766.09 416.42
  L 1766.07 403.17
  Q 1766.07 402.65 1766.59 402.65
  L 1793.91 402.39
  Q 1794.45 402.38 1794.45 401.84
  L 1794.44 388.52
  Q 1794.44 387.98 1794.98 387.98
  L 1808.09 388.01
  A 0.85 0.85 0.0 0 0 1808.94 387.16
  L 1808.95 374.28
  A 0.53 0.53 0.0 0 1 1809.48 373.75
  L 1822.82 373.74
  A 0.56 0.56 0.0 0 0 1823.38 373.18
  L 1823.36 360.03
  Q 1823.36 359.43 1823.96 359.43
  L 1836.97 359.43
  Q 1837.87 359.43 1837.86 358.53
  L 1837.82 345.19
  A 0.25 0.24 90.0 0 1 1838.06 344.94
  L 1851.49 344.92
  A 0.41 0.41 0.0 0 0 1851.90 344.51
  L 1852.18 317.46
  A 1.03 1.03 0.0 0 0 1851.16 316.42
  Q 1811.13 316.15 1770.29 316.69
  Q 1768.40 316.71 1766.50 316.83
  Q 1765.89 316.87 1765.89 317.48
  L 1765.89 319.08
  Q 1765.88 319.71 1765.34 320.02
  Q 1764.60 320.44 1764.23 321.20
  A 0.86 0.85 -51.6 0 0 1764.33 322.11
  Q 1765.11 323.04 1764.87 324.30
  Q 1764.77 324.81 1765.06 325.25
  L 1765.68 326.18
  Q 1765.96 326.60 1765.88 327.09
  Q 1765.61 328.87 1766.48 330.22
  Q 1766.81 330.73 1766.20 330.73
  L 1752.98 330.81
  A 1.61 1.61 0.0 0 1 1751.36 329.08
  Q 1751.47 327.76 1750.60 326.81
  A 0.42 0.42 0.0 0 1 1750.93 326.11
  Q 1754.43 326.28 1758.36 325.55
  A 0.87 0.86 -2.3 0 0 1759.06 324.80
  L 1759.09 324.53
  A 0.41 0.41 0.0 0 0 1758.62 324.08
  Q 1756.20 324.46 1753.95 323.74
  Q 1753.40 323.57 1753.62 323.03
  Q 1753.90 322.34 1754.50 321.91
  Q 1754.98 321.57 1754.68 321.06
  Q 1754.02 319.94 1752.75 320.14
  Q 1752.19 320.23 1751.77 319.85
  L 1749.42 317.74
  Q 1749.13 317.47 1749.49 317.31
  Q 1749.74 317.20 1749.52 316.97
  Q 1749.40 316.85 1749.23 316.84
  Q 1735.94 316.20 1723.63 316.51
  A 0.73 0.73 0.0 0 1 1722.88 315.78
  L 1722.87 302.47
  A 1.31 1.30 22.9 0 0 1722.50 301.56
  Q 1721.68 300.71 1721.61 301.35
  Q 1721.57 301.72 1721.20 301.73
  L 1709.88 301.99
  A 0.27 0.24 22.0 0 0 1709.71 302.05
  Q 1709.55 302.17 1709.38 302.21
  Q 1708.39 302.43 1708.40 301.42
  L 1708.47 288.45
  A 0.58 0.57 -89.5 0 1 1709.05 287.87
  L 1722.17 287.96
  Q 1722.50 287.96 1722.79 287.80
  Q 1722.98 287.69 1723.21 287.69
  Q 1803.31 287.86 1880.18 287.69
  A 0.70 0.70 0.0 0 0 1880.88 286.99
  L 1880.92 273.92
  Q 1880.92 273.26 1881.58 273.26
  L 1937.48 273.36
  Q 1938.09 273.37 1938.09 273.98
  L 1938.06 287.22
  A 0.62 0.61 2.2 0 1 1937.39 287.83
  Q 1931.35 287.34 1925.01 287.91
  A 1.09 1.09 0.0 0 0 1924.02 288.97
  L 1923.77 301.18
  Q 1923.76 301.78 1923.16 301.78
  Q 1917.00 301.77 1911.04 301.82
  Q 1910.57 301.82 1910.14 301.56
  Z
  M 1866.4031 302.5354
  A 0.63 0.63 0.0 0 0 1865.7753 301.9032
  L 1852.4954 301.8569
  A 0.63 0.63 0.0 0 0 1851.8632 302.4847
  L 1851.8169 315.7446
  A 0.63 0.63 0.0 0 0 1852.4447 316.3768
  L 1865.7246 316.4231
  A 0.63 0.63 0.0 0 0 1866.3568 315.7953
  L 1866.4031 302.5354
  Z"
/>
<path fill="#000000" d="
  M 171.38 301.84
  L 158.18 301.97
  Q 157.82 301.98 157.81 301.61
  L 157.75 288.39
  A 0.61 0.60 -0.0 0 0 157.14 287.79
  L 144.22 287.82
  Q 143.64 287.83 143.64 287.24
  L 143.62 273.97
  A 0.66 0.66 0.0 0 0 142.97 273.31
  L 129.54 273.24
  A 0.33 0.32 0.9 0 1 129.22 272.92
  L 129.13 244.81
  Q 129.13 244.30 128.63 244.36
  Q 123.76 244.88 119.01 244.71
  Q 118.00 244.67 116.99 244.84
  Q 116.45 244.93 116.05 245.31
  Q 115.81 245.55 115.48 245.57
  Q 114.77 245.61 114.77 244.90
  L 114.81 173.39
  Q 114.82 173.08 115.12 173.08
  L 128.63 172.95
  Q 129.21 172.94 129.21 172.37
  L 129.22 158.75
  Q 129.22 158.23 129.75 158.23
  L 142.80 158.23
  A 0.79 0.78 0.0 0 0 143.59 157.45
  L 143.62 144.71
  Q 143.62 144.03 144.29 144.04
  L 156.99 144.12
  A 0.87 0.86 -89.3 0 0 157.86 143.26
  L 157.92 130.43
  A 0.65 0.64 0.0 0 1 158.57 129.79
  L 171.39 129.76
  A 0.78 0.78 0.0 0 0 172.17 128.98
  L 172.15 116.02
  Q 172.15 115.43 172.74 115.43
  L 213.96 115.07
  Q 215.22 115.06 215.23 113.80
  L 215.34 102.89
  Q 215.35 102.38 215.03 101.99
  Q 214.79 101.70 215.00 101.45
  Q 215.26 101.13 215.68 101.12
  L 257.87 100.90
  Q 258.40 100.89 258.39 100.37
  L 258.38 89.17
  Q 258.37 88.63 258.13 88.15
  Q 258.04 87.97 258.01 87.78
  A 1.01 1.00 85.6 0 1 259.00 86.62
  L 315.26 86.58
  A 1.09 1.08 -0.3 0 0 316.35 85.49
  L 316.35 74.24
  Q 316.35 73.70 316.08 73.24
  Q 315.99 73.09 315.92 72.96
  Q 315.63 72.38 316.28 72.38
  L 344.46 72.33
  Q 344.94 72.33 344.82 72.80
  Q 344.62 73.52 344.58 74.20
  Q 344.27 79.71 344.54 85.51
  A 1.17 1.16 -1.3 0 0 345.71 86.62
  Q 351.45 86.63 357.47 86.62
  Q 357.88 86.62 358.27 86.50
  Q 358.77 86.34 359.04 86.79
  Q 359.36 87.29 359.92 87.11
  Q 360.07 87.06 360.17 86.94
  Q 360.42 86.62 360.82 86.62
  L 372.72 86.62
  A 0.61 0.61 0.0 0 1 373.33 87.22
  L 373.57 114.99
  Q 373.57 115.44 374.01 115.43
  L 385.53 115.39
  Q 386.11 115.39 386.52 114.98
  L 386.84 114.65
  A 0.40 0.40 0.0 0 1 387.53 114.93
  L 387.48 129.81
  Q 387.47 130.72 386.83 130.08
  L 386.62 129.88
  Q 386.26 129.52 385.75 129.53
  L 374.04 129.66
  Q 373.50 129.67 373.50 130.21
  L 373.50 143.35
  A 0.85 0.84 -89.7 0 1 372.65 144.20
  L 359.81 144.16
  Q 359.02 144.16 359.02 144.94
  L 359.01 157.75
  Q 359.01 158.25 358.50 158.25
  L 345.20 158.21
  Q 344.36 158.21 344.36 159.05
  L 344.40 171.91
  A 0.68 0.68 0.0 0 1 343.72 172.60
  L 302.28 172.85
  Q 301.44 172.86 301.44 172.02
  L 301.43 158.98
  Q 301.43 158.40 302.02 158.39
  L 315.45 158.35
  A 0.68 0.67 -1.6 0 0 316.12 157.65
  Q 315.84 150.97 316.43 144.59
  Q 316.48 144.11 316.96 144.11
  Q 324.74 144.07 329.13 144.16
  Q 329.79 144.17 329.86 144.86
  Q 329.92 145.35 330.33 145.07
  Q 330.50 144.96 330.60 144.79
  Q 330.75 144.56 331.01 144.53
  L 343.19 143.30
  Q 343.65 143.26 343.64 142.80
  Q 343.63 142.62 343.54 142.45
  Q 343.38 142.16 343.61 141.93
  Q 343.99 141.55 343.75 141.05
  Q 343.58 140.70 343.56 140.30
  L 343.33 135.62
  Q 343.30 135.16 342.88 134.98
  L 342.48 134.81
  Q 342.16 134.68 342.16 134.33
  Q 342.18 131.49 342.12 128.60
  C 342.08 126.93 342.79 125.64 342.43 123.90
  Q 342.32 123.43 342.80 123.30
  Q 344.20 122.93 343.79 120.97
  Q 343.58 119.97 343.37 120.97
  Q 343.35 121.07 343.39 121.17
  Q 343.56 121.62 343.08 121.75
  Q 342.45 121.91 342.39 122.58
  A 0.03 0.02 -44.7 0 1 342.34 122.58
  Q 342.31 121.69 342.91 121.01
  Q 343.25 120.62 342.98 120.18
  L 341.36 117.46
  Q 341.08 116.99 340.55 116.84
  Q 339.30 116.49 337.93 116.66
  Q 337.04 116.78 336.76 115.97
  Q 336.73 115.88 336.63 115.84
  Q 336.16 115.61 335.64 115.61
  Q 320.23 115.59 304.73 115.63
  Q 304.14 115.63 303.70 116.03
  Q 302.25 117.34 302.47 119.43
  Q 302.52 119.91 302.31 120.30
  Q 302.00 120.89 302.63 120.68
  Q 302.77 120.64 302.88 120.53
  Q 302.98 120.45 302.93 120.33
  Q 302.35 119.01 303.18 117.64
  Q 303.86 116.51 303.81 117.83
  Q 303.72 120.02 302.99 121.84
  Q 302.53 122.98 302.27 124.18
  Q 301.84 126.23 300.09 126.39
  Q 299.29 126.47 299.70 127.16
  Q 300.05 127.75 300.75 127.89
  Q 301.34 128.01 301.14 128.58
  Q 301.07 128.77 300.91 128.91
  Q 300.77 129.02 300.53 129.04
  Q 298.99 129.18 297.43 129.06
  Q 296.86 129.01 296.50 129.41
  Q 296.27 129.66 295.93 129.67
  L 244.44 129.82
  Q 243.96 129.82 243.96 130.31
  L 244.14 143.56
  Q 244.14 144.14 243.57 144.14
  L 215.78 144.21
  Q 214.52 144.21 214.77 145.45
  Q 215.23 147.69 215.42 149.65
  C 215.69 152.42 214.95 154.83 215.18 157.47
  Q 215.23 158.14 214.56 158.15
  L 187.33 158.40
  Q 186.57 158.41 186.59 159.17
  L 186.83 172.23
  Q 186.84 172.79 186.27 172.79
  L 172.52 172.81
  Q 172.11 172.81 172.11 173.23
  L 172.15 186.31
  Q 172.15 187.01 171.44 187.01
  L 158.85 186.95
  Q 157.90 186.95 157.90 187.90
  L 157.83 200.46
  Q 157.83 201.11 157.18 201.12
  L 151.07 201.24
  A 1.18 1.16 61.7 0 1 150.36 201.02
  Q 149.48 200.37 148.34 200.60
  Q 146.99 200.88 145.69 200.62
  Q 144.45 200.36 144.32 201.63
  C 143.90 205.95 143.40 209.92 143.48 214.24
  Q 143.78 229.63 143.58 244.23
  Q 143.57 245.09 144.37 244.79
  Q 144.91 244.59 145.55 244.59
  Q 151.16 244.66 156.24 244.61
  Q 156.68 244.60 156.96 244.25
  Q 157.19 243.96 157.48 244.27
  Q 157.77 244.58 157.77 245.00
  L 157.90 272.68
  Q 157.90 273.25 158.48 273.24
  Q 165.06 273.18 171.27 273.23
  Q 171.53 273.23 171.68 273.01
  Q 172.19 272.24 172.20 273.17
  Q 172.34 280.27 172.28 287.17
  A 0.59 0.58 90.0 0 0 172.86 287.76
  L 186.22 287.75
  Q 186.70 287.75 186.70 288.22
  L 186.72 301.48
  A 0.51 0.50 0.0 0 0 187.23 301.98
  L 200.44 302.00
  Q 200.89 302.00 200.89 302.45
  L 200.86 315.87
  A 0.56 0.56 0.0 0 0 201.43 316.43
  L 214.66 316.33
  Q 215.25 316.33 215.25 316.91
  L 215.20 330.51
  A 0.55 0.54 0.5 0 0 215.75 331.06
  L 229.21 330.93
  A 0.53 0.53 0.0 0 1 229.74 331.46
  L 229.89 358.52
  A 0.88 0.87 0.0 0 0 230.77 359.39
  L 243.54 359.35
  Q 243.99 359.35 243.99 359.79
  L 244.00 373.57
  Q 244.00 374.14 244.57 374.13
  L 257.80 373.95
  Q 258.41 373.94 258.41 374.55
  L 258.38 430.70
  A 0.33 0.33 0.0 0 1 258.05 431.03
  L 244.50 431.01
  Q 244.01 431.01 244.01 431.50
  L 243.97 445.06
  A 0.53 0.53 0.0 0 1 243.44 445.59
  L 230.27 445.59
  Q 229.64 445.59 229.64 446.23
  L 229.72 459.32
  Q 229.73 459.86 229.19 459.86
  Q 166.70 460.39 101.00 459.83
  Q 100.49 459.82 100.53 459.32
  Q 101.12 452.40 100.80 446.13
  Q 100.78 445.58 100.23 445.58
  L 86.53 445.60
  A 0.39 0.38 0.0 0 1 86.14 445.22
  L 86.13 431.97
  A 0.78 0.77 -0.0 0 0 85.35 431.20
  L 72.07 431.25
  A 0.43 0.43 0.0 0 1 71.64 430.82
  L 71.63 417.73
  A 1.00 1.00 0.0 0 1 72.64 416.73
  C 116.67 417.16 159.76 417.02 200.16 416.86
  Q 200.96 416.86 200.95 416.06
  L 200.89 402.96
  Q 200.88 402.55 201.29 402.55
  L 214.93 402.53
  A 0.46 0.46 0.0 0 0 215.39 402.07
  L 215.36 387.88
  Q 215.36 387.52 215.72 387.60
  Q 215.87 387.63 215.94 387.81
  Q 216.05 388.07 216.32 388.08
  Q 220.23 388.20 224.31 388.09
  Q 226.63 388.02 228.70 388.67
  A 0.77 0.77 0.0 0 0 229.70 387.94
  L 229.70 374.36
  Q 229.71 373.77 229.11 373.77
  L 216.64 373.91
  A 0.69 0.68 -72.8 0 0 216.10 374.20
  Q 215.90 374.48 215.67 374.34
  Q 215.31 374.15 215.31 373.74
  Q 215.35 366.78 215.30 359.94
  Q 215.30 359.74 215.22 359.55
  Q 215.12 359.35 215.05 359.15
  Q 214.88 358.72 214.54 359.04
  Q 214.18 359.39 213.75 359.39
  Q 207.75 359.36 201.51 359.40
  Q 200.82 359.40 200.82 358.70
  L 200.98 345.43
  A 0.53 0.53 0.0 0 0 200.45 344.89
  L 187.51 344.89
  Q 186.87 344.89 186.87 344.26
  L 186.83 331.36
  A 0.59 0.58 89.5 0 0 186.24 330.77
  L 173.05 330.85
  Q 172.41 330.86 172.40 330.22
  Q 172.29 323.46 172.44 316.99
  Q 172.45 316.74 172.37 316.52
  Q 172.32 316.39 172.25 316.28
  Q 172.14 316.09 172.14 315.87
  L 172.18 302.63
  Q 172.18 301.83 171.38 301.84
  Z"
/>
<path fill="#000000" d="
  M 303.00 122.78
  L 304.09 119.48
  Q 304.28 118.92 304.32 119.51
  Q 304.47 121.62 303.30 122.95
  A 0.18 0.18 0.0 0 1 303.00 122.78
  Z"
/>
<path fill="#000000" d="
  M 789.57 144.96
  L 789.58 200.46
  Q 789.58 200.99 789.05 201.00
  L 775.96 201.27
  A 0.52 0.52 0.0 0 0 775.45 201.79
  L 775.41 215.30
  Q 775.41 215.77 774.95 215.77
  L 732.27 215.80
  A 0.33 0.33 0.0 0 1 731.95 215.39
  Q 732.26 214.15 732.25 212.75
  Q 732.16 200.11 732.12 187.78
  A 0.65 0.64 0.0 0 1 732.78 187.13
  L 746.00 187.26
  A 0.78 0.77 2.0 0 0 746.78 186.54
  Q 746.81 186.12 746.53 185.77
  A 0.87 0.86 29.5 0 1 746.35 185.14
  Q 746.73 181.62 746.34 178.25
  Q 746.28 177.73 746.51 177.27
  Q 747.39 175.53 747.06 173.63
  Q 746.95 173.01 747.58 173.00
  L 760.57 172.85
  Q 760.99 172.84 761.00 172.42
  L 761.29 159.19
  Q 761.31 158.45 762.05 158.44
  L 775.05 158.31
  A 0.36 0.36 0.0 0 0 775.40 157.95
  L 775.36 144.43
  A 0.34 0.33 -0.0 0 1 775.70 144.10
  L 788.71 144.10
  A 0.86 0.86 0.0 0 1 789.57 144.96
  Z"
/>
<path fill="#000000" d="
  M 2052.47 215.14
  A 0.42 0.42 0.0 0 0 2052.86 215.73
  L 2066.69 215.76
  Q 2067.37 215.76 2067.37 216.44
  L 2067.39 229.74
  Q 2067.39 230.33 2067.98 230.33
  L 2081.25 230.19
  Q 2081.83 230.18 2081.83 230.75
  L 2081.84 244.00
  A 0.64 0.62 12.6 0 0 2082.21 244.57
  Q 2082.51 244.71 2082.81 244.58
  Q 2083.10 244.45 2083.42 244.45
  L 2096.08 244.60
  Q 2096.62 244.61 2096.46 245.12
  Q 2095.97 246.71 2096.06 248.41
  Q 2096.33 253.24 2095.88 258.09
  Q 2095.82 258.72 2096.45 258.72
  L 2109.38 258.73
  Q 2110.54 258.73 2110.54 259.88
  L 2110.55 272.24
  Q 2110.55 272.81 2110.19 273.26
  Q 2109.62 273.99 2110.09 274.65
  Q 2110.34 275.01 2110.32 275.45
  L 2110.05 282.67
  A 5.18 5.17 -88.6 0 1 2104.82 287.65
  L 2096.83 287.57
  Q 2096.23 287.56 2096.22 288.17
  L 2096.14 330.14
  A 0.88 0.87 -4.2 0 1 2095.39 331.00
  C 2094.15 331.18 2092.81 330.84 2091.56 330.95
  Q 2088.82 331.18 2088.84 328.39
  A 0.88 0.88 0.0 0 0 2088.15 327.53
  Q 2087.47 327.37 2086.98 327.88
  Q 2086.65 328.22 2086.59 328.68
  Q 2086.44 329.75 2085.80 330.50
  A 1.09 1.09 0.0 0 1 2085.01 330.89
  L 2083.27 330.94
  Q 2082.03 330.98 2082.02 332.23
  L 2081.73 373.45
  Q 2081.72 373.89 2081.28 373.89
  L 2068.08 373.86
  A 0.56 0.56 0.0 0 0 2067.52 374.42
  L 2067.31 402.02
  Q 2067.30 402.60 2066.73 402.59
  L 2053.76 402.51
  A 0.48 0.48 0.0 0 0 2053.28 402.99
  L 2053.25 416.28
  Q 2053.25 416.93 2052.60 416.93
  L 2039.46 416.87
  Q 2038.79 416.86 2038.80 417.53
  L 2038.80 430.56
  A 0.60 0.60 0.0 0 1 2038.20 431.16
  L 2024.03 431.25
  Q 2023.48 431.26 2023.56 431.80
  Q 2024.46 437.95 2024.06 444.04
  Q 2024.03 444.58 2024.42 444.96
  Q 2024.87 445.38 2024.25 445.38
  L 1953.24 445.62
  A 0.63 0.63 0.0 0 1 1952.61 444.99
  L 1952.63 433.06
  Q 1952.63 432.65 1952.82 432.30
  Q 1952.99 431.98 1952.93 431.64
  Q 1952.83 431.07 1952.25 431.07
  L 1938.54 431.02
  A 0.36 0.36 0.0 0 1 1938.18 430.66
  L 1938.12 402.55
  A 0.39 0.38 86.0 0 0 1937.69 402.17
  Q 1931.23 402.93 1925.13 402.36
  A 0.97 0.97 0.0 0 1 1924.25 401.44
  Q 1923.94 394.61 1923.93 387.37
  Q 1923.92 373.08 1924.20 359.26
  Q 1924.22 358.17 1924.99 358.94
  Q 1925.47 359.42 1926.12 359.25
  Q 1926.60 359.13 1927.06 359.30
  C 1930.16 360.45 1934.30 358.73 1937.32 360.03
  A 0.57 0.57 0.0 0 0 1938.12 359.51
  L 1938.28 316.94
  Q 1938.29 316.42 1938.81 316.43
  L 1951.83 316.58
  Q 1952.68 316.59 1952.65 315.74
  Q 1952.46 310.65 1952.61 306.01
  Q 1952.76 301.75 1952.73 297.46
  Q 1952.70 293.32 1952.98 288.96
  A 1.92 1.92 0.0 0 1 1954.68 287.17
  Q 1955.55 287.08 1956.16 287.56
  Q 1956.54 287.87 1957.03 287.87
  L 1966.30 287.87
  A 0.67 0.66 -90.0 0 0 1966.96 287.20
  L 1966.94 273.60
  Q 1966.94 273.00 1966.35 273.02
  L 1954.06 273.45
  Q 1952.87 273.49 1952.87 272.30
  L 1952.87 244.98
  Q 1952.87 244.33 1953.52 244.35
  L 1966.37 244.66
  Q 1966.91 244.68 1966.91 244.14
  L 1967.09 216.46
  A 0.58 0.58 0.0 0 1 1967.67 215.88
  L 1980.51 215.89
  A 0.65 0.65 0.0 0 0 1981.16 215.25
  L 1981.21 202.01
  Q 1981.21 201.47 1981.75 201.47
  L 2052.49 201.35
  Q 2053.13 201.35 2053.13 201.99
  L 2053.12 214.17
  Q 2053.12 214.52 2052.83 214.72
  Q 2052.59 214.88 2052.47 215.14
  Z
  M 2024.83 233.67
  Q 2025.45 232.61 2025.11 231.53
  A 0.88 0.86 -0.5 0 0 2024.52 230.96
  Q 2022.52 230.38 2020.81 230.35
  Q 2010.38 230.17 1996.28 230.31
  Q 1995.77 230.31 1995.76 230.83
  L 1995.66 244.00
  A 0.62 0.61 9.9 0 1 1994.84 244.57
  Q 1993.82 244.22 1992.76 244.33
  Q 1987.07 244.95 1981.93 244.22
  A 0.53 0.53 0.0 0 0 1981.33 244.75
  L 1981.28 272.77
  Q 1981.28 273.26 1981.77 273.26
  L 1995.25 273.26
  Q 1995.75 273.26 1995.75 272.75
  L 1995.70 259.33
  Q 1995.70 259.11 1995.92 259.11
  L 2023.85 258.62
  A 0.53 0.53 0.0 0 0 2024.37 258.05
  Q 2023.72 247.11 2025.08 236.54
  Q 2025.16 235.96 2024.90 235.44
  Q 2024.68 234.99 2024.64 234.50
  Q 2024.60 234.06 2024.83 233.67
  Z
  M 2039.19 359.34
  Q 2039.24 359.44 2039.34 359.50
  Q 2039.76 359.79 2040.26 359.78
  Q 2046.51 359.73 2052.58 359.57
  A 0.60 0.60 0.0 0 0 2053.16 358.97
  L 2053.40 288.56
  A 0.83 0.82 -0.0 0 0 2052.56 287.73
  L 2025.04 287.82
  Q 2024.41 287.83 2024.41 288.46
  L 2024.21 315.26
  Q 2024.21 315.73 2023.98 316.15
  Q 2023.53 317.01 2023.92 317.95
  Q 2024.13 318.45 2024.13 318.98
  L 2024.13 330.00
  A 0.88 0.88 0.0 0 1 2023.25 330.88
  L 1997.49 330.88
  Q 1997.10 330.88 1996.84 330.59
  Q 1996.58 330.31 1996.06 330.50
  A 0.70 0.69 80.7 0 0 1995.59 331.16
  L 1995.64 344.25
  Q 1995.65 344.89 1995.00 344.89
  L 1981.78 344.85
  Q 1981.16 344.85 1981.16 345.47
  L 1981.19 358.96
  Q 1981.20 359.59 1980.56 359.55
  Q 1974.30 359.14 1968.75 359.58
  A 0.87 0.84 64.2 0 1 1968.09 359.34
  L 1967.77 359.02
  Q 1967.14 358.39 1967.13 359.28
  Q 1966.96 387.43 1967.05 416.31
  Q 1967.05 417.20 1967.75 417.76
  Q 1968.06 418.00 1968.04 417.61
  Q 1968.02 417.34 1968.49 417.17
  Q 1968.75 417.08 1969.02 417.08
  L 1980.49 417.07
  Q 1981.15 417.07 1981.14 417.73
  L 1981.07 430.34
  Q 1981.07 431.10 1981.83 431.10
  L 1994.97 431.14
  Q 1995.53 431.14 1995.58 430.58
  Q 1996.12 424.14 1995.72 417.54
  A 0.57 0.57 0.0 0 1 1996.30 416.93
  Q 2000.39 416.96 2004.57 416.95
  Q 2008.96 416.94 2013.42 416.74
  Q 2018.30 416.51 2023.11 416.91
  A 0.93 0.92 2.6 0 0 2024.11 416.00
  L 2024.38 388.72
  Q 2024.39 388.08 2025.03 388.09
  L 2038.40 388.20
  A 0.29 0.29 0.0 0 0 2038.69 387.91
  Q 2038.88 373.81 2038.87 359.42
  Q 2038.87 358.75 2039.19 359.34
  Z"
/>
<path fill="#000000" d="
  M 376.78 288.50
  L 375.04 292.00
  Q 374.84 292.41 374.45 292.63
  Q 374.10 292.84 374.00 293.25
  Q 373.29 296.38 373.53 300.01
  Q 373.57 300.55 373.14 300.87
  Q 372.70 301.20 372.19 301.26
  Q 371.54 301.33 372.07 301.72
  Q 372.23 301.84 372.42 301.79
  Q 372.76 301.70 373.10 301.75
  Q 379.70 302.59 386.46 302.16
  Q 387.00 302.13 387.08 302.67
  Q 387.20 303.51 387.51 304.03
  L 387.47 315.82
  Q 387.47 316.35 386.94 316.35
  L 374.03 316.37
  Q 373.43 316.37 373.43 316.97
  L 373.47 330.20
  A 0.67 0.66 -89.6 0 1 372.80 330.87
  L 359.51 330.87
  A 0.39 0.39 0.0 0 0 359.12 331.25
  L 358.89 359.53
  A 0.47 0.46 -67.4 0 1 358.10 359.86
  L 357.92 359.68
  Q 357.59 359.34 357.11 359.34
  Q 352.03 359.34 346.97 359.36
  Q 346.53 359.36 346.12 359.16
  Q 345.62 358.93 345.31 358.89
  Q 344.56 358.81 344.56 359.56
  L 344.46 387.78
  Q 344.46 388.26 343.98 388.25
  L 331.67 388.04
  Q 331.53 388.04 331.40 387.97
  Q 331.17 387.85 331.14 387.85
  Q 330.42 387.78 330.42 388.50
  Q 330.30 411.73 330.28 430.84
  A 0.58 0.57 3.5 0 1 329.63 431.41
  Q 325.66 430.92 322.27 431.18
  Q 319.49 431.40 316.43 430.88
  A 0.48 0.47 -85.4 0 0 315.88 431.35
  Q 315.82 438.33 315.94 444.88
  Q 315.95 445.56 315.27 445.56
  L 287.76 445.59
  Q 287.18 445.59 287.19 445.01
  L 287.48 388.37
  A 0.28 0.28 0.0 0 1 287.76 388.09
  L 300.58 388.18
  Q 301.13 388.19 301.14 387.64
  Q 301.48 372.49 301.48 357.67
  Q 301.48 351.34 301.85 345.04
  Q 301.89 344.36 302.37 344.84
  Q 302.50 344.96 302.61 345.04
  A 0.65 0.60 -23.8 0 0 303.01 345.18
  L 314.96 345.16
  Q 315.53 345.16 315.50 344.60
  Q 315.30 339.70 315.57 334.72
  Q 315.83 330.02 315.84 324.87
  Q 315.87 306.23 315.88 287.59
  Q 315.88 287.39 316.03 287.25
  Q 316.39 286.95 316.56 287.39
  Q 316.64 287.60 316.85 287.70
  Q 317.06 287.81 317.28 287.81
  Q 323.90 287.90 329.61 287.87
  Q 330.25 287.87 330.25 287.23
  L 330.24 231.03
  Q 330.24 230.33 329.53 230.33
  L 316.48 230.32
  A 0.59 0.59 0.0 0 1 315.89 229.73
  L 315.90 216.31
  A 0.42 0.41 90.0 0 1 316.31 215.89
  L 358.55 215.84
  Q 359.01 215.83 359.01 216.30
  L 358.92 229.94
  A 0.30 0.30 0.0 0 0 359.22 230.24
  Q 365.93 230.38 371.67 230.10
  Q 372.21 230.08 372.91 229.90
  Q 373.33 229.79 373.33 230.23
  Q 373.62 258.81 373.18 285.10
  Q 373.15 286.76 374.37 287.86
  A 0.44 0.43 23.5 0 1 374.51 288.20
  Q 374.50 288.39 374.30 288.35
  Q 373.94 288.29 374.29 288.41
  Q 375.27 288.72 376.78 288.50
  Z"
/>
<path fill="#000000" d="
  M 1113.57 298.64
  Q 1113.63 298.79 1113.57 298.91
  Q 1113.51 299.01 1113.40 299.03
  Q 1111.34 299.34 1109.90 300.36
  Q 1109.51 300.64 1109.04 300.57
  Q 1107.75 300.37 1106.37 300.84
  Q 1105.85 301.02 1105.83 301.57
  L 1105.30 315.86
  A 0.55 0.54 -88.9 0 1 1104.76 316.39
  L 1091.80 316.36
  A 0.69 0.69 0.0 0 0 1091.11 317.06
  Q 1091.16 324.05 1091.07 330.69
  Q 1091.04 332.72 1091.09 334.75
  Q 1091.20 339.48 1091.09 344.32
  A 0.58 0.58 0.0 0 1 1090.51 344.89
  L 1077.52 344.85
  Q 1076.91 344.85 1076.90 345.47
  L 1076.84 359.36
  Q 1076.84 360.20 1076.09 359.83
  Q 1075.93 359.75 1075.82 359.62
  Q 1075.59 359.38 1075.26 359.38
  L 1063.21 359.36
  Q 1062.54 359.36 1062.53 360.04
  L 1062.37 387.72
  A 0.34 0.33 -88.3 0 1 1062.03 388.05
  L 1049.96 387.88
  Q 1049.51 387.88 1049.16 387.60
  Q 1048.93 387.41 1048.66 387.36
  A 0.52 0.52 0.0 0 0 1048.05 387.86
  L 1047.83 416.42
  Q 1047.83 416.92 1047.33 416.92
  L 1034.33 416.86
  Q 1033.77 416.86 1033.77 417.42
  L 1033.78 430.22
  Q 1033.78 430.68 1033.59 431.10
  Q 1033.31 431.70 1033.68 432.33
  A 1.40 1.37 -61.1 0 1 1033.88 433.05
  L 1033.88 444.99
  A 0.63 0.63 0.0 0 1 1033.42 445.60
  Q 1033.01 445.72 1032.63 445.56
  Q 1032.30 445.43 1031.95 445.43
  L 991.49 445.62
  Q 990.85 445.62 990.85 444.99
  L 990.88 390.07
  Q 990.88 388.53 992.41 388.37
  Q 997.59 387.83 1004.06 388.30
  A 0.82 0.82 0.0 0 0 1004.94 387.48
  L 1004.90 345.49
  Q 1004.90 345.12 1005.26 345.13
  L 1018.69 345.17
  Q 1019.21 345.17 1019.21 344.65
  Q 1019.28 318.09 1019.60 291.26
  C 1019.62 290.27 1019.21 289.40 1019.40 288.42
  Q 1019.50 287.91 1020.02 287.90
  Q 1027.06 287.66 1032.80 288.12
  A 0.86 0.85 2.5 0 0 1033.73 287.27
  L 1033.76 230.78
  A 0.49 0.48 90.0 0 0 1033.28 230.29
  L 1020.03 230.27
  A 0.74 0.74 0.0 0 1 1019.29 229.53
  L 1019.29 216.47
  A 0.61 0.61 0.0 0 1 1019.90 215.86
  L 1062.02 215.84
  Q 1062.44 215.84 1062.44 216.27
  L 1062.42 229.71
  Q 1062.42 230.26 1062.96 230.26
  L 1076.30 230.19
  Q 1076.90 230.19 1076.90 230.79
  Q 1076.83 257.99 1076.92 285.39
  Q 1076.93 288.68 1076.35 292.09
  Q 1075.66 296.17 1076.81 300.63
  A 1.69 1.68 82.6 0 0 1078.44 301.89
  L 1090.36 301.88
  A 0.73 0.73 0.0 0 0 1091.09 301.15
  L 1091.13 288.29
  Q 1091.13 287.71 1091.71 287.70
  L 1103.49 287.52
  A 1.79 1.78 -89.8 0 0 1105.25 285.76
  L 1105.45 273.94
  Q 1105.46 273.43 1105.81 273.07
  Q 1106.20 272.67 1105.81 272.18
  A 0.75 0.75 0.0 0 1 1105.66 271.73
  L 1105.56 259.60
  A 0.60 0.60 0.0 0 1 1106.15 258.99
  L 1133.60 258.67
  A 0.52 0.52 0.0 0 0 1134.11 258.15
  L 1134.12 244.92
  Q 1134.12 244.47 1134.57 244.47
  L 1147.97 244.48
  Q 1148.67 244.48 1148.67 243.78
  L 1148.59 230.85
  Q 1148.59 230.30 1149.15 230.30
  L 1191.10 230.29
  Q 1191.52 230.29 1191.52 230.71
  L 1191.61 272.59
  Q 1191.62 273.12 1191.09 273.12
  C 1186.95 273.11 1181.80 273.67 1178.04 272.67
  Q 1177.29 272.48 1177.29 273.25
  L 1177.16 301.73
  Q 1177.16 302.35 1176.56 302.20
  Q 1174.51 301.66 1172.48 301.74
  Q 1167.91 301.92 1163.61 301.67
  A 0.47 0.47 0.0 0 0 1163.12 302.14
  L 1162.91 344.78
  A 0.44 0.44 0.0 0 1 1162.43 345.22
  Q 1157.93 344.82 1152.49 345.02
  Q 1150.88 345.08 1149.33 344.65
  A 0.60 0.60 0.0 0 0 1148.57 345.23
  L 1148.55 430.40
  Q 1148.55 431.18 1149.33 431.18
  L 1176.69 431.09
  Q 1177.28 431.09 1177.28 431.69
  L 1177.28 444.93
  Q 1177.28 445.62 1176.58 445.62
  L 1163.38 445.62
  Q 1162.74 445.62 1162.76 446.26
  Q 1163.01 451.88 1162.86 458.00
  Q 1162.85 458.53 1163.10 458.99
  Q 1163.23 459.24 1163.48 459.35
  Q 1164.44 459.77 1163.39 459.80
  Q 1156.12 460.02 1148.40 459.87
  Q 1147.75 459.85 1148.06 459.28
  L 1148.34 458.77
  Q 1148.60 458.30 1148.60 457.76
  L 1148.60 446.23
  Q 1148.60 445.62 1147.98 445.62
  L 1120.73 445.63
  A 0.66 0.66 0.0 0 1 1120.07 444.98
  L 1119.86 416.80
  Q 1119.85 416.27 1119.32 416.18
  Q 1118.73 416.09 1118.21 416.40
  Q 1117.71 416.69 1117.13 416.66
  Q 1111.73 416.32 1106.16 417.12
  Q 1105.61 417.20 1105.60 416.64
  Q 1105.58 411.57 1105.72 407.00
  Q 1106.51 381.84 1105.98 359.27
  Q 1105.82 352.83 1105.86 345.43
  Q 1105.87 344.86 1106.43 344.86
  L 1117.76 344.87
  Q 1118.12 344.87 1118.33 345.18
  Q 1118.46 345.38 1118.71 345.43
  A 0.63 0.63 0.0 0 0 1119.47 344.83
  C 1119.63 337.76 1119.88 331.17 1119.80 323.72
  Q 1119.71 313.67 1120.20 303.75
  Q 1120.35 300.75 1118.92 298.86
  A 1.86 1.85 -30.9 0 0 1116.65 298.30
  Q 1115.22 298.98 1113.58 298.61
  Q 1113.55 298.61 1113.57 298.64
  Z
  M 1062.90 309.47
  Q 1063.04 312.78 1063.45 315.98
  Q 1063.51 316.50 1064.03 316.49
  L 1076.34 316.22
  Q 1076.90 316.21 1076.90 315.66
  L 1076.88 304.47
  A 4.00 4.00 0.0 0 0 1073.77 300.58
  Q 1071.35 300.02 1068.36 300.07
  Q 1067.79 300.08 1067.44 300.54
  Q 1066.14 302.25 1063.96 301.81
  A 0.90 0.90 0.0 0 0 1062.89 302.65
  Q 1062.75 305.98 1062.90 309.47
  Z"
/>
<path fill="#000000" d="
  M 473.82 316.39
  L 473.85 330.66
  L 445.67 330.95
  A 0.94 0.94 0.0 0 1 444.72 329.97
  Q 444.85 326.55 445.09 322.75
  C 445.19 321.03 444.41 319.31 445.51 317.82
  A 0.76 0.76 0.0 0 0 444.92 316.61
  Q 438.60 316.47 431.73 316.45
  Q 430.93 316.44 430.41 315.83
  Q 430.02 315.37 429.51 315.69
  Q 427.90 316.70 425.92 316.38
  Q 424.52 316.15 422.99 316.19
  Q 419.98 316.28 417.17 316.25
  Q 416.59 316.24 416.59 315.66
  Q 416.65 309.71 416.61 303.93
  Q 416.61 302.78 417.02 301.63
  C 417.44 300.48 416.72 299.58 416.72 298.45
  Q 416.73 293.71 416.57 289.25
  Q 416.53 288.18 415.47 288.04
  Q 408.54 287.13 402.93 287.75
  A 0.89 0.88 -3.0 0 0 402.14 288.61
  L 401.95 301.05
  Q 401.94 301.78 401.21 301.78
  L 388.21 301.83
  Q 387.79 301.83 387.66 302.23
  Q 387.42 302.95 387.51 304.03
  Q 387.20 303.51 387.08 302.67
  Q 387.00 302.13 386.46 302.16
  Q 379.70 302.59 373.10 301.75
  Q 372.76 301.70 372.42 301.79
  Q 372.23 301.84 372.07 301.72
  Q 371.54 301.33 372.19 301.26
  Q 372.70 301.20 373.14 300.87
  Q 373.57 300.55 373.53 300.01
  Q 373.29 296.38 374.00 293.25
  Q 374.10 292.84 374.45 292.63
  Q 374.84 292.41 375.04 292.00
  L 376.78 288.50
  L 386.97 287.85
  A 0.64 0.63 89.1 0 0 387.57 287.22
  L 387.74 274.29
  Q 387.75 273.84 388.21 273.82
  L 401.74 273.23
  Q 402.18 273.21 402.18 272.77
  L 402.10 260.09
  Q 402.09 259.02 403.16 259.00
  L 429.79 258.71
  Q 430.65 258.70 430.65 257.85
  Q 430.63 251.97 430.64 246.07
  A 76.14 4.40 88.2 0 1 430.71 237.18
  Q 430.75 234.11 430.63 230.83
  A 0.45 0.45 0.0 0 1 431.08 230.36
  Q 437.53 230.38 444.01 230.37
  Q 444.48 230.72 445.06 230.36
  A 0.88 0.83 -59.6 0 1 445.51 230.23
  L 487.47 230.17
  Q 488.03 230.17 488.04 230.72
  L 488.15 243.28
  Q 488.17 244.47 486.98 244.48
  L 475.66 244.64
  Q 475.19 244.65 474.86 244.31
  Q 474.65 244.09 474.38 244.06
  Q 473.85 244.01 473.84 244.54
  L 473.66 272.88
  A 0.48 0.48 0.0 0 1 473.07 273.34
  Q 472.93 273.31 472.83 273.20
  Q 472.71 273.07 472.54 273.08
  Q 467.37 273.31 461.96 273.18
  Q 461.10 273.15 460.41 272.81
  Q 459.53 272.37 459.53 273.35
  Q 459.62 289.26 459.36 302.36
  Q 459.34 303.36 459.18 304.52
  Q 459.03 305.65 459.09 306.50
  Q 459.44 311.36 459.81 315.49
  A 1.71 1.71 0.0 0 0 461.60 317.04
  L 473.82 316.39
  Z"
/>
<path fill="#000000" d="
  M 962.67 315.84
  A 0.90 0.86 -1.8 0 0 961.82 316.70
  Q 961.96 336.68 961.82 359.10
  Q 961.81 360.69 960.64 359.60
  Q 960.07 359.06 959.25 359.12
  C 955.60 359.40 951.94 359.08 948.28 359.40
  Q 947.71 359.45 947.71 360.02
  L 947.67 430.45
  Q 947.67 431.08 948.30 431.08
  L 961.51 431.08
  Q 961.95 431.08 961.94 431.51
  L 961.83 445.05
  A 0.59 0.59 0.0 0 1 961.24 445.63
  L 919.53 445.63
  Q 919.07 445.63 919.06 445.17
  Q 918.93 434.77 918.81 423.50
  Q 918.78 420.45 918.45 417.63
  Q 918.36 416.79 917.51 416.80
  L 904.78 416.99
  A 0.17 0.17 0.0 0 1 904.61 416.82
  Q 904.66 405.12 904.64 394.07
  Q 904.63 389.86 904.92 385.71
  C 905.17 382.22 905.46 377.28 903.87 374.02
  Q 903.41 373.06 902.34 373.11
  L 890.75 373.74
  A 0.52 0.51 88.8 0 0 890.27 374.25
  L 890.08 401.76
  A 0.80 0.80 0.0 0 1 889.20 402.56
  Q 883.92 402.07 878.24 402.61
  Q 877.36 402.69 877.00 402.13
  Q 876.74 401.72 876.29 401.90
  Q 875.71 402.13 875.71 402.74
  Q 875.66 409.40 875.69 416.25
  Q 875.69 416.84 875.11 416.84
  L 862.16 416.85
  Q 861.66 416.85 861.66 417.34
  L 861.49 430.39
  Q 861.48 431.01 860.86 431.01
  L 847.46 431.07
  A 0.64 0.64 0.0 0 0 846.84 431.85
  Q 847.00 432.57 847.00 433.24
  Q 846.97 439.15 846.93 444.67
  Q 846.93 445.57 846.02 445.57
  L 790.18 445.63
  A 0.69 0.69 0.0 0 1 789.49 444.93
  L 789.53 431.47
  Q 789.53 430.69 788.76 430.76
  Q 783.58 431.20 777.75 431.13
  Q 776.67 431.12 776.32 431.52
  Q 775.53 432.42 775.51 431.22
  Q 775.13 394.50 775.65 359.87
  Q 775.65 359.37 776.13 359.52
  Q 776.86 359.74 777.57 359.75
  Q 783.32 359.77 788.71 359.58
  A 0.87 0.86 89.7 0 0 789.55 358.72
  L 789.67 331.48
  Q 789.67 330.94 790.22 330.95
  Q 796.98 331.13 802.74 330.97
  Q 803.06 330.97 803.31 331.17
  Q 803.69 331.47 803.86 331.02
  Q 804.06 330.52 804.05 330.03
  Q 803.96 323.48 804.12 316.96
  Q 804.14 316.37 804.74 316.36
  L 818.04 316.33
  A 0.43 0.43 0.0 0 0 818.47 315.91
  L 818.73 302.40
  Q 818.74 301.78 819.35 301.78
  L 832.04 301.84
  A 0.63 0.62 -89.6 0 0 832.67 301.21
  L 832.66 288.25
  Q 832.66 287.66 833.24 287.61
  Q 833.68 287.57 833.65 286.96
  Q 833.62 286.45 833.10 286.41
  Q 832.88 286.40 832.75 286.19
  Q 832.63 286.01 832.65 285.79
  Q 833.22 280.02 832.53 274.44
  Q 832.39 273.34 833.51 273.34
  L 846.72 273.43
  A 0.40 0.39 -89.3 0 0 847.12 273.03
  L 847.09 259.61
  Q 847.09 259.06 847.64 259.06
  L 860.56 259.04
  A 1.21 1.20 89.5 0 0 861.76 257.81
  L 861.50 245.02
  A 0.32 0.32 0.0 0 1 861.68 244.72
  C 863.16 244.01 864.47 244.60 865.98 244.63
  Q 869.73 244.70 873.56 244.39
  Q 874.11 244.35 874.62 244.52
  Q 874.95 244.63 875.08 244.93
  Q 875.35 245.55 875.56 244.91
  Q 875.71 244.45 876.25 244.45
  Q 883.17 244.44 890.03 244.41
  A 0.56 0.56 0.0 0 0 890.56 244.03
  Q 890.70 243.61 890.45 243.36
  Q 890.08 243.00 890.09 242.49
  C 890.17 238.37 890.38 234.28 889.89 230.71
  Q 889.82 230.20 890.34 230.20
  L 961.55 230.28
  Q 962.07 230.28 962.06 230.80
  L 961.74 243.93
  Q 961.72 244.38 962.17 244.38
  L 974.22 244.38
  Q 974.70 244.38 975.14 244.20
  Q 975.93 243.89 976.41 244.56
  Q 976.72 244.99 977.24 244.91
  Q 977.63 244.84 977.96 244.65
  Q 978.42 244.40 978.94 244.40
  L 990.03 244.42
  A 0.61 0.61 0.0 0 1 990.64 245.03
  L 990.76 272.52
  Q 990.76 273.43 989.85 273.43
  L 962.57 273.13
  Q 962.01 273.12 962.01 272.57
  L 962.01 259.48
  Q 962.01 258.95 961.48 258.95
  L 919.01 258.82
  A 0.61 0.61 0.0 0 0 918.42 259.58
  Q 918.74 260.82 918.69 262.10
  Q 918.48 267.59 918.80 272.58
  A 0.52 0.51 88.4 0 1 918.29 273.13
  L 906.48 273.13
  Q 905.96 273.13 905.52 272.85
  Q 905.03 272.55 904.59 273.02
  A 1.05 1.01 -68.2 0 1 903.83 273.36
  L 890.81 273.37
  Q 890.24 273.37 890.24 273.94
  L 890.29 287.19
  Q 890.29 287.80 889.69 287.80
  L 876.25 287.78
  Q 875.79 287.78 875.79 288.25
  L 875.78 301.56
  A 0.35 0.35 0.0 0 1 875.43 301.91
  L 862.05 301.87
  A 0.45 0.45 0.0 0 0 861.60 302.32
  L 861.42 330.44
  Q 861.41 330.94 860.92 330.90
  Q 855.05 330.52 849.81 330.90
  Q 849.31 330.94 848.83 330.80
  Q 848.05 330.57 847.41 331.06
  A 1.05 1.03 71.7 0 0 847.00 331.89
  L 846.98 344.37
  Q 846.97 344.96 846.38 344.96
  L 833.17 344.90
  Q 832.74 344.90 832.74 345.33
  L 832.60 373.29
  Q 832.59 373.92 831.96 373.91
  L 819.00 373.77
  Q 818.52 373.77 818.52 374.24
  L 818.36 401.26
  A 1.13 1.13 0.0 0 1 817.23 402.38
  L 804.62 402.38
  Q 804.12 402.38 804.12 402.88
  L 804.12 415.87
  Q 804.12 416.74 804.99 416.74
  L 832.05 416.83
  A 0.63 0.63 0.0 0 0 832.68 416.20
  L 832.69 404.29
  A 1.57 1.56 -0.9 0 1 834.21 402.73
  L 845.42 402.32
  Q 846.87 402.27 846.93 400.83
  L 847.46 389.84
  A 1.30 1.30 0.0 0 1 848.53 388.62
  Q 853.96 387.68 860.54 388.13
  A 0.94 0.94 0.0 0 0 861.54 387.19
  L 861.53 374.42
  A 0.61 0.60 -0.5 0 1 862.14 373.81
  L 875.07 373.81
  A 0.63 0.63 0.0 0 0 875.70 373.18
  L 875.69 360.04
  Q 875.69 359.40 876.33 359.40
  L 889.52 359.40
  A 0.56 0.56 0.0 0 0 890.08 358.85
  L 890.33 331.48
  Q 890.34 330.93 890.89 330.93
  L 903.97 330.95
  A 0.69 0.68 0.4 0 0 904.66 330.28
  L 904.94 317.18
  Q 904.96 316.50 905.63 316.48
  Q 911.07 316.25 917.23 316.34
  Q 917.74 316.35 918.08 316.72
  Q 918.15 316.79 918.15 316.90
  Q 918.17 317.42 918.44 316.98
  Q 918.85 316.32 918.83 315.50
  Q 918.66 308.61 918.83 302.36
  A 0.68 0.68 0.0 0 1 919.51 301.70
  L 932.31 301.82
  A 0.88 0.87 0.0 0 0 933.20 300.94
  L 933.15 287.94
  Q 933.14 287.58 933.51 287.58
  L 975.69 287.89
  Q 976.23 287.89 976.23 288.44
  L 976.24 315.69
  A 0.68 0.68 0.0 0 1 975.57 316.37
  L 964.03 316.49
  Q 963.49 316.50 963.11 316.11
  Q 962.83 315.82 962.67 315.84
  Z"
/>
<path fill="#000000" d="
  M 1320.49 259.52
  Q 1320.55 259.52 1320.59 259.58
  Q 1320.71 259.74 1320.71 259.94
  Q 1320.73 266.42 1320.83 272.77
  A 0.47 0.46 -0.6 0 1 1320.36 273.24
  L 1307.46 273.16
  A 0.88 0.88 0.0 0 0 1306.58 274.04
  L 1306.65 287.24
  A 0.39 0.39 0.0 0 1 1306.26 287.63
  L 1293.00 287.63
  A 0.87 0.87 0.0 0 0 1292.13 288.50
  L 1292.13 301.51
  Q 1292.13 301.90 1291.74 301.90
  L 1278.54 301.84
  A 0.87 0.86 -89.7 0 0 1277.67 302.71
  L 1277.64 315.73
  A 0.60 0.59 -88.2 0 1 1277.01 316.33
  Q 1270.95 315.95 1265.89 316.37
  A 1.60 1.55 -30.9 0 1 1264.95 316.15
  Q 1264.09 315.64 1263.58 316.35
  Q 1263.18 316.92 1263.19 317.64
  Q 1263.26 323.97 1263.17 330.44
  A 0.40 0.39 0.7 0 1 1262.76 330.83
  Q 1256.62 330.64 1250.98 330.81
  Q 1250.32 330.83 1249.95 330.61
  A 0.58 0.58 0.0 0 0 1249.08 331.11
  L 1249.10 344.48
  Q 1249.10 345.06 1248.52 345.06
  L 1235.39 345.05
  Q 1234.83 345.05 1234.83 345.61
  L 1234.68 373.37
  Q 1234.67 373.91 1234.13 373.90
  L 1220.76 373.81
  Q 1220.32 373.80 1220.32 374.24
  L 1220.14 415.03
  Q 1220.14 415.60 1219.63 415.85
  Q 1219.27 416.03 1219.57 416.57
  A 0.71 0.70 -14.2 0 0 1220.19 416.93
  L 1234.03 416.95
  A 0.73 0.72 90.0 0 0 1234.75 416.22
  L 1234.78 403.29
  A 0.66 0.65 -0.4 0 1 1235.43 402.64
  L 1248.63 402.46
  A 0.60 0.59 -0.5 0 0 1249.22 401.87
  L 1249.30 389.06
  Q 1249.31 388.44 1249.93 388.41
  Q 1255.83 388.17 1261.74 388.15
  Q 1262.01 388.15 1262.26 388.24
  L 1262.81 388.44
  A 0.61 0.61 0.0 0 0 1263.62 387.81
  Q 1263.03 381.88 1263.91 376.33
  Q 1264.26 374.14 1266.66 374.10
  Q 1272.08 374.01 1277.06 373.94
  A 0.69 0.69 0.0 0 0 1277.74 373.25
  L 1277.83 360.20
  A 0.73 0.72 -89.6 0 1 1278.55 359.48
  L 1291.61 359.49
  Q 1292.21 359.49 1292.21 358.89
  L 1292.20 345.25
  Q 1292.20 344.95 1292.50 344.95
  L 1305.99 344.92
  A 0.61 0.61 0.0 0 0 1306.60 344.29
  Q 1306.37 337.39 1306.67 331.09
  Q 1306.69 330.71 1307.04 330.67
  Q 1307.85 330.56 1307.36 330.13
  L 1307.01 329.82
  Q 1306.62 329.48 1306.62 328.96
  L 1306.62 316.75
  A 0.38 0.38 0.0 0 1 1307.00 316.37
  L 1319.23 316.37
  Q 1319.38 316.37 1319.42 316.52
  Q 1319.49 316.75 1319.55 316.79
  A 0.89 0.88 -74.2 0 0 1320.91 316.02
  Q 1320.77 309.22 1321.09 302.35
  A 0.34 0.34 0.0 0 1 1321.43 302.02
  L 1334.67 302.01
  Q 1335.23 302.01 1335.23 301.45
  L 1335.23 288.20
  Q 1335.23 287.64 1335.80 287.65
  L 1377.88 287.77
  Q 1378.30 287.77 1378.31 288.20
  L 1378.32 316.01
  Q 1378.32 316.30 1378.09 316.49
  Q 1377.97 316.59 1377.98 316.73
  Q 1378.12 318.02 1378.18 330.62
  Q 1378.18 331.14 1377.67 331.04
  Q 1375.90 330.68 1374.48 330.67
  Q 1369.49 330.64 1364.37 330.50
  Q 1363.85 330.49 1363.85 331.01
  L 1363.96 359.08
  Q 1363.96 359.89 1363.15 359.82
  L 1354.98 359.09
  Q 1354.53 359.05 1354.15 359.29
  Q 1352.85 360.11 1351.54 359.51
  A 1.23 1.23 0.0 0 0 1349.80 360.62
  L 1349.71 430.65
  A 0.45 0.45 0.0 0 0 1350.15 431.10
  L 1377.64 431.35
  Q 1378.18 431.36 1378.18 431.89
  L 1378.17 445.58
  Q 1378.17 446.42 1377.57 445.82
  L 1377.38 445.64
  Q 1377.16 445.42 1376.86 445.41
  L 1365.99 445.23
  A 0.76 0.73 -19.5 0 1 1365.46 444.99
  Q 1364.97 444.45 1364.34 444.47
  Q 1363.89 444.47 1364.27 444.72
  Q 1364.49 444.86 1364.37 445.18
  A 0.63 0.62 10.0 0 1 1363.78 445.59
  L 1321.76 445.62
  Q 1320.91 445.62 1320.91 444.76
  L 1320.73 403.08
  Q 1320.73 402.32 1319.97 402.34
  Q 1314.20 402.52 1307.74 401.75
  Q 1307.26 401.69 1307.25 401.21
  Q 1307.09 393.12 1306.97 385.00
  Q 1306.96 384.25 1307.73 383.78
  C 1309.02 383.00 1310.08 380.98 1310.62 379.66
  A 0.95 0.93 -50.5 0 0 1310.54 378.77
  Q 1309.12 376.58 1306.83 377.45
  A 1.55 1.53 -16.9 0 1 1304.79 376.37
  L 1304.44 374.95
  Q 1304.29 374.31 1303.64 374.29
  L 1292.97 374.00
  Q 1292.44 373.99 1292.43 374.53
  L 1292.09 401.81
  Q 1292.08 402.46 1291.44 402.46
  L 1278.19 402.44
  A 0.38 0.38 0.0 0 0 1277.81 402.82
  L 1277.72 416.41
  A 0.38 0.37 0.0 0 1 1277.34 416.78
  L 1263.69 416.81
  A 0.37 0.36 0.0 0 0 1263.32 417.17
  L 1263.32 430.53
  A 0.60 0.60 0.0 0 1 1262.72 431.13
  L 1249.60 431.12
  Q 1249.07 431.11 1249.07 431.65
  L 1249.03 444.94
  Q 1249.03 445.65 1248.31 445.65
  L 1192.24 445.57
  Q 1191.66 445.57 1191.65 444.99
  L 1191.59 430.80
  Q 1191.59 429.77 1190.65 430.18
  C 1189.94 430.48 1189.24 430.82 1188.45 430.83
  Q 1183.32 430.88 1177.98 430.56
  Q 1177.32 430.52 1177.33 429.86
  L 1177.35 428.47
  Q 1177.35 427.94 1177.82 428.20
  L 1179.70 429.23
  A 0.89 0.89 0.0 0 0 1181.02 428.46
  L 1181.10 422.81
  Q 1181.11 422.21 1180.58 421.92
  L 1178.17 420.61
  Q 1177.72 420.36 1177.56 419.86
  Q 1177.02 418.17 1177.04 416.20
  Q 1177.25 395.65 1177.12 374.43
  A 0.66 0.66 0.0 0 1 1177.79 373.76
  L 1190.64 373.94
  Q 1191.23 373.95 1191.24 373.36
  L 1191.85 345.50
  Q 1191.85 345.10 1192.25 345.10
  L 1205.00 345.14
  A 1.15 1.14 0.0 0 0 1206.15 344.00
  L 1206.12 317.00
  Q 1206.11 316.36 1206.75 316.36
  L 1219.64 316.40
  Q 1220.06 316.40 1220.07 315.98
  L 1220.43 302.72
  Q 1220.45 302.13 1221.03 302.12
  L 1234.24 302.01
  A 0.50 0.50 0.0 0 0 1234.74 301.51
  L 1234.73 288.25
  A 0.53 0.52 90.0 0 1 1235.25 287.72
  L 1248.53 287.72
  A 0.57 0.57 0.0 0 0 1249.10 287.16
  Q 1249.15 280.54 1249.13 273.66
  Q 1249.12 272.53 1250.04 273.23
  Q 1250.36 273.48 1250.71 273.26
  Q 1250.86 273.16 1251.04 273.16
  L 1262.50 273.18
  Q 1263.19 273.18 1263.19 272.50
  L 1263.18 259.28
  A 0.54 0.54 0.0 0 1 1263.72 258.74
  L 1277.25 258.73
  A 0.48 0.48 0.0 0 0 1277.73 258.25
  L 1277.67 244.77
  A 0.31 0.31 0.0 0 1 1277.98 244.46
  L 1291.90 244.45
  A 0.64 0.64 0.0 0 0 1292.53 243.69
  C 1291.79 239.68 1292.46 234.97 1292.16 230.83
  Q 1292.12 230.20 1292.75 230.20
  L 1377.76 230.33
  Q 1378.19 230.33 1378.18 230.76
  L 1378.01 243.63
  Q 1377.99 244.52 1378.88 244.51
  L 1392.28 244.46
  Q 1392.75 244.46 1392.75 244.93
  Q 1392.79 258.17 1392.77 272.94
  A 0.74 0.74 0.0 0 1 1392.01 273.68
  Q 1391.94 273.68 1391.70 273.52
  Q 1391.47 273.37 1391.19 273.37
  L 1378.83 273.37
  Q 1378.42 273.37 1378.13 273.09
  Q 1378.01 272.98 1377.86 272.92
  Q 1377.76 272.88 1377.64 272.88
  Q 1371.55 273.12 1364.93 272.89
  Q 1364.54 272.88 1364.30 273.18
  Q 1363.87 273.71 1363.87 273.03
  Q 1363.87 266.99 1363.90 261.00
  Q 1363.90 260.30 1364.18 259.66
  Q 1364.51 258.88 1363.67 258.87
  Q 1340.34 258.87 1321.47 258.89
  Q 1320.89 258.90 1320.41 259.18
  Q 1319.91 259.48 1320.49 259.52
  Z"
/>
<path fill="#000000" d="
  M 2368.77 331.55
  Q 2369.13 331.91 2369.13 332.38
  Q 2369.16 338.30 2369.10 344.27
  Q 2369.09 344.89 2368.47 344.89
  L 2355.29 344.85
  Q 2354.68 344.85 2354.68 345.46
  L 2354.69 358.72
  A 0.66 0.65 -0.0 0 1 2354.03 359.37
  L 2340.82 359.41
  A 0.53 0.52 0.0 0 0 2340.29 359.93
  L 2340.18 387.18
  Q 2340.17 388.08 2339.27 388.04
  Q 2332.95 387.70 2327.55 388.08
  Q 2327.12 388.11 2326.91 387.74
  Q 2326.81 387.58 2326.64 387.55
  Q 2326.09 387.47 2326.09 388.03
  L 2326.02 415.96
  Q 2326.02 416.90 2326.96 416.90
  L 2353.84 416.71
  A 0.80 0.80 0.0 0 0 2354.63 415.91
  L 2354.63 403.03
  Q 2354.63 402.44 2355.22 402.44
  L 2368.45 402.45
  Q 2369.10 402.45 2369.10 401.80
  L 2369.14 388.60
  Q 2369.14 387.98 2369.77 387.98
  L 2382.33 388.02
  A 0.85 0.84 -89.3 0 0 2383.18 387.18
  Q 2383.25 380.97 2383.16 375.06
  Q 2383.15 374.68 2383.19 374.29
  Q 2383.25 373.54 2383.85 373.59
  A 0.26 0.26 0.0 0 0 2384.13 373.28
  Q 2384.08 372.96 2383.78 372.84
  Q 2383.37 372.68 2383.37 372.24
  L 2383.37 360.13
  Q 2383.37 359.53 2383.96 359.35
  Q 2384.32 359.24 2384.74 359.39
  Q 2385.24 359.57 2385.77 359.59
  Q 2390.68 359.69 2395.95 359.45
  Q 2396.28 359.44 2396.53 359.60
  Q 2396.68 359.70 2396.79 359.85
  Q 2397.08 360.24 2397.40 359.87
  L 2397.88 359.30
  Q 2398.20 358.93 2397.95 358.51
  Q 2397.82 358.28 2397.81 358.00
  Q 2397.64 352.72 2397.83 346.96
  Q 2397.85 346.57 2397.69 346.22
  Q 2397.53 345.86 2397.62 345.54
  Q 2397.75 345.08 2398.24 345.08
  L 2411.68 345.09
  A 0.37 0.36 0.0 0 0 2412.05 344.73
  L 2412.14 331.58
  Q 2412.15 330.91 2412.82 330.92
  L 2424.59 330.95
  Q 2425.09 330.95 2425.54 331.17
  Q 2425.74 331.27 2425.94 331.38
  Q 2426.24 331.56 2426.24 331.22
  L 2426.29 317.04
  Q 2426.29 316.37 2426.96 316.37
  L 2440.25 316.38
  Q 2440.68 316.38 2440.69 315.95
  L 2440.85 301.87
  A 0.50 0.49 72.5 0 1 2441.04 301.50
  L 2441.35 301.28
  Q 2441.46 301.20 2441.34 301.13
  Q 2441.08 300.99 2440.96 300.74
  Q 2440.85 300.51 2440.85 300.26
  Q 2440.85 294.64 2440.85 288.46
  Q 2440.85 287.87 2441.43 287.87
  L 2454.03 287.87
  A 1.16 1.16 0.0 0 0 2455.19 286.72
  L 2455.36 273.88
  Q 2455.37 273.37 2455.87 273.37
  L 2468.22 273.37
  Q 2468.75 273.37 2468.83 273.90
  Q 2469.72 279.90 2469.18 284.00
  Q 2468.98 285.56 2468.20 287.02
  A 0.46 0.46 0.0 0 0 2468.61 287.69
  Q 2478.59 287.63 2487.32 287.96
  Q 2494.90 288.25 2497.67 287.88
  Q 2498.21 287.80 2498.20 288.35
  Q 2498.06 301.60 2498.16 315.49
  Q 2498.16 316.18 2497.75 316.80
  A 0.15 0.14 46.8 0 1 2497.50 316.79
  Q 2497.39 316.59 2497.20 316.46
  Q 2496.99 316.31 2496.75 316.30
  Q 2490.43 315.99 2484.39 316.17
  Q 2483.79 316.18 2483.79 316.78
  L 2483.85 344.43
  Q 2483.85 344.96 2483.32 344.96
  L 2471.47 344.86
  Q 2470.93 344.85 2470.49 344.56
  Q 2470.31 344.44 2470.10 344.40
  Q 2469.44 344.29 2469.44 344.96
  L 2469.34 430.66
  Q 2469.34 431.24 2469.91 431.24
  L 2483.28 431.12
  Q 2483.95 431.11 2483.94 431.78
  L 2483.74 444.94
  Q 2483.72 445.61 2483.06 445.61
  L 2441.28 445.57
  A 0.55 0.54 0.5 0 1 2440.74 445.03
  L 2440.75 431.99
  A 1.21 1.20 -2.2 0 0 2439.45 430.79
  Q 2434.61 431.19 2429.21 430.95
  Q 2428.00 430.89 2427.05 431.41
  Q 2426.38 431.78 2426.38 431.01
  L 2426.25 374.22
  Q 2426.25 373.69 2425.72 373.69
  L 2413.64 373.74
  A 0.74 0.69 64.6 0 1 2413.16 373.55
  Q 2412.77 373.20 2412.42 373.50
  Q 2412.07 373.79 2412.07 374.25
  L 2412.12 387.18
  A 0.79 0.79 0.0 0 1 2411.32 387.98
  L 2398.35 387.83
  Q 2397.77 387.82 2397.77 388.40
  L 2397.76 401.99
  A 0.63 0.63 0.0 0 1 2397.13 402.62
  L 2384.00 402.62
  Q 2383.38 402.62 2383.38 403.24
  L 2383.37 416.25
  Q 2383.37 416.89 2382.77 417.09
  Q 2382.48 417.19 2382.76 417.43
  Q 2383.14 417.76 2383.14 418.27
  L 2383.13 430.25
  A 0.88 0.88 0.0 0 1 2382.25 431.13
  L 2370.43 431.12
  A 1.65 1.65 0.0 0 0 2368.79 432.92
  Q 2369.38 439.37 2368.97 444.83
  Q 2368.93 445.39 2368.36 445.40
  L 2356.48 445.45
  Q 2356.10 445.46 2355.77 445.30
  Q 2355.28 445.08 2354.68 445.27
  Q 2353.89 445.50 2352.99 445.51
  Q 2324.85 445.81 2297.34 445.33
  Q 2296.49 445.32 2297.10 444.72
  Q 2297.27 444.56 2297.32 444.34
  Q 2297.39 444.02 2297.38 443.68
  Q 2297.17 438.52 2297.26 433.50
  Q 2297.27 433.05 2297.45 432.27
  Q 2297.55 431.79 2297.42 431.32
  Q 2297.16 430.44 2297.16 429.54
  Q 2297.03 394.71 2297.11 359.33
  Q 2297.11 358.60 2297.65 359.11
  Q 2297.77 359.22 2297.92 359.30
  Q 2298.12 359.39 2298.33 359.40
  Q 2304.56 359.53 2310.46 359.38
  Q 2311.04 359.36 2311.06 358.77
  L 2311.81 331.52
  Q 2311.83 330.88 2312.48 330.88
  L 2325.17 330.89
  A 0.79 0.79 0.0 0 0 2325.96 330.10
  L 2325.98 316.81
  Q 2325.98 316.35 2326.44 316.35
  L 2339.52 316.39
  Q 2340.18 316.39 2340.18 315.73
  L 2340.16 302.14
  Q 2340.16 301.94 2340.29 301.78
  Q 2340.38 301.66 2340.51 301.60
  Q 2341.26 301.24 2340.51 300.90
  Q 2340.40 300.85 2340.33 300.75
  Q 2340.15 300.46 2340.15 300.12
  Q 2340.09 294.24 2340.14 288.50
  Q 2340.15 287.86 2340.79 287.86
  Q 2346.72 287.88 2352.76 287.87
  C 2353.16 287.86 2353.45 288.02 2353.81 288.13
  A 0.61 0.61 0.0 0 0 2354.60 287.56
  L 2354.93 275.34
  Q 2354.98 273.48 2356.83 273.55
  Q 2362.83 273.78 2368.28 273.07
  Q 2368.96 272.99 2368.95 272.30
  Q 2368.88 265.93 2369.57 259.85
  Q 2369.64 259.24 2370.25 259.22
  L 2382.70 258.77
  A 0.61 0.60 -1.0 0 0 2383.29 258.17
  L 2383.34 245.52
  Q 2383.34 244.86 2384.00 244.86
  C 2386.09 244.89 2388.09 244.34 2390.22 244.35
  Q 2401.52 244.43 2411.55 244.35
  A 0.52 0.52 0.0 0 0 2412.07 243.84
  Q 2412.11 238.99 2412.13 234.25
  C 2412.13 233.26 2412.01 231.84 2411.58 230.94
  Q 2411.24 230.20 2412.05 230.20
  L 2483.51 230.31
  Q 2484.12 230.31 2484.05 230.91
  Q 2483.47 235.94 2483.86 241.33
  Q 2483.92 242.21 2483.47 242.85
  Q 2482.37 244.41 2484.28 244.41
  Q 2490.80 244.43 2497.17 244.43
  Q 2497.41 244.43 2497.57 244.26
  Q 2498.25 243.56 2498.27 244.54
  Q 2498.41 251.59 2498.30 258.44
  Q 2498.29 259.01 2498.86 259.00
  L 2512.01 258.86
  A 0.40 0.40 0.0 0 1 2512.42 259.26
  L 2512.42 272.71
  Q 2512.42 273.34 2511.79 273.31
  Q 2506.27 273.00 2500.85 273.13
  C 2500.10 273.14 2499.43 272.78 2498.78 272.42
  Q 2498.50 272.26 2498.73 272.48
  Q 2498.91 272.65 2498.79 273.00
  A 0.46 0.44 8.8 0 1 2498.36 273.30
  L 2484.50 273.33
  A 0.58 0.58 0.0 0 1 2483.92 272.75
  L 2483.87 259.48
  A 0.64 0.63 0.0 0 0 2483.23 258.85
  L 2427.33 258.96
  Q 2426.37 258.96 2426.37 259.92
  L 2426.37 272.47
  A 0.84 0.83 0.0 0 1 2425.53 273.30
  L 2412.76 273.32
  Q 2412.09 273.32 2412.09 273.99
  L 2412.09 287.06
  A 0.65 0.65 0.0 0 1 2411.44 287.71
  L 2398.29 287.69
  Q 2397.76 287.69 2397.76 288.22
  L 2397.63 301.17
  Q 2397.63 301.78 2397.02 301.78
  L 2383.97 301.82
  Q 2383.27 301.82 2383.27 302.53
  L 2383.27 315.80
  A 0.57 0.57 0.0 0 1 2382.70 316.37
  L 2369.64 316.37
  A 0.56 0.56 0.0 0 0 2369.08 316.94
  Q 2369.20 324.11 2369.08 330.72
  Q 2369.07 331.07 2368.79 331.27
  Q 2368.62 331.40 2368.77 331.55
  Z"
/>
<path fill="#000000" d="
  M 473.85 330.66
  L 473.82 316.39
  L 487.55 316.37
  A 0.66 0.66 0.0 0 0 488.21 315.71
  L 488.08 288.35
  Q 488.07 287.77 488.65 287.77
  L 501.02 287.79
  Q 502.05 287.79 502.13 286.77
  C 502.83 277.80 502.56 268.53 502.58 259.45
  Q 502.58 258.82 503.22 258.83
  L 516.08 259.00
  Q 516.66 259.00 516.66 258.42
  L 516.74 230.81
  A 0.70 0.69 0.0 0 1 517.44 230.12
  L 559.40 230.32
  Q 559.72 230.33 559.73 230.65
  L 559.90 272.61
  Q 559.90 273.12 559.39 273.12
  L 546.29 273.12
  Q 545.71 273.12 545.71 273.70
  L 545.61 301.47
  Q 545.60 302.30 544.82 302.05
  C 544.09 301.82 543.21 301.61 542.45 301.66
  Q 537.82 301.93 532.87 301.57
  Q 532.48 301.54 532.25 301.22
  Q 532.01 300.89 531.46 301.45
  A 0.56 0.54 69.1 0 0 531.29 301.85
  L 531.13 330.35
  Q 531.13 330.83 530.65 330.82
  L 517.33 330.65
  Q 516.82 330.64 516.82 331.16
  L 516.74 358.61
  Q 516.73 359.21 516.14 359.23
  L 503.63 359.57
  Q 502.68 359.60 502.68 360.54
  Q 502.52 379.39 502.61 398.06
  Q 502.63 402.13 502.12 406.36
  Q 501.60 410.78 502.51 415.72
  A 1.56 1.56 0.0 0 0 504.03 416.99
  L 515.92 417.02
  A 0.94 0.94 0.0 0 0 516.86 416.08
  L 516.85 405.01
  A 2.40 2.39 90.0 0 1 519.24 402.61
  L 530.33 402.59
  A 0.92 0.92 0.0 0 0 531.24 401.67
  L 531.26 388.64
  Q 531.26 388.05 531.86 388.04
  L 545.07 388.00
  Q 545.63 388.00 545.63 387.43
  L 545.62 374.35
  Q 545.62 373.89 546.03 373.69
  Q 546.18 373.62 546.35 373.59
  Q 547.32 373.40 546.54 372.79
  Q 546.28 372.59 546.04 372.38
  Q 545.67 372.05 545.67 371.54
  L 545.70 359.99
  Q 545.70 359.43 546.25 359.46
  Q 550.52 359.73 554.63 359.62
  C 555.95 359.59 557.05 359.13 558.38 359.51
  A 1.05 1.04 -81.2 0 0 559.71 358.53
  L 560.07 345.76
  Q 560.09 345.11 560.74 345.11
  L 573.55 345.07
  A 0.63 0.63 0.0 0 0 574.18 344.45
  L 574.42 317.50
  A 0.78 0.77 16.8 0 1 575.62 316.86
  Q 576.82 317.63 578.02 316.66
  Q 578.40 316.35 578.89 316.36
  C 581.32 316.38 585.69 315.89 587.63 316.77
  A 0.79 0.79 0.0 0 0 588.74 316.06
  L 588.80 302.76
  Q 588.80 301.95 589.61 301.90
  Q 596.12 301.49 602.07 301.95
  A 0.74 0.74 0.0 0 0 602.87 301.22
  L 603.02 273.74
  Q 603.02 273.25 603.51 273.26
  L 616.75 273.50
  Q 617.26 273.51 617.26 273.00
  L 617.43 244.98
  Q 617.43 244.26 618.15 244.31
  Q 624.11 244.72 630.33 244.28
  A 0.09 0.08 -87.3 0 1 630.42 244.38
  Q 630.26 245.10 630.97 245.15
  A 0.81 0.79 -62.8 0 0 631.57 244.95
  Q 632.31 244.31 632.05 243.40
  Q 631.87 242.75 631.85 242.07
  Q 631.75 236.70 632.08 231.54
  Q 632.10 231.24 631.95 230.99
  Q 631.87 230.86 631.87 230.72
  A 0.39 0.38 -89.2 0 1 632.25 230.34
  L 674.28 230.27
  Q 674.79 230.27 674.79 230.78
  L 674.89 272.82
  A 0.54 0.54 0.0 0 1 674.14 273.33
  Q 673.46 273.05 672.74 273.08
  Q 666.63 273.37 661.07 272.99
  Q 660.52 272.95 660.52 273.50
  L 660.39 301.23
  A 0.49 0.48 -9.2 0 1 660.05 301.69
  Q 658.85 302.07 657.49 301.95
  Q 652.73 301.51 647.98 301.91
  Q 647.39 301.95 647.02 301.50
  Q 646.91 301.36 646.74 301.32
  Q 646.03 301.13 646.11 301.86
  C 646.22 302.89 645.83 303.77 645.84 304.72
  Q 646.01 323.61 645.95 344.12
  Q 645.95 345.05 645.02 345.04
  L 632.43 344.97
  Q 631.83 344.97 631.83 345.57
  L 631.75 430.23
  A 0.95 0.95 0.0 0 0 632.70 431.18
  Q 652.76 431.08 673.78 431.10
  Q 674.34 431.10 674.87 431.27
  Q 675.30 431.40 675.75 431.40
  L 687.48 431.27
  A 0.62 0.61 -16.5 0 1 687.99 431.54
  Q 688.29 432.00 688.74 431.60
  A 0.71 0.67 -22.2 0 0 688.97 431.09
  L 689.14 402.51
  A 0.57 0.57 0.0 0 1 689.39 402.04
  Q 689.83 401.72 689.98 402.05
  Q 690.20 402.55 690.74 402.54
  L 702.60 402.43
  Q 703.15 402.42 703.16 401.87
  Q 703.41 379.50 703.76 351.97
  Q 703.80 349.25 703.60 345.74
  Q 703.58 345.29 703.90 344.97
  Q 704.13 344.75 704.42 344.98
  Q 704.70 345.21 705.07 345.21
  L 717.28 345.20
  A 0.60 0.60 0.0 0 0 717.88 344.60
  L 717.99 243.99
  A 0.23 0.23 0.0 0 1 718.38 243.83
  C 719.46 244.91 720.36 244.39 721.64 244.39
  Q 741.10 244.30 760.56 244.56
  Q 761.08 244.56 761.08 245.08
  L 760.97 373.53
  Q 760.97 374.13 760.37 374.07
  Q 753.69 373.40 747.30 373.93
  Q 746.70 373.98 746.70 374.58
  L 746.43 416.09
  A 1.01 1.00 2.4 0 1 745.35 417.08
  Q 738.93 416.60 732.72 417.13
  Q 732.13 417.18 732.13 417.78
  L 732.09 459.74
  Q 732.09 460.46 731.43 460.19
  Q 730.69 459.88 729.90 459.89
  Q 724.23 459.97 718.55 459.76
  Q 718.01 459.74 718.01 460.27
  L 717.87 488.62
  A 0.44 0.43 -5.8 0 1 717.52 489.04
  Q 717.07 489.14 716.89 488.79
  A 0.43 0.43 0.0 0 0 716.51 488.56
  L 704.08 488.65
  Q 703.55 488.65 703.55 489.17
  L 703.40 516.65
  Q 703.40 517.20 702.85 517.20
  L 690.79 517.16
  Q 690.27 517.16 689.92 516.77
  Q 689.64 516.47 689.33 516.54
  Q 689.09 516.60 689.09 516.85
  L 688.92 545.55
  Q 688.92 546.02 688.45 546.02
  L 675.31 545.93
  Q 674.80 545.92 674.81 546.43
  L 674.90 574.43
  A 0.32 0.32 0.0 0 1 674.57 574.75
  L 660.98 574.51
  Q 660.47 574.50 660.47 575.01
  L 660.47 588.53
  Q 660.47 589.28 659.72 589.28
  L 646.62 589.36
  Q 646.09 589.36 646.09 589.88
  L 645.90 617.32
  Q 645.90 617.79 645.43 617.78
  L 632.33 617.69
  A 0.48 0.48 0.0 0 0 631.85 618.17
  L 631.76 631.67
  Q 631.75 632.34 631.08 632.33
  L 617.93 632.31
  A 0.51 0.51 0.0 0 0 617.42 632.82
  L 617.20 660.49
  Q 617.20 660.92 616.77 660.91
  L 604.76 660.75
  Q 604.35 660.74 604.03 660.50
  Q 603.75 660.29 603.48 660.39
  Q 602.96 660.59 602.96 661.14
  L 602.92 674.89
  A 0.51 0.51 0.0 0 1 602.28 675.37
  Q 601.53 675.15 600.78 675.19
  Q 595.40 675.49 589.44 675.10
  Q 588.80 675.06 588.80 675.70
  L 588.72 689.06
  A 0.52 0.52 0.0 0 1 588.20 689.58
  L 574.74 689.56
  A 0.44 0.44 0.0 0 0 574.30 690.01
  L 574.33 703.71
  A 0.35 0.35 0.0 0 1 573.98 704.06
  L 560.28 704.05
  A 0.43 0.43 0.0 0 0 559.85 704.48
  L 559.84 717.72
  Q 559.84 718.53 559.03 718.52
  L 546.47 718.48
  Q 545.67 718.48 545.67 719.28
  L 545.68 732.25
  A 0.40 0.40 0.0 0 1 545.28 732.65
  L 531.79 732.65
  Q 531.23 732.65 531.23 733.21
  L 531.24 746.42
  A 0.46 0.46 0.0 0 1 530.78 746.88
  L 517.40 746.87
  A 0.73 0.73 0.0 0 0 516.67 747.60
  L 516.71 760.84
  Q 516.71 761.38 516.16 761.38
  L 506.26 761.38
  Q 505.75 761.38 505.27 761.55
  Q 504.20 761.93 503.73 760.90
  A 0.45 0.44 -25.8 0 0 503.11 760.69
  Q 502.90 760.81 502.78 761.03
  Q 502.52 761.49 501.99 761.49
  L 474.80 761.56
  A 1.15 1.14 -0.3 0 0 473.66 762.70
  L 473.58 775.24
  A 0.57 0.57 0.0 0 1 473.01 775.81
  L 445.54 775.89
  Q 444.97 775.89 445.04 775.32
  Q 445.34 773.04 445.24 770.78
  Q 445.14 768.56 445.22 766.18
  Q 445.30 764.11 445.16 762.14
  Q 445.12 761.56 444.54 761.55
  L 417.19 761.35
  Q 416.61 761.34 416.60 760.76
  Q 416.48 730.76 416.37 706.74
  Q 416.36 704.14 416.31 701.57
  Q 416.27 699.04 416.51 696.47
  Q 417.31 687.88 417.16 677.91
  A 2.28 2.24 64.5 0 1 417.66 676.46
  L 418.24 675.76
  Q 418.55 675.37 419.06 675.37
  L 429.52 675.38
  A 0.82 0.82 0.0 0 0 430.34 674.61
  C 430.91 666.17 430.43 657.49 430.95 649.11
  A 2.06 2.04 82.5 0 1 432.33 647.30
  C 433.44 646.93 434.45 646.52 435.64 646.56
  Q 439.23 646.69 442.93 646.50
  Q 443.47 646.48 443.85 646.86
  L 444.27 647.27
  Q 444.97 647.98 444.98 646.98
  L 445.10 632.35
  A 0.43 0.42 80.3 0 1 445.38 631.95
  Q 445.69 631.83 445.86 632.02
  Q 445.98 632.15 446.16 632.16
  L 458.94 632.17
  Q 459.43 632.17 459.43 631.68
  Q 459.29 618.32 459.84 604.72
  Q 459.89 603.43 461.18 603.51
  Q 466.51 603.83 472.95 603.31
  Q 473.44 603.27 473.47 602.78
  L 474.19 590.66
  Q 474.24 589.79 474.94 590.30
  Q 475.37 590.62 475.36 590.14
  A 0.65 0.64 -1.8 0 1 475.99 589.48
  L 487.10 589.22
  Q 487.66 589.21 487.71 588.65
  L 488.67 576.49
  Q 488.79 575.03 490.25 574.97
  L 501.73 574.55
  A 0.80 0.80 0.0 0 0 502.50 573.78
  L 502.94 561.57
  Q 502.98 560.50 504.05 560.49
  L 516.21 560.36
  Q 516.77 560.36 516.77 559.79
  L 516.80 546.59
  A 0.37 0.37 0.0 0 1 517.17 546.22
  L 530.36 546.21
  A 0.84 0.83 -89.3 0 0 531.19 545.39
  L 531.37 532.66
  Q 531.38 531.96 532.09 531.94
  L 544.91 531.62
  Q 545.66 531.60 545.67 530.84
  L 545.70 520.35
  Q 545.71 517.67 548.40 517.58
  L 558.73 517.26
  Q 559.80 517.22 559.78 516.16
  Q 559.73 512.99 559.69 510.09
  C 559.67 508.25 560.15 506.72 560.52 504.97
  A 1.64 1.63 -86.2 0 1 562.00 503.67
  L 573.75 502.79
  Q 574.25 502.75 574.26 502.24
  L 574.56 489.74
  Q 574.58 489.18 575.13 489.15
  L 588.37 488.43
  A 0.70 0.62 -62.4 0 0 588.74 488.29
  Q 589.52 487.67 589.17 487.40
  Q 588.86 487.15 588.86 486.75
  L 588.90 474.86
  Q 588.90 474.37 589.39 474.37
  L 601.88 474.37
  Q 602.15 474.37 602.36 474.53
  Q 602.48 474.62 602.63 474.64
  Q 602.68 474.65 602.68 474.59
  Q 602.69 474.35 602.88 474.25
  Q 603.01 474.19 603.15 474.19
  Q 609.67 474.21 616.62 474.18
  A 0.69 0.69 0.0 0 0 617.31 473.49
  L 617.26 460.49
  Q 617.26 459.95 617.80 459.95
  Q 618.06 459.96 618.12 459.71
  Q 618.17 459.51 618.15 459.29
  Q 618.11 458.90 617.72 458.95
  Q 617.10 459.04 617.15 458.42
  Q 617.55 453.62 617.33 448.36
  Q 617.31 447.99 617.23 447.63
  Q 617.14 447.23 617.38 446.91
  A 0.82 0.82 0.0 0 0 616.72 445.61
  L 603.49 445.64
  A 0.41 0.40 88.6 0 1 603.08 445.24
  L 602.84 416.75
  Q 602.83 415.91 601.99 416.39
  Q 601.69 416.57 601.02 416.59
  Q 594.98 416.76 589.42 417.08
  Q 588.83 417.12 588.83 416.52
  L 588.88 375.48
  A 1.64 1.63 89.8 0 0 587.24 373.84
  Q 581.74 373.88 576.20 373.89
  Q 575.60 373.89 575.10 373.55
  A 0.56 0.56 0.0 0 0 574.22 374.01
  L 574.20 387.21
  Q 574.20 387.88 573.54 387.88
  L 560.40 388.00
  Q 559.81 388.00 559.81 388.60
  L 559.88 415.76
  Q 559.88 417.13 558.51 417.06
  Q 553.88 416.82 550.61 416.89
  Q 549.80 416.90 548.98 417.07
  Q 547.91 417.29 547.00 416.60
  A 0.84 0.84 0.0 0 0 545.66 417.27
  L 545.67 430.51
  Q 545.67 430.87 545.30 430.90
  Q 538.14 431.36 531.62 430.91
  Q 531.03 430.87 531.03 431.46
  L 530.99 444.93
  Q 530.99 445.52 530.40 445.53
  Q 524.53 445.65 518.75 445.66
  Q 518.10 445.66 517.57 445.32
  Q 517.33 445.18 517.11 445.36
  Q 517.00 445.46 516.87 445.55
  Q 516.76 445.64 516.63 445.64
  Q 496.61 445.82 473.99 445.52
  A 0.33 0.32 0.0 0 1 473.66 445.20
  L 473.66 431.27
  A 0.43 0.42 -1.9 0 0 473.20 430.85
  Q 468.10 431.17 462.66 431.10
  C 461.96 431.09 460.97 431.42 460.33 431.69
  Q 459.58 432.01 459.57 431.19
  Q 459.26 393.93 459.90 359.79
  Q 459.91 359.21 460.48 359.28
  Q 466.53 360.04 473.33 359.23
  A 0.31 0.30 86.9 0 0 473.60 358.92
  L 473.85 330.66
  Z
  M 559.18 560.40
  L 546.52 560.32
  A 0.90 0.90 0.0 0 0 545.61 561.22
  L 545.64 574.00
  Q 545.64 574.76 544.88 574.74
  Q 538.36 574.52 533.51 574.85
  Q 533.11 574.88 532.73 574.75
  Q 532.38 574.64 532.18 574.34
  Q 531.83 573.82 531.36 574.24
  Q 530.48 575.01 530.95 575.95
  Q 531.15 576.36 531.15 576.82
  L 531.12 588.63
  Q 531.12 589.13 530.63 589.13
  L 518.44 589.13
  A 0.77 0.77 0.0 0 1 517.83 588.83
  Q 517.45 588.34 517.05 588.82
  Q 516.78 589.13 516.78 589.54
  L 516.69 603.28
  A 0.21 0.21 0.0 0 1 516.47 603.49
  L 506.66 602.85
  Q 506.16 602.82 505.71 603.03
  Q 505.37 603.19 505.00 603.30
  Q 504.53 603.43 504.09 603.23
  Q 503.48 602.96 502.94 603.45
  Q 502.62 603.76 502.61 604.21
  Q 502.57 610.73 502.47 617.29
  Q 502.46 617.74 502.00 617.74
  L 488.80 617.73
  Q 488.20 617.73 488.19 618.33
  L 488.13 631.71
  A 0.59 0.58 -0.0 0 1 487.54 632.29
  L 474.36 632.31
  Q 473.78 632.31 473.78 632.89
  L 473.78 645.50
  Q 473.78 646.01 473.54 646.46
  Q 473.30 646.90 473.45 647.37
  Q 473.64 648.01 473.64 648.65
  Q 473.60 654.47 473.66 660.29
  Q 473.66 660.88 473.07 660.88
  L 465.22 660.88
  Q 464.70 660.88 464.29 660.58
  Q 463.73 660.18 463.18 660.60
  Q 462.77 660.92 462.25 660.91
  Q 461.06 660.91 460.04 661.35
  Q 459.56 661.55 459.55 662.08
  L 459.48 674.52
  Q 459.47 675.10 458.90 675.14
  Q 452.11 675.60 445.91 675.24
  Q 445.08 675.19 445.08 676.03
  L 444.92 746.36
  Q 444.92 747.05 445.61 747.05
  L 487.19 747.05
  A 0.98 0.98 0.0 0 0 488.17 746.07
  L 488.10 733.33
  Q 488.10 732.76 488.67 732.76
  L 516.24 732.55
  A 0.55 0.55 0.0 0 0 516.78 732.00
  L 516.76 719.09
  Q 516.76 718.45 517.41 718.45
  L 530.63 718.46
  A 0.59 0.59 0.0 0 0 531.22 717.87
  L 531.20 704.31
  A 0.31 0.30 -0.9 0 1 531.51 704.00
  L 545.08 703.98
  A 0.56 0.56 0.0 0 0 545.64 703.42
  L 545.63 690.00
  A 0.66 0.65 -77.0 0 1 546.57 689.41
  C 547.57 689.90 548.37 689.40 549.39 689.40
  Q 553.90 689.40 558.93 689.44
  A 0.93 0.93 0.0 0 0 559.87 688.51
  L 559.86 663.03
  Q 559.86 660.96 561.93 661.08
  Q 567.88 661.41 573.07 660.66
  Q 573.62 660.58 573.79 660.06
  Q 574.32 658.52 574.20 656.71
  C 574.01 653.81 574.56 650.98 575.22 648.18
  A 1.94 1.93 -83.8 0 1 577.06 646.69
  L 587.98 646.46
  A 0.70 0.70 0.0 0 0 588.66 645.77
  L 588.74 632.68
  Q 588.74 632.47 588.82 632.27
  Q 588.92 632.02 589.12 631.99
  Q 589.69 631.93 589.28 631.54
  Q 588.80 631.08 588.82 630.23
  Q 588.99 624.09 588.75 618.73
  Q 588.72 618.14 589.32 618.12
  Q 596.07 617.99 602.29 618.21
  A 0.64 0.64 0.0 0 0 602.96 617.57
  L 602.97 603.55
  A 0.23 0.23 0.0 0 1 603.20 603.32
  L 616.47 603.41
  Q 617.10 603.41 617.11 602.78
  L 617.50 575.06
  Q 617.50 574.91 617.65 574.88
  Q 617.84 574.84 617.98 574.93
  Q 618.20 575.08 618.46 575.05
  Q 623.63 574.55 630.23 574.91
  Q 630.53 574.93 630.75 575.13
  Q 631.45 575.80 631.47 574.88
  L 631.94 546.70
  Q 631.95 546.26 632.38 546.27
  Q 637.99 546.51 644.00 546.32
  Q 644.32 546.31 644.59 546.43
  A 0.72 0.72 0.0 0 0 645.60 545.79
  L 646.10 520.26
  A 2.99 2.98 -0.4 0 1 648.99 517.33
  L 658.57 517.04
  A 1.09 1.08 -5.2 0 0 659.61 515.80
  Q 658.98 511.36 660.00 507.37
  Q 660.60 505.00 660.45 502.33
  Q 660.15 497.10 660.76 491.68
  C 660.97 489.79 660.37 488.03 660.48 486.09
  Q 660.83 480.18 660.49 474.72
  A 0.47 0.46 88.8 0 1 660.96 474.22
  L 674.26 474.46
  Q 674.86 474.48 674.85 473.88
  Q 674.60 462.04 675.33 450.41
  C 675.40 449.18 674.95 447.97 675.04 446.77
  Q 675.12 445.67 674.02 445.66
  L 661.23 445.60
  Q 660.56 445.60 660.55 446.27
  L 660.51 458.54
  Q 660.51 459.96 659.09 459.98
  L 646.65 460.15
  Q 645.96 460.16 645.94 460.84
  L 645.72 472.65
  Q 645.69 474.25 644.10 474.25
  L 632.43 474.25
  A 0.58 0.57 -0.0 0 0 631.85 474.82
  L 631.77 487.97
  Q 631.76 488.59 631.15 488.59
  L 617.84 488.59
  Q 617.28 488.59 617.28 489.16
  L 617.26 501.98
  Q 617.26 502.96 616.27 502.96
  L 603.42 502.99
  A 0.60 0.60 0.0 0 0 602.82 503.59
  L 602.83 516.55
  A 0.63 0.62 -89.6 0 1 602.20 517.18
  L 589.02 517.12
  A 0.38 0.37 -89.3 0 0 588.64 517.50
  L 588.63 531.22
  Q 588.63 531.83 588.02 531.80
  Q 582.36 531.54 578.32 531.67
  C 577.00 531.72 576.00 531.95 574.69 531.51
  A 0.53 0.53 0.0 0 0 573.99 532.09
  Q 574.80 538.20 574.01 545.64
  Q 573.95 546.17 573.41 546.17
  L 560.04 546.04
  A 0.31 0.30 -2.5 0 0 559.73 546.37
  Q 560.39 552.69 559.67 559.96
  Q 559.62 560.41 559.18 560.40
  Z"
/>
</svg>
